<?xml version="1.0" standalone="no"?>
<!DOCTYPE svg PUBLIC "-//W3C//DTD SVG 20010904//EN"
 "http://www.w3.org/TR/2001/REC-SVG-20010904/DTD/svg10.dtd">
<svg version="1.0" xmlns="http://www.w3.org/2000/svg"
 width="839.000000pt" height="760.000000pt" viewBox="0 0 839.000000 760.000000"
 preserveAspectRatio="xMidYMid meet">

<g transform="translate(0.000000,760.000000) scale(0.100000,-0.100000)"
fill="#000000" stroke="none">
<path d="M4115 6950 c-280 -14 -587 -55 -849 -111 -149 -33 -179 -46 -202 -90
-28 -55 -15 -115 33 -155 l26 -22 -34 -30 c-31 -28 -34 -35 -34 -85 0 -44 5
-60 23 -80 l24 -25 65 29 c275 123 587 184 1018 198 597 19 1063 -46 1381
-193 42 -20 81 -36 86 -36 17 0 48 66 48 102 0 46 -16 83 -46 103 l-23 14 35
35 c30 30 34 40 34 84 0 64 -32 106 -93 123 -246 66 -630 120 -992 139 -208
11 -275 11 -500 0z"/>
<path d="M3240 5926 l-55 -22 -8 -870 c-4 -478 -6 -899 -3 -936 6 -81 67 -271
126 -389 130 -260 315 -450 545 -560 363 -174 837 -152 1168 54 234 146 416
393 529 717 l33 95 3 937 2 937 -31 16 c-17 9 -48 23 -69 30 l-38 13 -5 -281
c-6 -288 -11 -338 -57 -517 -57 -225 -183 -485 -322 -667 -36 -48 -43 -66 -80
-230 -22 -98 -50 -201 -63 -230 -39 -87 -130 -140 -295 -175 -81 -17 -122 -19
-280 -15 -199 5 -256 15 -366 66 -77 36 -130 90 -149 153 -8 27 -31 122 -51
210 -36 152 -41 166 -84 223 -112 148 -215 349 -280 545 -74 221 -100 409
-100 728 0 105 -3 192 -7 192 -5 -1 -33 -11 -63 -24z"/>
<path d="M3547 5796 c-63 -17 -125 -62 -148 -105 -10 -19 -18 -36 -16 -37 1
-1 27 4 57 12 72 19 202 18 298 -2 42 -8 145 -38 228 -65 209 -68 250 -64 273
25 20 80 19 82 -51 89 -35 3 -137 25 -228 48 -188 47 -329 59 -413 35z"/>
<path d="M4980 5804 c-14 -3 -97 -23 -185 -44 -88 -22 -186 -42 -217 -46 l-58
-7 0 -44 c0 -49 21 -97 45 -107 38 -14 99 -3 240 44 236 79 389 99 515 66 30
-8 56 -13 58 -11 7 6 -26 60 -50 82 -49 46 -116 67 -223 69 -55 1 -111 0 -125
-2z"/>
<path d="M4104 4947 c-25 -22 -27 -28 -19 -53 13 -37 90 -76 161 -82 49 -4 54
-2 54 15 0 22 -40 77 -81 111 -43 35 -81 38 -115 9z"/>
<path d="M4565 4958 c-50 -27 -115 -105 -115 -138 0 -19 93 -11 147 14 62 29
90 65 73 95 -20 38 -66 51 -105 29z"/>
<path d="M4075 4451 c-225 -56 -213 -47 -171 -136 29 -61 64 -98 119 -128 41
-21 50 -22 352 -22 l311 0 48 25 c60 31 103 82 127 152 17 50 17 53 1 60 -35
16 -347 88 -377 88 -18 0 -49 -11 -70 -26 l-38 -25 -30 22 c-47 35 -103 33
-272 -10z"/>
<path d="M3128 3017 c-51 -21 -156 -65 -233 -97 -77 -31 -363 -151 -635 -265
-272 -114 -576 -241 -674 -282 -99 -41 -185 -82 -192 -91 -26 -35 -124 -242
-172 -363 -133 -332 -249 -743 -342 -1201 -37 -185 -98 -535 -115 -666 l-7
-52 3627 0 c3449 0 3626 1 3621 18 -3 9 -14 81 -25 158 -90 615 -255 1278
-428 1719 -62 158 -165 372 -191 396 -12 12 -1701 723 -1812 764 -9 3 -38 -17
-77 -53 -128 -123 -385 -222 -693 -267 -161 -24 -444 -35 -604 -24 -401 28
-743 139 -897 289 l-58 56 -93 -39z"/>
</g>
</svg>
