<?xml version="1.0" standalone="no"?>
<!DOCTYPE svg PUBLIC "-//W3C//DTD SVG 20010904//EN"
 "http://www.w3.org/TR/2001/REC-SVG-20010904/DTD/svg10.dtd">
<svg version="1.0" xmlns="http://www.w3.org/2000/svg"
 width="1587.000000pt" height="2245.000000pt" viewBox="0 0 1587.000000 2245.000000"
 preserveAspectRatio="xMidYMid meet">
<metadata>
Created by potrace 1.16, written by Peter Selinger 2001-2019
</metadata>
<g transform="translate(0.000000,2245.000000) scale(0.100000,-0.100000)"
fill="#000000" stroke="none">
<path d="M50 11225 l0 -11225 7483 0 c7238 0 7484 1 7500 18 22 24 21 28 -3
54 -25 27 -25 43 0 79 20 26 20 30 5 53 -15 23 -15 25 4 31 12 3 21 11 21 16
0 14 -38 11 -43 -3 -4 -9 -6 -8 -6 2 0 8 8 26 19 40 24 30 24 39 4 61 -14 16
-14 18 5 24 27 8 27 35 1 35 -12 0 -20 -7 -21 -17 0 -12 -2 -14 -6 -5 -3 8 5
28 17 44 20 27 21 33 9 55 -12 22 -11 26 4 34 23 13 22 29 -3 29 -12 0 -20 -7
-21 -17 0 -12 -2 -14 -6 -5 -3 8 4 27 16 43 26 35 26 41 1 64 -26 23 -25 55 1
84 21 22 21 25 6 51 -16 26 -16 28 3 33 11 3 20 10 20 16 0 15 -37 14 -43 -1
-4 -9 -6 -7 -6 3 -1 9 8 28 19 42 21 27 26 47 11 47 -5 0 -14 13 -20 28 -9 22
-9 35 0 55 7 15 16 27 21 27 15 0 8 27 -12 45 -26 23 -25 55 2 90 17 22 19 31
10 46 -16 25 -15 39 3 39 8 0 15 7 15 15 0 8 -7 15 -15 15 -19 0 -19 19 0 44
13 17 12 22 -10 44 -30 30 -32 65 -5 92 25 25 25 34 -1 69 -12 16 -19 35 -16
43 4 9 6 7 6 -4 1 -22 41 -25 41 -3 0 8 -6 15 -14 15 -23 0 -28 17 -11 33 20
21 19 34 -5 59 -26 28 -26 60 0 83 25 23 25 40 0 65 -27 27 -25 62 5 92 l25
25 -20 24 -21 23 23 12 c21 12 22 13 4 20 -11 4 -21 2 -27 -7 -7 -11 -9 -11
-9 2 0 9 10 28 21 43 19 24 20 30 8 53 -12 22 -11 26 4 35 19 10 14 28 -9 28
-8 0 -14 -8 -15 -17 0 -12 -2 -14 -6 -5 -3 8 4 27 16 43 26 35 26 37 0 65 -23
25 -21 61 6 88 19 19 19 23 -5 48 -25 28 -25 58 0 86 21 22 26 42 11 42 -5 0
-14 14 -21 31 -10 24 -10 35 0 55 7 13 17 24 22 24 13 0 9 22 -8 41 -14 16
-14 18 5 29 12 6 19 15 16 21 -10 15 -33 10 -38 -8 -4 -15 -5 -14 -6 3 0 11 9
31 21 43 17 19 19 27 10 40 -30 41 -36 62 -24 82 7 10 17 27 24 38 9 15 7 23
-10 42 -27 28 -27 35 -2 77 l20 33 -20 29 c-25 36 -25 51 1 79 21 22 21 25 6
51 -16 26 -16 28 6 38 20 9 21 10 3 17 -11 5 -21 3 -27 -6 -7 -12 -9 -11 -9 2
0 8 10 26 22 38 18 21 20 26 8 45 -7 11 -18 29 -24 38 -10 17 -2 41 26 79 9
13 7 21 -10 40 -12 12 -22 28 -22 35 0 20 22 64 32 64 14 0 9 20 -12 42 -25
28 -25 58 0 86 21 22 26 42 11 42 -5 0 -14 14 -21 30 -13 33 -2 80 20 80 5 0
10 9 10 20 0 11 -5 20 -10 20 -22 0 -33 47 -20 80 7 16 16 30 21 30 16 0 9 27
-11 45 -26 23 -26 55 0 83 22 23 26 47 10 57 -15 10 -12 35 5 35 23 0 18 27
-6 33 l-21 6 21 27 21 27 -25 25 c-30 30 -32 61 -5 90 21 23 27 52 10 52 -22
0 -33 47 -20 80 7 16 16 30 21 30 16 0 9 27 -11 45 -26 23 -26 67 0 90 25 23
25 40 0 65 -26 26 -26 62 0 85 25 23 25 30 0 57 -27 29 -25 61 5 94 14 15 25
29 25 32 0 3 -12 23 -27 44 -27 40 -26 51 9 99 9 13 7 21 -10 40 -12 12 -22
28 -22 35 0 20 22 64 32 64 14 0 9 20 -12 42 -25 28 -25 58 0 86 21 22 26 42
11 42 -5 0 -14 14 -21 31 -10 24 -10 35 0 55 7 13 17 24 22 24 14 0 9 21 -12
47 -25 32 -25 55 0 78 24 22 25 33 4 57 -16 16 -16 18 0 24 17 7 23 34 6 34
-5 0 -14 -8 -19 -17 -7 -12 -10 -14 -11 -4 0 7 10 30 21 51 l22 38 -22 23
c-26 28 -26 43 0 80 l20 29 -20 26 c-26 33 -26 48 0 85 20 29 20 31 3 50 -19
21 -19 21 11 37 19 10 19 11 1 18 -11 4 -21 2 -27 -7 -7 -11 -9 -11 -9 2 0 9
9 28 21 43 l20 26 -20 29 c-26 36 -26 52 -1 84 25 31 25 32 0 57 -25 25 -25
50 0 83 25 31 25 33 0 59 -25 27 -25 49 0 81 25 31 25 33 0 59 -26 28 -25 63
2 90 17 17 19 24 9 37 -29 40 -34 61 -23 84 7 12 17 29 23 38 10 13 8 20 -9
37 -29 29 -28 64 2 93 l24 25 -24 23 c-29 28 -31 64 -4 91 25 25 25 35 0 67
-26 34 -25 45 7 83 23 28 25 34 12 44 -19 13 -39 49 -39 68 0 8 9 24 20 36 25
27 25 37 0 62 -27 27 -25 63 4 91 l24 23 -24 29 c-29 35 -30 56 -4 90 25 32
25 42 0 69 -27 29 -25 62 5 86 14 11 25 22 25 24 0 3 -11 17 -25 32 -30 33
-31 55 -5 89 21 26 26 47 12 47 -5 0 -15 11 -22 24 -10 20 -10 31 0 55 7 17
16 31 21 31 15 0 10 20 -11 42 -25 28 -25 58 0 86 l20 21 -20 33 c-25 42 -25
64 0 85 25 22 25 27 -1 63 -20 26 -20 32 -9 59 7 17 16 31 21 31 15 0 10 19
-12 50 -20 26 -20 32 -9 59 7 17 16 31 21 31 15 0 10 24 -11 50 -25 32 -25 51
0 78 25 26 25 28 0 54 -25 28 -25 58 0 86 25 26 25 28 0 59 -26 33 -25 58 2
85 17 17 19 24 9 37 -37 52 -37 70 0 122 10 13 8 20 -9 37 -12 12 -22 29 -22
37 0 20 22 65 32 65 14 0 9 20 -12 42 -26 28 -26 60 0 83 25 23 25 30 0 57
-26 28 -25 63 2 90 17 17 19 24 9 37 -37 52 -37 70 0 122 10 13 8 20 -9 37
-27 27 -28 62 -2 90 25 26 25 28 0 54 -26 28 -26 62 0 88 25 25 25 34 -1 69
-24 32 -20 60 13 90 l20 19 -21 21 c-23 23 -20 44 4 35 17 -7 32 23 18 37 -6
6 -17 1 -31 -11 -21 -20 -22 -20 -22 -2 0 10 9 27 20 37 25 23 25 40 0 65 -27
27 -25 63 4 91 l24 23 -24 29 c-30 36 -30 55 1 96 l24 34 -24 19 c-34 26 -33
70 0 96 l25 20 -25 30 c-14 16 -25 36 -25 43 0 10 2 11 8 2 4 -6 16 -13 27
-15 14 -2 20 3 20 17 0 14 -6 19 -17 17 -15 -2 -18 5 -18 39 0 33 3 40 15 35
17 -6 31 17 20 34 -5 8 -14 6 -31 -5 -21 -14 -24 -14 -24 0 0 21 36 55 60 55
23 0 21 715 20 -7018 l-1 -4372 391 0 390 0 0 11225 0 11225 -390 0 -391 0 1
-3582 c1 -6004 2 -5788 -14 -5788 -20 0 -66 47 -66 67 0 11 3 14 8 7 4 -6 17
-14 30 -18 18 -6 22 -4 22 13 0 14 -6 21 -20 21 -16 0 -20 7 -20 35 0 28 4 35
20 35 13 0 20 7 20 20 0 26 -46 28 -53 3 -4 -16 -5 -16 -6 -1 0 9 10 29 23 45
l24 29 -24 23 c-31 30 -30 62 1 94 l26 25 -26 30 c-32 38 -36 73 -4 41 14 -14
24 -18 31 -11 15 15 3 40 -22 44 l-22 3 20 25 20 26 -24 23 c-29 28 -31 64 -4
91 21 21 27 50 10 50 -16 0 -32 41 -26 66 4 13 16 33 28 44 l22 20 -21 20
c-33 30 -37 56 -14 89 26 36 26 53 1 69 -28 17 -26 63 5 92 l25 23 -25 25
c-31 30 -32 65 -3 94 17 17 19 24 9 37 -29 40 -34 61 -23 84 7 12 17 29 23 38
10 13 8 20 -9 37 -29 29 -28 64 4 95 22 22 24 28 11 33 -8 3 -21 19 -28 35 -9
24 -9 35 1 55 7 13 17 24 22 24 13 0 9 20 -7 36 -28 28 -29 63 -4 90 19 21 21
28 11 42 -34 47 -35 60 -13 97 l21 36 -22 30 -23 30 22 41 c23 40 23 40 3 66
-25 31 -25 47 1 83 l20 29 -20 26 c-27 34 -26 54 1 83 17 19 19 27 10 40 -38
52 -38 70 -1 122 10 13 8 20 -9 37 -27 27 -28 52 -2 85 22 27 26 47 10 47 -22
0 -33 47 -20 80 7 16 16 30 21 30 15 0 10 20 -11 42 -26 28 -26 60 0 83 24 22
25 32 5 51 -27 28 -29 63 -6 88 l22 24 -20 33 c-27 44 -26 51 5 88 l26 32 -26
26 c-31 31 -33 66 -6 93 11 11 20 26 20 33 0 8 -9 22 -20 32 -11 10 -20 26
-20 37 0 17 2 16 21 -3 14 -14 24 -18 31 -11 15 15 3 40 -22 44 l-22 3 21 24
21 24 -25 25 c-30 30 -32 63 -5 87 25 23 25 40 0 65 -27 27 -25 62 7 94 l26
27 -21 19 c-11 11 -23 28 -27 39 -7 22 10 61 25 61 17 0 11 30 -10 57 -20 26
-28 73 -12 73 5 0 14 11 22 24 11 21 10 27 -9 47 -26 29 -27 63 -1 89 25 25
25 32 0 55 -26 23 -25 55 1 89 l20 26 -20 26 c-26 34 -27 66 -1 89 24 22 25
32 5 51 -27 27 -29 63 -6 88 22 23 28 46 12 46 -5 0 -14 14 -21 31 -12 27 -11
33 10 61 18 25 21 34 11 47 -34 47 -35 60 -11 93 18 25 21 34 11 47 -33 46
-34 59 -12 97 l22 37 -21 22 c-25 27 -26 55 0 83 21 22 26 42 11 42 -5 0 -14
14 -21 31 -10 24 -10 35 0 55 7 13 17 24 22 24 14 0 9 21 -12 47 -25 33 -25
58 0 83 11 11 20 25 20 30 0 6 -9 19 -20 30 -25 25 -25 48 0 80 25 31 25 36 0
62 -25 28 -25 49 1 82 l20 26 -20 29 c-26 36 -26 52 -1 83 20 26 20 26 -3 66
l-22 41 23 30 22 30 -20 33 c-26 42 -25 50 6 87 26 32 24 52 -10 81 -22 18
-20 63 4 85 25 23 25 30 0 57 -26 28 -26 62 0 88 11 11 20 26 20 33 0 7 -9 20
-20 30 -27 23 -25 60 4 88 l24 23 -20 25 c-19 26 -19 26 2 35 23 11 22 29 -3
34 -11 2 -17 -3 -18 -15 0 -12 -2 -13 -6 -5 -3 8 4 27 16 43 26 35 26 44 1 69
-27 27 -25 59 6 91 23 24 24 28 10 42 -20 20 -21 47 -1 47 22 0 18 18 -7 31
-20 11 -20 13 -5 24 23 16 21 38 -3 60 -26 23 -26 63 1 91 20 21 20 23 3 49
-17 25 -16 26 4 32 28 7 29 33 2 33 -12 0 -20 -7 -21 -17 0 -12 -2 -14 -6 -5
-3 8 4 27 16 43 26 35 26 35 1 66 -11 14 -20 33 -19 42 0 10 2 12 6 4 5 -15
43 -18 43 -4 0 5 -9 13 -21 16 -19 6 -19 8 -4 32 16 24 16 26 -4 47 -27 28
-27 68 -1 91 24 22 25 32 5 52 -17 17 -11 33 11 33 20 0 12 24 -9 28 -11 2
-17 -3 -18 -15 0 -12 -2 -13 -6 -5 -3 8 4 27 16 43 26 35 26 33 0 68 -12 16
-19 35 -16 43 4 9 6 7 6 -4 1 -11 9 -18 21 -18 27 0 26 26 -2 33 -22 6 -22 6
-3 27 16 17 17 24 7 38 -34 47 -35 60 -13 97 l21 37 -20 25 c-25 32 -25 54 0
81 25 26 25 28 0 59 -25 32 -25 54 0 81 25 26 25 26 -1 61 -12 16 -19 35 -16
43 4 9 6 7 6 -4 1 -10 7 -18 14 -18 25 0 27 13 6 36 -20 21 -20 24 -5 30 22 8
20 30 -4 54 -11 11 -20 28 -20 38 0 14 2 14 9 3 5 -8 16 -11 26 -8 19 8 11 27
-11 27 -18 0 -18 14 1 30 20 17 19 27 -5 52 -11 12 -20 29 -19 37 0 11 2 12 6
4 6 -16 43 -17 43 -2 0 6 -9 13 -20 16 -19 5 -19 7 -3 33 15 26 15 29 -6 51
-26 28 -26 43 -1 79 l20 29 -20 33 c-25 41 -25 49 1 77 l22 23 -22 39 c-13 22
-20 45 -18 52 3 7 6 5 6 -5 1 -22 41 -25 41 -3 0 8 -7 15 -15 15 -18 0 -19 14
-3 40 10 15 9 23 -6 39 l-19 21 -7484 0 -7483 0 0 -11225z m14967 8973 c-3 -8
-6 -5 -6 6 -1 11 2 17 5 13 3 -3 4 -12 1 -19z m-4371 -2574 c53 -25 58 -78 10
-104 -30 -15 -42 -8 -61 36 -11 27 -19 34 -42 34 -39 0 -69 -24 -83 -65 -10
-30 -9 -40 7 -67 29 -50 75 -72 149 -71 73 1 107 12 184 64 106 70 176 93 295
93 99 1 165 -14 237 -53 104 -58 213 -165 257 -254 89 -180 80 -336 -31 -501
-45 -65 -143 -166 -189 -193 -16 -10 -29 -24 -29 -31 0 -24 64 -76 108 -89 95
-29 171 -10 305 74 37 24 72 43 77 43 6 0 10 4 10 9 0 5 8 11 18 15 9 3 40 19
67 35 81 47 123 36 74 -20 -43 -48 -99 -138 -99 -158 0 -11 -4 -22 -9 -25 -20
-13 -22 -96 -4 -156 9 -33 21 -60 25 -60 4 0 8 -11 8 -25 0 -14 5 -25 10 -25
6 0 10 -6 10 -14 0 -8 16 -31 35 -50 42 -44 44 -51 8 -32 -47 24 -68 48 -103
121 -27 56 -35 85 -38 146 -4 74 3 103 39 171 5 10 9 22 9 28 0 16 -45 11 -66
-7 -47 -43 -162 -105 -234 -126 -19 -6 -71 -11 -115 -11 -88 -1 -138 18 -198
74 -18 17 -39 30 -47 30 -9 0 -54 -22 -100 -50 -47 -27 -106 -60 -133 -72 -26
-12 -46 -27 -44 -32 2 -6 46 -40 98 -76 53 -36 141 -104 197 -152 151 -129
350 -219 493 -221 89 -1 104 12 61 53 -25 24 -32 38 -32 69 0 55 26 81 83 81
60 0 87 -34 87 -109 0 -28 -4 -51 -8 -51 -5 0 -15 -11 -22 -25 -7 -14 -19 -25
-27 -25 -7 0 -13 -4 -13 -10 0 -5 -10 -10 -23 -10 -13 0 -28 -5 -34 -11 -11
-11 -121 -7 -195 6 -44 8 -53 -11 -15 -35 50 -32 210 -110 227 -110 10 0 22
-4 25 -10 3 -5 17 -10 29 -10 13 0 37 -7 52 -15 16 -8 41 -15 57 -15 26 0 27
-2 27 -47 0 -37 -3 -44 -12 -35 -7 7 -38 12 -69 12 -32 0 -61 5 -64 10 -3 6
-15 10 -26 10 -10 0 -27 4 -37 8 -9 5 -36 18 -59 29 -25 13 -45 17 -49 12 -3
-6 9 -40 27 -77 31 -62 33 -75 34 -164 l0 -97 -39 -35 c-30 -29 -47 -36 -78
-36 -85 0 -132 58 -103 126 23 57 80 69 138 30 19 -13 38 -22 41 -18 9 8 7 80
-3 100 -4 9 -16 35 -27 57 -21 46 -130 206 -171 251 -29 31 -140 124 -149 124
-7 0 7 -71 18 -93 5 -10 9 -66 9 -125 0 -153 -35 -236 -142 -340 -45 -43 -156
-109 -224 -132 -157 -54 -319 -63 -469 -25 -90 23 -149 57 -221 129 -60 61
-101 141 -120 234 -4 18 -13 32 -21 32 -7 0 -33 -15 -57 -32 -23 -18 -65 -44
-92 -57 -134 -63 -177 -69 -445 -60 -98 3 -109 1 -162 -25 -32 -15 -73 -46
-93 -68 -30 -36 -35 -48 -35 -94 0 -45 4 -57 30 -82 33 -33 88 -45 123 -27 18
9 22 19 22 61 0 58 16 84 53 84 40 0 62 -27 62 -74 -1 -72 -59 -116 -153 -116
-90 0 -146 39 -166 117 -28 104 36 202 167 253 17 7 32 15 32 19 0 4 -16 15
-36 26 -49 26 -111 98 -143 165 -21 46 -26 70 -26 140 0 77 3 91 34 152 80
158 232 247 401 235 132 -9 190 -54 190 -146 0 -66 -36 -101 -103 -101 -40 0
-54 5 -73 25 -13 14 -27 38 -30 53 -11 43 -23 52 -75 52 -115 0 -222 -87 -255
-206 -17 -62 -17 -68 0 -121 28 -87 107 -161 206 -193 64 -21 94 -25 205 -24
112 0 138 3 190 24 129 50 238 145 250 217 10 56 34 118 67 170 36 57 53 135
44 207 -7 54 -10 58 -57 88 -27 18 -49 36 -49 39 0 11 -98 79 -113 79 -8 0
-22 -9 -33 -21 -22 -24 -77 -49 -109 -49 -62 0 -145 66 -145 116 0 31 5 30 47
-6 40 -35 61 -37 97 -9 33 26 36 88 6 137 -26 42 -118 101 -205 130 -71 24
-86 24 -126 -3 -26 -17 -59 -27 -99 -32 -71 -7 -76 -20 -22 -55 65 -43 127
-58 239 -58 67 0 102 -4 98 -10 -3 -5 -19 -10 -35 -10 -16 0 -32 -4 -35 -10
-9 -15 -203 -12 -256 4 -25 8 -78 28 -118 45 -40 17 -81 31 -91 31 -11 0 -22
5 -25 10 -3 6 -15 10 -26 10 -11 0 -17 -4 -14 -10 3 -5 13 -10 21 -10 8 0 20
-4 27 -10 34 -27 147 -114 187 -142 37 -27 53 -32 97 -32 29 1 53 -2 53 -5 0
-3 -14 -21 -32 -40 -57 -61 -138 -84 -215 -62 -30 9 -34 7 -49 -17 -37 -63
-135 -97 -193 -67 l-32 16 24 25 c39 38 45 121 15 182 -37 74 -94 104 -213
110 -90 4 -195 -11 -260 -37 -155 -64 -257 -167 -328 -328 -23 -52 -26 -65
-15 -82 14 -23 2 -43 -13 -21 -7 11 -9 6 -7 -18 2 -18 -2 -36 -8 -40 -5 -4
-17 -29 -26 -57 -18 -58 -34 -67 -48 -28 -5 15 -15 36 -20 45 -6 10 -10 27
-10 38 0 11 -7 20 -15 20 -12 0 -14 9 -10 43 6 41 6 41 -9 17 -14 -24 -15 -24
-22 -5 -19 48 -118 150 -169 174 -50 24 -148 28 -190 9 -30 -13 -30 -16 -5
-48 30 -38 26 -91 -9 -129 -25 -26 -36 -31 -76 -31 -41 0 -52 5 -80 34 -18 19
-35 49 -39 67 -10 50 18 122 64 163 96 86 269 70 388 -36 31 -27 102 -126 117
-163 7 -18 8 -19 12 -2 3 10 -5 38 -16 62 -12 25 -21 47 -21 51 0 15 -69 104
-117 151 -59 58 -162 112 -258 134 -33 8 -107 14 -165 14 -90 0 -112 -4 -153
-24 -69 -34 -101 -91 -95 -171 3 -48 10 -66 31 -88 l27 -28 -29 -17 c-57 -34
-134 -12 -191 54 -33 37 -37 39 -63 30 -41 -16 -86 -13 -132 8 -51 23 -101 65
-108 90 -4 17 -1 18 24 11 52 -15 93 0 167 60 39 32 88 68 109 81 21 13 40 26
43 29 3 4 14 10 24 13 10 4 16 10 12 14 -3 3 -16 2 -29 -4 -12 -6 -40 -16 -62
-22 -22 -7 -60 -22 -85 -33 -25 -12 -61 -25 -80 -31 -50 -14 -228 -20 -259 -9
-14 6 -39 14 -56 18 -22 6 4 10 91 14 114 5 125 7 190 40 91 47 95 65 13 74
-45 4 -72 13 -97 33 l-35 27 -71 -19 c-197 -50 -311 -190 -226 -275 30 -30 67
-25 106 14 l34 34 6 -25 c9 -34 -21 -72 -77 -100 -55 -28 -78 -28 -133 -2 -53
24 -72 50 -90 121 -7 29 -15 53 -18 53 -3 0 -38 -36 -79 -81 -93 -102 -104
-133 -104 -304 1 -135 9 -169 68 -290 40 -80 141 -184 217 -222 91 -46 171
-61 290 -56 150 7 236 36 305 102 66 65 90 124 82 204 -6 68 -27 112 -76 161
-51 51 -119 81 -185 81 -58 0 -69 -8 -80 -55 -13 -53 -43 -75 -102 -75 -48 0
-55 3 -78 33 -49 64 -22 151 59 192 32 15 61 19 140 20 93 0 105 -3 168 -33
84 -41 165 -120 203 -198 34 -70 45 -190 23 -258 -23 -74 -96 -165 -161 -204
-16 -9 -28 -19 -28 -23 0 -4 20 -15 45 -25 90 -34 155 -119 155 -203 0 -61
-20 -102 -68 -135 -31 -21 -49 -26 -100 -26 -77 0 -123 24 -151 77 -26 50 4
113 53 113 46 0 83 -59 54 -88 -16 -16 9 -62 36 -64 100 -7 158 56 138 150 -9
42 -73 107 -131 133 -49 21 -91 24 -301 19 -68 -2 -129 2 -150 8 -19 7 -53 18
-75 25 -69 22 -158 75 -216 130 -69 65 -100 107 -137 188 -25 54 -30 60 -36
42 -4 -12 -2 -39 3 -60 35 -125 -18 -342 -107 -439 -44 -47 -115 -92 -190
-121 -62 -24 -79 -26 -234 -26 -92 0 -173 4 -180 9 -7 6 -40 18 -73 29 -33 10
-64 22 -70 27 -5 4 -15 8 -22 8 -39 0 -232 176 -233 213 0 9 -4 17 -10 17 -5
0 -10 11 -10 25 0 14 -4 25 -10 25 -6 0 -10 55 -10 145 0 90 4 145 10 145 6 0
10 20 10 45 0 25 -4 45 -10 45 -5 0 -10 16 -10 35 0 24 5 35 14 35 8 0 27 12
43 28 16 15 58 53 94 84 35 31 74 66 86 77 12 12 25 21 29 21 10 0 108 72 112
82 2 4 10 8 17 8 8 0 19 9 25 20 11 21 6 40 -11 40 -6 0 -35 16 -65 35 -30 19
-59 35 -64 35 -6 0 -10 5 -10 10 0 6 -7 10 -15 10 -8 0 -15 5 -15 10 0 6 -7
10 -16 10 -8 0 -22 7 -30 15 -9 8 -32 15 -52 15 -30 0 -43 -7 -67 -35 -36 -41
-75 -48 -75 -12 0 12 9 29 20 37 28 20 28 90 0 97 -11 3 -20 9 -20 14 0 12 27
11 35 -1 3 -5 17 -10 30 -10 13 0 27 -4 30 -10 3 -5 23 -10 43 -10 35 0 93
-16 120 -33 18 -12 32 1 32 29 0 13 -4 24 -10 24 -5 0 -10 6 -10 13 0 7 -20
33 -45 57 -24 24 -43 46 -41 48 4 4 53 -25 72 -43 6 -5 23 -19 37 -30 15 -11
27 -24 27 -28 0 -15 122 -137 137 -137 7 0 13 4 13 8 0 8 -62 109 -80 129 -5
7 -10 21 -10 32 0 11 -4 23 -10 26 -5 3 -10 14 -10 23 0 20 -52 82 -69 82 -6
0 -11 7 -11 15 0 12 13 15 61 15 54 0 66 -4 96 -30 33 -30 34 -30 71 -14 59
26 81 28 117 8 32 -17 54 -44 37 -44 -12 0 -56 -43 -75 -72 -25 -39 -22 -112
5 -151 28 -40 36 -46 59 -40 13 4 22 -3 31 -22 12 -26 76 -65 108 -65 9 0 21
-5 27 -11 17 -17 229 -14 278 4 39 15 85 61 73 73 -4 3 -31 1 -62 -6 -92 -19
-192 13 -246 79 -26 30 -30 44 -30 92 0 53 3 59 35 88 42 37 81 40 119 10 18
-14 26 -30 26 -50 0 -37 -16 -69 -35 -69 -8 0 -19 -8 -24 -19 -8 -14 -5 -23
17 -43 83 -78 194 -77 267 1 72 78 198 156 320 197 73 24 155 43 193 44 28 0
32 3 32 29 0 15 -5 42 -11 59 -16 46 -5 63 14 22 19 -38 69 -77 126 -97 42
-15 137 -16 236 -3 44 6 128 5 228 -2 87 -5 161 -8 163 -5 3 3 -7 27 -23 54
-42 72 -53 110 -53 196 0 66 4 86 29 136 85 167 281 219 427 113 66 -48 109
-158 101 -259 -5 -65 -48 -173 -69 -173 -7 0 -9 -15 -5 -41 3 -23 1 -52 -3
-65 -8 -20 -5 -26 19 -38 42 -22 103 -3 157 49 34 32 44 37 44 23 0 -10 -4
-18 -10 -18 -5 0 -10 -6 -10 -13 0 -22 -59 -74 -105 -94 -51 -20 -53 -26 -24
-51 34 -28 86 -106 99 -148 7 -21 17 -48 23 -59 40 -75 77 -156 77 -169 0 -8
4 -25 9 -38 6 -13 13 -45 17 -73 l7 -50 19 75 c25 95 55 175 85 222 13 21 23
44 23 51 0 27 51 117 89 157 46 48 57 70 35 70 -43 0 -115 56 -159 124 -28 42
-12 39 36 -7 56 -53 110 -71 156 -52 37 16 37 14 23 49 -13 35 3 73 37 88 16
7 30 13 32 14 1 2 -7 13 -19 26 -27 29 -45 69 -60 135 -23 103 27 239 109 296
153 105 347 41 428 -143 10 -22 16 -66 16 -120 1 -74 -3 -92 -27 -140 -15 -30
-39 -70 -53 -88 -14 -18 -23 -35 -20 -38 2 -3 69 0 148 5 93 7 167 7 209 1
173 -25 265 -6 333 69 20 22 40 41 43 41 3 0 3 -15 0 -32 -16 -76 -14 -83 24
-86 50 -4 155 -30 225 -57 107 -40 187 -89 257 -157 38 -38 78 -68 88 -68 11
0 36 14 55 32 l37 31 -36 33 c-60 55 -43 124 36 149 27 9 69 -10 93 -43 32
-43 28 -128 -8 -175 -27 -36 -110 -87 -142 -87 -19 0 -19 -14 1 -45 14 -22 24
-25 73 -25 58 0 167 29 208 56 12 7 24 23 28 34 4 14 15 20 35 20 20 0 35 8
49 28 48 69 40 135 -27 199 l-46 45 29 24 c35 28 97 32 140 10 26 -14 30 -13
62 11 36 28 100 40 157 29 45 -9 46 -28 4 -47 -19 -8 -40 -29 -50 -49 -47 -95
-79 -172 -74 -177 5 -5 18 7 109 105 60 65 217 146 217 112 0 -5 -6 -10 -12
-10 -22 0 -127 -89 -155 -130 -33 -51 -22 -67 30 -45 20 8 47 15 59 15 69 1
137 44 183 115 28 44 35 65 35 104 0 64 -29 103 -74 99 -25 -2 -34 -10 -49
-41 -19 -40 -37 -41 -37 -2 0 51 52 106 110 116 52 9 125 -34 143 -83 7 -21
44 18 52 55 35 163 -3 283 -130 413 -76 77 -153 122 -252 144 -115 26 -300
-39 -406 -143 -66 -64 -87 -109 -87 -186 0 -150 167 -248 308 -180 43 21 44
23 38 60 -8 52 7 86 48 106 29 14 39 14 66 3 33 -13 60 -55 60 -90 0 -52 -46
-104 -130 -146 -47 -24 -66 -27 -143 -27 -49 0 -100 6 -113 12 -13 6 -35 16
-48 22 -44 21 -95 70 -124 117 -24 42 -27 56 -27 142 0 77 4 103 21 137 12 23
19 44 16 47 -3 4 -31 6 -62 6 -95 0 -180 72 -180 152 0 41 40 99 83 119 52 23
79 24 123 3z m-4759 -6 c38 -17 61 -44 75 -90 20 -68 -25 -135 -110 -165 -46
-16 -94 -17 -110 -1 -24 24 -25 -23 -1 -69 31 -59 34 -197 7 -253 -21 -44 -91
-110 -138 -131 -82 -37 -101 -41 -167 -37 -81 5 -154 37 -200 87 -27 29 -33
43 -33 81 0 37 5 51 25 68 32 28 53 28 88 -2 25 -21 28 -30 26 -75 -3 -58 -6
-52 44 -80 53 -29 141 -29 197 2 100 53 138 143 113 268 -11 55 -188 219 -236
219 -8 0 -17 3 -20 6 -18 18 -119 43 -175 44 -61 0 -157 -23 -168 -41 -3 -5
-16 -9 -30 -9 -13 0 -24 -4 -24 -10 0 -5 -4 -10 -10 -10 -14 0 -12 19 3 34 18
18 125 66 147 66 10 0 22 5 25 10 3 6 44 10 90 10 46 0 87 -4 90 -10 3 -5 19
-10 34 -10 15 0 51 -11 79 -25 29 -14 56 -25 62 -25 5 0 10 -4 10 -10 0 -5 7
-10 15 -10 8 0 15 -4 15 -9 0 -5 24 -21 54 -35 134 -64 286 -13 286 95 0 72
-81 126 -124 83 -9 -8 -16 -24 -16 -34 0 -27 -37 -36 -61 -14 -61 55 49 121
138 82z m-814 -717 c15 -8 27 -20 27 -27 0 -7 6 -14 13 -17 6 -2 9 -8 5 -12
-4 -4 -15 3 -25 14 -9 12 -28 21 -40 21 -17 0 -23 6 -23 21 0 11 3 19 8 17 4
-2 19 -10 35 -17z m3134 -143 c-3 -8 -6 -5 -6 6 -1 11 2 17 5 13 3 -3 4 -12 1
-19z m633 -431 c67 -29 100 -84 100 -169 -1 -89 -36 -128 -117 -128 -43 1 -69
17 -89 56 -18 35 -18 47 6 96 11 23 19 42 17 43 -40 32 -150 34 -209 4 -46
-23 -144 -119 -153 -150 -4 -11 -11 -17 -16 -14 -12 8 -11 21 4 37 6 7 19 26
27 43 8 16 41 57 73 91 56 60 100 89 162 105 42 11 154 3 195 -14z m6286
-3332 c1 -27 0 -40 -3 -27 -9 43 -83 15 -83 -31 0 -11 16 -53 35 -93 19 -40
35 -84 35 -98 0 -13 5 -28 10 -31 6 -3 9 -30 8 -58 -1 -36 -2 -42 -5 -19 -2
17 -8 32 -14 32 -5 0 -9 7 -9 15 0 18 -67 32 -89 18 -9 -5 -20 -19 -26 -31
-12 -26 -18 -27 -36 -6 -11 14 -9 20 15 40 23 20 26 27 16 39 -7 8 -19 15 -26
15 -8 0 -14 4 -14 8 0 17 26 32 56 32 18 0 35 4 39 9 7 12 -49 40 -96 47 -45
8 -71 -17 -79 -74 l-5 -37 -19 34 c-19 36 -16 69 10 109 23 35 58 44 107 27
23 -8 45 -15 48 -15 3 0 4 22 1 49 -7 72 17 102 78 99 l45 -3 1 -50z m-13942
-200 c20 -30 20 -103 1 -129 -14 -19 -15 -17 -15 18 0 20 -5 46 -10 56 -13 24
-72 36 -116 22 -45 -13 -43 -1 4 31 51 36 113 37 136 2z m10125 -73 c13 -47
38 -313 46 -497 12 -254 -49 -493 -142 -561 -164 -121 -546 -191 -711 -131
-43 15 -45 15 -105 -14 -96 -44 -195 -65 -406 -84 -221 -20 -316 -17 -382 12
-40 18 -50 19 -77 7 -45 -19 -226 -62 -300 -72 l-64 -9 6 28 5 28 -46 -21
c-38 -17 -168 -46 -210 -48 -7 0 -26 -29 -43 -65 -36 -75 -92 -126 -203 -182
-180 -90 -372 -96 -520 -16 -55 31 -124 103 -134 142 -13 54 46 200 143 348
51 79 158 203 174 203 3 0 12 -36 19 -79 l13 -79 -98 -95 -99 -95 24 -26 c80
-85 398 -89 560 -6 36 18 41 25 41 54 0 67 -65 363 -111 503 l-20 62 51 75
c50 75 165 206 180 206 18 0 47 -252 57 -489 l6 -162 56 6 c104 12 176 27 217
44 35 16 43 25 54 65 11 40 16 46 40 46 36 0 39 -6 30 -43 -23 -91 -24 -87 14
-87 62 0 86 15 86 54 0 55 46 187 88 252 49 75 99 119 182 158 54 25 78 30
140 31 113 0 149 -31 171 -149 13 -72 -2 -164 -40 -241 -17 -33 -28 -61 -26
-63 1 -2 66 2 144 9 l141 13 0 44 c0 86 84 286 155 370 48 55 89 72 175 72
141 0 220 -76 205 -198 -8 -72 -27 -137 -54 -190 l-21 -42 47 0 c103 0 433 69
433 90 0 48 -55 300 -102 467 l-31 111 28 47 c41 71 180 232 202 235 1 0 7
-17 12 -38z m-10239 -32 c8 -5 12 -10 10 -12 -30 -19 -49 -25 -60 -18 -11 7
-11 11 -1 24 15 18 29 20 51 6z m9656 -181 c13 -14 5 -22 -72 -73 l-86 -57
-38 40 c-54 57 -104 131 -94 141 5 4 47 33 94 64 l84 56 49 -78 c27 -42 56
-84 63 -93z m-9660 97 c8 -8 14 -19 14 -25 0 -18 -20 -13 -27 7 -4 9 -11 20
-17 24 -7 5 -6 8 2 8 7 0 20 -6 28 -14z m14041 -153 c-27 -42 -66 -73 -93 -73
-11 0 -3 11 22 29 52 38 84 76 85 104 2 22 2 22 6 0 2 -12 -7 -39 -20 -60z
m-232 58 c3 -5 -4 -25 -15 -44 l-20 -34 25 -69 c14 -38 25 -70 25 -71 0 -2 4
-3 9 -3 20 0 21 34 0 53 -19 18 -20 21 -4 36 15 15 18 14 33 -4 9 -12 25 -24
35 -28 25 -9 21 -21 -15 -48 -72 -53 -30 -129 71 -129 22 0 43 -4 46 -10 4 -6
-17 -10 -54 -10 -50 0 -63 -4 -73 -20 -14 -22 -44 -27 -51 -7 -2 6 5 22 16 35
15 16 18 25 10 33 -18 18 -31 3 -47 -55 -20 -68 -20 -96 0 -125 12 -17 13 -26
5 -34 -17 -17 -42 2 -64 46 -10 20 -25 37 -33 37 -21 0 -17 30 7 56 11 12 16
25 11 28 -5 3 -15 -1 -22 -9 -28 -34 -97 -7 -83 33 3 7 -7 22 -21 33 -51 40
-27 87 46 90 30 2 31 2 6 6 -24 4 -28 9 -28 38 0 29 4 36 25 41 16 4 34 0 49
-9 30 -20 40 -11 15 14 -25 25 -24 49 1 56 11 3 24 20 30 38 6 19 16 36 23 39
20 8 35 7 42 -3z m-13667 -103 c7 -7 12 -20 12 -30 0 -10 11 -24 25 -30 30
-14 32 -31 5 -65 -29 -37 -25 -48 9 -24 35 25 76 27 85 5 11 -29 6 -45 -16
-53 -21 -7 -20 -8 8 -15 16 -4 35 -12 41 -18 19 -16 16 -53 -7 -73 -11 -10
-20 -28 -20 -40 0 -47 -43 -58 -91 -24 -22 15 -29 17 -29 6 0 -8 9 -22 20 -32
24 -22 26 -41 3 -53 -9 -5 -24 -25 -32 -43 -12 -25 -24 -35 -45 -37 l-29 -4
22 35 c25 40 26 71 6 111 -8 15 -15 39 -15 51 0 14 -7 26 -18 29 -26 9 -27 82
-1 89 11 3 19 14 19 25 0 11 7 36 15 55 20 49 19 79 -5 109 -10 14 -16 28 -13
32 10 10 38 7 51 -6z m5471 -133 c37 -234 46 -615 17 -739 -25 -113 -64 -203
-103 -242 -91 -92 -308 -158 -585 -180 l-87 -7 9 34 c6 19 10 35 10 37 0 2
-13 -8 -30 -21 -49 -41 -133 -67 -254 -77 -61 -6 -123 -12 -137 -15 l-26 -4
-7 172 c-8 202 -34 617 -45 732 l-9 80 67 69 c36 37 93 88 126 113 l60 45 8
-39 c15 -67 -4 -431 -38 -733 -8 -68 -13 -125 -12 -126 1 -1 60 4 131 12 119
12 219 35 240 55 5 5 19 39 31 76 16 51 26 69 40 71 41 5 47 -10 30 -79 -23
-97 -26 -93 58 -85 155 16 387 67 387 86 0 48 -55 300 -102 467 l-31 111 28
47 c32 55 125 168 169 207 37 31 40 28 55 -67z m8421 70 c-8 -9 -28 -15 -54
-14 l-41 1 42 11 c23 7 45 15 49 20 13 13 17 -2 4 -18z m-23 -51 c-3 -3 -12
-4 -19 -1 -8 3 -5 6 6 6 11 1 17 -2 13 -5z m-13937 -24 c0 -6 -9 -18 -19 -27
-11 -9 -17 -22 -14 -29 4 -10 0 -11 -19 -2 l-23 11 25 28 c25 28 50 38 50 19z
m13892 -11 c-16 -15 -33 -19 -60 -17 -37 4 -35 6 23 26 50 17 61 14 37 -9z
m-7896 -289 c-7 -266 -31 -553 -50 -607 -23 -62 -117 -277 -125 -286 -4 -4
-15 -5 -23 -2 -13 5 -17 38 -22 198 -9 259 -26 584 -35 682 l-9 80 67 69 c36
37 93 88 126 113 l60 45 9 -34 c4 -18 6 -134 2 -258z m4641 10 c-6 -222 -21
-439 -36 -546 -8 -54 -118 -335 -140 -357 -4 -4 -15 -5 -23 -2 -13 5 -17 38
-22 198 -8 233 -25 572 -35 684 l-7 83 81 79 c44 43 100 93 125 110 l45 32 9
-33 c4 -18 6 -130 3 -248z m-4216 193 c3 -255 -19 -680 -41 -778 -7 -31 -124
-312 -134 -322 -1 -1 -11 0 -22 3 -20 5 -21 15 -27 272 -7 250 -18 467 -33
625 l-6 67 73 73 c79 79 154 137 176 137 10 0 13 -20 14 -77z m7502 50 c-7 -2
-19 -2 -25 0 -7 3 -2 5 12 5 14 0 19 -2 13 -5z m-25 -118 c32 -16 87 -74 78
-82 -3 -3 -16 5 -29 18 -33 32 -60 54 -83 67 -29 17 -1 14 34 -3z m-13928 -30
c0 -9 7 -18 15 -21 8 -4 15 -12 15 -20 0 -21 -28 -17 -40 6 -6 11 -21 20 -33
20 -21 0 -21 1 3 14 33 19 40 19 40 1z m14017 -112 c-3 -10 -5 -2 -5 17 0 19
2 27 5 18 2 -10 2 -26 0 -35z m-8879 12 c28 -9 54 -20 57 -25 6 -9 -103 -180
-114 -180 -3 0 -28 7 -55 15 -27 8 -69 15 -94 15 -40 0 -48 -4 -84 -45 -33
-38 -43 -43 -59 -35 -10 6 -19 14 -19 18 0 4 43 62 95 130 l96 122 63 0 c34 0
85 -7 114 -15z m-1033 -89 c51 -81 75 -148 75 -215 0 -76 -41 -239 -82 -321
-85 -174 -314 -310 -523 -310 -122 1 -209 31 -288 101 -48 41 -87 118 -89 172
-3 91 124 353 259 531 26 34 48 63 49 64 3 5 106 -17 165 -34 l47 -14 -43
-123 c-23 -67 -47 -122 -51 -122 -5 1 -35 9 -67 19 l-59 18 -25 -24 c-14 -12
-47 -52 -74 -87 -55 -72 -55 -72 19 -123 96 -66 267 -88 406 -52 67 17 165 66
191 94 15 17 14 22 -9 69 -15 28 -56 82 -92 121 l-66 69 103 111 c57 60 107
110 111 110 5 0 24 -24 43 -54z m9895 -137 c-18 -49 -20 -66 -11 -86 15 -34
14 -51 -3 -28 -13 18 -15 17 -37 -27 -19 -40 -21 -51 -11 -73 16 -34 68 -36
75 -2 2 12 5 -2 6 -30 1 -50 -1 -53 -23 -53 -13 0 -31 -3 -40 -6 -9 -3 -26 5
-42 21 -24 24 -26 32 -21 81 3 30 4 54 2 54 -2 0 -25 -9 -50 -20 -46 -20 -49
-20 -78 -3 -19 12 -36 34 -46 61 -13 37 -14 45 -1 67 19 31 36 31 32 0 -2 -16
6 -34 23 -51 29 -29 59 -27 130 10 l40 21 -47 3 c-46 3 -75 22 -63 42 3 5 17
10 31 10 32 0 30 10 -6 39 -32 25 -38 46 -16 54 15 6 36 -11 36 -29 0 -12 31
-24 62 -24 30 0 68 44 70 81 1 29 2 28 5 -9 3 -27 -4 -65 -17 -103z m-14030
-30 c0 -6 -7 -17 -15 -25 -13 -14 -15 -13 -15 10 0 16 6 26 15 26 8 0 15 -5
15 -11z m0 -94 c0 -10 -11 -15 -35 -15 -24 0 -35 5 -35 15 0 10 11 15 35 15
24 0 35 -5 35 -15z m120 -47 c0 -60 -32 -107 -73 -108 -9 0 -35 11 -57 25 -22
14 -44 25 -50 25 -5 0 -10 7 -10 15 0 17 25 20 35 5 3 -5 23 -10 44 -10 50 0
81 29 81 77 0 30 2 34 15 23 9 -7 15 -29 15 -52z m5985 -3257 c94 -53 101
-197 14 -282 -32 -32 -99 -69 -124 -69 -27 0 -16 -17 41 -60 56 -42 110 -116
132 -181 18 -54 15 -166 -7 -227 -42 -114 -145 -210 -270 -251 -90 -30 -189
-25 -270 13 -34 16 -71 79 -71 122 0 47 55 104 100 104 59 0 110 -46 110 -99
0 -55 127 -51 213 6 114 75 157 206 103 316 -47 97 -122 149 -256 177 -311 67
-579 -93 -671 -400 -9 -28 -14 -94 -14 -175 1 -118 3 -135 26 -182 23 -49 140
-183 160 -183 5 0 9 7 9 16 0 39 26 98 57 129 34 34 72 45 139 37 45 -6 114
-68 114 -104 0 -39 -9 -39 -42 -3 -16 19 -38 37 -49 40 -27 9 -63 -16 -79 -55
-37 -90 63 -189 251 -249 49 -15 52 -15 106 19 34 22 59 30 92 30 86 0 84 23
-6 70 -62 32 -139 50 -216 50 -38 0 -66 4 -63 8 3 5 42 14 88 22 112 17 182 3
358 -70 102 -42 135 -29 40 16 -8 4 -17 10 -20 13 -3 4 -23 19 -45 36 -22 16
-53 42 -70 57 -40 38 -86 52 -143 43 l-47 -6 52 50 c61 59 111 76 189 66 53
-6 53 -6 96 38 50 53 110 68 172 46 36 -13 36 -13 17 -33 -27 -29 -41 -70 -41
-122 0 -151 173 -220 408 -163 222 54 318 143 435 405 5 12 6 36 2 54 -6 28
-5 32 9 27 12 -5 16 0 16 17 0 32 41 127 53 123 10 -3 37 -73 37 -99 0 -10 5
-18 10 -18 6 0 10 -14 10 -31 0 -27 2 -30 15 -19 13 10 15 9 15 -9 0 -11 -4
-21 -10 -21 -16 0 -12 -23 15 -78 14 -29 25 -55 25 -58 0 -4 20 -34 44 -68 50
-70 118 -136 167 -162 132 -70 326 -103 434 -73 22 6 58 24 81 40 83 57 97
178 30 250 l-25 27 44 12 c72 20 153 -9 187 -68 17 -28 18 -28 65 -19 27 6 65
7 84 3 44 -8 121 -58 144 -92 l16 -25 -45 6 c-57 9 -97 -6 -149 -55 -54 -49
-157 -120 -176 -120 -11 0 -12 -3 -4 -11 11 -11 102 15 163 46 87 45 193 61
294 45 45 -7 86 -15 91 -19 6 -3 -28 -9 -75 -12 -47 -4 -105 -12 -130 -18 -54
-14 -152 -71 -147 -86 2 -5 28 -13 58 -16 61 -6 82 -14 122 -43 24 -17 31 -18
60 -8 19 7 39 12 45 12 21 0 105 42 154 78 97 69 106 168 20 216 -14 9 -77
-28 -86 -49 -12 -31 -29 -15 -23 21 8 47 29 69 83 90 60 23 119 13 161 -28 39
-37 45 -35 145 47 35 28 71 54 80 58 51 18 45 193 -10 282 -35 58 -58 114 -67
169 -13 76 -133 177 -267 223 -123 42 -296 33 -425 -23 -116 -50 -193 -186
-164 -287 42 -143 164 -231 292 -211 30 5 39 11 39 26 0 34 30 85 56 97 88 40
179 -35 154 -127 -14 -53 -56 -89 -124 -107 -142 -37 -276 3 -386 114 -111
112 -144 238 -98 377 23 72 84 148 150 190 21 13 38 28 38 32 0 4 -21 13 -46
20 -63 17 -136 91 -152 154 -21 83 10 162 75 193 73 35 181 16 225 -39 26 -32
24 -101 -4 -120 -30 -22 -54 -20 -79 5 -16 16 -19 28 -14 63 6 38 4 46 -16 60
-66 46 -159 -16 -159 -105 0 -121 174 -220 334 -191 171 32 360 -12 494 -113
54 -42 70 -44 77 -7 21 96 66 196 108 236 121 116 258 162 455 153 64 -3 131
-9 147 -15 17 -5 50 -16 75 -23 97 -29 204 -92 269 -158 42 -44 101 -134 101
-156 0 -9 5 -25 11 -37 13 -24 14 -229 1 -255 -18 -35 -23 -83 -8 -83 37 0
276 268 276 309 0 5 4 11 8 13 18 7 62 119 62 157 0 39 -16 63 -29 44 -14 -21
-57 -43 -83 -43 -31 0 -75 39 -84 75 -10 39 24 87 71 101 80 22 149 -22 161
-103 7 -51 -1 -154 -15 -180 -39 -76 -54 -113 -49 -118 8 -8 78 16 78 27 0 4
11 8 24 8 14 0 28 5 31 10 3 6 21 10 40 10 19 0 37 5 40 10 3 6 28 10 56 10
l49 0 0 -35 c0 -24 -5 -35 -15 -35 -8 0 -15 -4 -15 -9 0 -5 -19 -11 -42 -14
-24 -2 -59 -10 -78 -17 -19 -7 -44 -16 -55 -20 -27 -10 -139 -64 -145 -70 -3
-3 -16 -11 -30 -18 -35 -19 -74 -52 -67 -58 3 -3 34 0 68 6 92 17 193 5 239
-28 68 -49 81 -127 30 -182 -27 -29 -35 -32 -72 -27 -23 3 -48 14 -55 23 -26
36 -8 124 25 124 18 0 24 18 12 40 -9 16 -21 20 -67 20 -61 0 -79 -5 -220 -57
-146 -54 -204 -91 -338 -214 -46 -43 -93 -77 -202 -147 -24 -15 -43 -30 -43
-33 0 -3 24 -19 53 -34 28 -16 70 -40 92 -55 51 -35 93 -55 127 -64 22 -5 33
-1 55 23 59 61 98 75 207 74 54 -1 108 -5 120 -10 81 -36 150 -73 203 -110 34
-24 66 -43 72 -43 18 0 12 33 -15 88 -23 46 -26 62 -22 130 3 53 11 91 26 121
12 25 22 49 22 55 0 9 60 69 109 108 17 15 21 15 21 3 0 -8 -6 -15 -12 -15
-15 0 -88 -102 -88 -122 0 -8 -3 -18 -7 -21 -12 -13 -43 -111 -43 -139 0 -58
59 -183 112 -240 22 -24 38 -50 38 -64 0 -13 -2 -24 -5 -24 -9 0 -100 44 -105
50 -3 4 -25 18 -50 32 -25 14 -70 40 -100 59 -30 19 -68 41 -85 48 -16 8 -41
19 -54 25 -35 16 -162 14 -197 -4 -38 -19 -84 -60 -84 -76 0 -7 22 -28 48 -48
60 -44 172 -165 172 -185 0 -5 4 -11 8 -13 12 -5 62 -114 62 -135 0 -11 5 -24
11 -30 15 -15 6 -155 -15 -228 -9 -33 -28 -77 -41 -97 -14 -21 -25 -41 -25
-45 0 -19 -170 -173 -215 -196 -80 -40 -96 -45 -170 -55 -138 -19 -258 10
-375 90 -141 96 -291 87 -337 -20 -10 -25 -11 -37 -2 -55 21 -41 52 -67 80
-67 31 0 46 15 51 50 7 51 88 27 88 -26 0 -55 -101 -83 -174 -49 -34 16 -76
78 -76 113 0 37 30 91 66 119 31 23 49 28 111 31 40 3 73 6 73 8 0 3 -10 24
-22 47 -19 35 -23 58 -23 137 0 108 12 144 70 201 110 111 297 131 422 47 81
-55 110 -121 77 -177 -27 -46 -94 -56 -135 -20 -19 16 -24 31 -25 70 -2 66 0
63 -33 82 -20 11 -51 17 -97 17 -83 0 -138 -29 -184 -95 -25 -37 -30 -53 -30
-105 0 -78 21 -119 97 -191 194 -185 471 -186 644 -2 106 113 155 222 146 329
-6 77 -16 115 -35 137 -20 23 -24 22 -43 -12 -33 -58 -126 -79 -180 -40 -32
23 -59 67 -59 98 0 33 20 35 32 3 14 -38 49 -55 82 -42 77 29 57 172 -35 255
-35 31 -64 42 -192 73 -68 17 -68 16 -44 -29 23 -43 84 -101 138 -131 31 -16
26 -33 -8 -22 -67 22 -117 58 -205 148 -54 55 -98 97 -98 94 0 -3 15 -34 33
-69 18 -35 40 -83 50 -105 21 -49 63 -94 88 -94 34 0 28 -17 -10 -29 -76 -22
-129 -13 -178 32 -21 18 -25 19 -50 6 -14 -8 -51 -14 -81 -13 -47 0 -58 4 -79
28 l-24 28 33 17 c47 23 80 85 75 138 -5 46 -50 117 -70 110 -17 -6 -47 11
-47 26 0 23 -72 53 -175 73 -99 20 -112 18 -128 -13 -19 -38 -12 -51 33 -63
21 -6 60 -30 85 -53 42 -38 48 -48 52 -93 11 -107 -54 -168 -141 -135 -61 24
-65 99 -7 138 l34 23 -37 35 c-48 45 -76 45 -112 0 -85 -107 -284 -206 -475
-238 -81 -13 -79 -10 -64 -89 9 -45 -4 -49 -27 -9 -9 17 -36 42 -60 58 l-43
28 -297 0 c-172 0 -298 -4 -298 -9 0 -5 10 -23 23 -40 53 -71 71 -126 71 -216
0 -100 -23 -159 -89 -226 -106 -107 -273 -114 -378 -15 -48 44 -66 78 -84 156
-18 77 -4 164 38 230 35 56 36 61 4 69 -32 8 -48 46 -35 81 18 48 -2 62 -80
55 -37 -3 -73 -25 -108 -64 -31 -36 -49 -38 -31 -4 23 43 80 95 128 118 28 13
51 27 51 31 0 4 -13 17 -29 28 -34 24 -83 100 -102 156 -8 22 -23 56 -34 75
-29 48 -60 131 -81 219 -20 81 -18 84 -44 -39 -6 -30 -31 -95 -55 -145 -23
-49 -51 -112 -60 -139 -11 -31 -38 -70 -71 -105 -30 -30 -54 -56 -54 -57 0 -1
22 -11 49 -23 49 -21 131 -101 131 -127 0 -21 -9 -17 -36 16 -27 31 -74 58
-109 61 -71 6 -92 -9 -76 -54 4 -12 5 -33 1 -47 -5 -19 2 -37 28 -72 45 -63
61 -152 44 -237 -16 -77 -34 -112 -82 -155 -55 -49 -101 -66 -181 -66 -168 0
-288 125 -289 300 0 78 11 122 46 180 41 70 65 65 -285 64 -271 0 -320 -2
-346 -16 -32 -17 -85 -70 -103 -103 -10 -17 -11 -18 -12 -3 0 10 6 38 12 64
12 42 11 47 -7 60 -10 8 -32 14 -49 14 -27 0 -124 22 -171 39 -11 4 -63 28
-115 54 -72 35 -113 63 -164 113 -57 55 -78 69 -115 76 -84 16 -171 -15 -201
-73 -9 -16 -7 -21 14 -29 51 -19 62 -86 20 -125 -30 -28 -59 -31 -98 -11 -43
22 -55 46 -56 108 0 54 2 60 43 102 56 58 126 80 227 70 48 -4 70 -3 70 4 0
17 -61 58 -106 70 -49 14 -169 16 -210 3 -16 -5 -49 -15 -74 -22 -57 -17 -88
-36 -95 -60 -4 -12 -16 -19 -31 -19 -46 0 -84 -56 -84 -123 0 -56 38 -121 78
-135 23 -7 23 -8 5 -30 -25 -31 -90 -40 -134 -18 -42 21 -45 21 -77 -9 -15
-14 -33 -25 -40 -25 -7 0 -21 -6 -32 -12 -16 -10 -24 -10 -40 0 -11 6 -29 12
-41 12 -20 0 -19 2 7 22 38 30 63 60 64 76 0 7 4 20 9 30 5 9 19 39 32 67 13
27 41 72 62 99 75 102 39 78 -111 -71 -85 -86 -167 -153 -186 -153 -2 0 19 24
47 53 59 59 82 98 73 122 -4 12 -12 14 -28 9 -13 -3 -24 -11 -26 -15 -2 -5
-26 -9 -52 -9 -27 0 -52 -4 -55 -10 -3 -5 -22 -10 -41 -10 -19 0 -34 -4 -34
-10 0 -5 -6 -10 -14 -10 -8 0 -16 -6 -19 -12 -2 -7 -8 -10 -12 -6 -5 5 2 16
13 27 30 25 30 90 2 111 -20 15 -28 60 -10 60 6 0 10 -4 10 -10 0 -5 9 -10 21
-10 12 0 36 -17 55 -37 l33 -38 31 18 c18 9 38 17 46 17 8 0 14 5 14 10 0 6 5
10 10 10 10 0 89 48 100 60 3 4 21 14 41 23 54 25 67 44 43 65 -30 28 -121 92
-129 92 -7 0 -95 75 -172 145 -60 56 -71 65 -78 65 -3 0 -13 6 -21 14 -16 17
-19 56 -4 56 6 0 10 20 10 45 0 25 -4 45 -10 45 -6 0 -10 55 -10 145 0 90 4
145 10 145 6 0 10 11 10 24 0 14 5 28 10 31 6 3 10 15 10 26 0 10 3 19 8 19 4
0 18 16 31 35 36 53 52 70 99 99 23 14 42 31 42 36 0 6 7 10 15 10 8 0 23 4
33 9 9 5 28 13 42 19 14 5 39 15 55 22 59 25 122 33 265 33 168 0 191 -4 280
-49 128 -65 205 -172 240 -334 12 -53 9 -162 -5 -226 -13 -58 13 -46 44 20 35
76 46 91 129 173 58 56 130 101 233 141 68 27 180 35 290 22 102 -12 111 -11
181 10 59 18 82 31 119 69 54 54 68 101 45 155 -17 40 -68 76 -108 76 -45 0
-88 -56 -58 -75 28 -18 -12 -85 -51 -85 -30 0 -69 44 -69 79 0 21 10 41 35 65
55 55 149 67 220 27z m616 -960 c34 -34 39 -86 13 -126 -23 -35 -12 -52 41
-63 86 -18 180 20 254 104 23 26 41 51 41 55 0 5 5 9 10 9 6 0 10 -9 10 -20 0
-11 -3 -20 -8 -20 -4 0 -13 -14 -21 -31 -7 -17 -39 -57 -70 -89 -126 -128
-301 -148 -407 -45 -58 56 -74 124 -45 189 22 51 44 64 109 65 35 1 49 -5 73
-28z m1116 -7 c18 -23 23 -41 23 -90 0 -101 -37 -150 -135 -178 -86 -26 -137
-20 -230 25 -67 33 -125 93 -174 182 -22 40 -31 91 -9 53 30 -51 111 -131 153
-151 65 -30 109 -37 152 -26 59 16 68 32 43 73 -23 38 -25 60 -7 90 28 51 45
59 111 54 41 -3 54 -9 73 -32z m-727 11 c0 -8 -4 -15 -10 -15 -5 0 -7 7 -4 15
4 8 8 15 10 15 2 0 4 -7 4 -15z m3147 -671 c-3 -3 -12 -4 -19 -1 -8 3 -5 6 6
6 11 1 17 -2 13 -5z m-3130 -46 c-3 -8 -6 -5 -6 6 -1 11 2 17 5 13 3 -3 4 -12
1 -19z m-3123 -123 c-22 -17 -54 -19 -54 -5 0 6 8 10 19 10 10 0 25 7 32 16 9
11 15 12 17 4 2 -6 -4 -18 -14 -25z m446 19 c19 -3 58 -17 85 -32 50 -26 125
-97 125 -119 0 -6 6 -13 13 -15 8 -3 12 -34 11 -109 0 -94 -3 -109 -27 -150
-14 -26 -23 -49 -20 -53 4 -3 36 -6 73 -6 72 0 120 -17 145 -53 19 -27 11 -35
-11 -12 -23 23 -99 55 -131 55 -43 0 -137 -32 -166 -56 -32 -27 -148 -84 -170
-84 -9 0 -19 -4 -22 -10 -10 -16 -231 -13 -268 4 -18 8 -47 20 -64 27 -18 8
-33 17 -33 21 0 5 -9 8 -20 8 -11 0 -20 7 -20 15 0 9 9 15 25 15 14 0 25 -4
25 -10 0 -5 8 -10 18 -10 11 0 34 -7 52 -16 26 -14 53 -16 139 -12 59 3 116
10 127 16 10 5 45 23 78 38 67 33 168 121 191 167 20 39 30 122 21 170 -7 38
-79 127 -102 127 -8 0 -14 4 -14 9 0 10 -58 22 -105 22 -46 1 -88 -11 -114
-31 -21 -15 -24 -25 -22 -69 1 -39 -3 -55 -19 -71 -26 -26 -87 -27 -106 -2
-16 20 -19 122 -4 122 6 0 10 5 10 11 0 17 26 37 100 76 14 7 37 13 52 13 15
0 30 5 34 11 4 7 21 9 43 5 20 -3 52 -9 71 -12z m436 -639 c-4 -18 -21 -49
-39 -69 -32 -34 -37 -36 -97 -36 -45 0 -69 5 -82 17 -36 32 -14 83 36 83 21 0
26 -5 26 -23 0 -34 33 -61 65 -53 45 12 75 53 75 105 1 37 3 43 11 28 6 -10 8
-34 5 -52z m9051 -4657 c-3 -8 -6 -5 -6 6 -1 11 2 17 5 13 3 -3 4 -12 1 -19z"/>
<path d="M8746 17230 c-53 -27 -69 -42 -100 -101 -40 -72 -41 -170 -4 -226 36
-54 86 -77 152 -69 28 3 62 14 76 24 31 23 49 84 31 106 -10 12 -15 11 -36
-10 -41 -41 -91 -26 -109 33 -10 30 20 79 56 94 38 16 112 -5 138 -38 47 -60
37 -148 -23 -209 -46 -45 -94 -64 -168 -64 l-47 0 6 -47 c2 -27 6 -49 7 -51 2
-2 39 6 83 17 44 12 90 21 102 21 31 0 112 86 145 155 24 51 29 72 28 140 0
83 -16 129 -65 182 -57 61 -192 83 -272 43z"/>
<path d="M7681 17213 c-157 -57 -199 -285 -81 -440 19 -25 42 -50 50 -54 17
-8 160 -49 173 -49 5 0 7 15 5 33 -3 27 -9 34 -40 44 -67 22 -114 59 -137 107
-25 54 -26 81 -6 129 32 77 134 102 193 47 22 -21 30 -73 14 -96 -24 -36 -94
-37 -113 -1 -9 16 -13 17 -20 6 -30 -47 6 -104 80 -129 57 -19 125 4 166 54
27 34 30 44 30 114 0 82 -14 124 -57 174 -58 65 -172 93 -257 61z"/>
<path d="M7658 16623 c12 -2 22 -9 22 -14 0 -5 15 -9 33 -8 l32 1 -30 13 c-16
8 -41 14 -55 13 -23 -1 -23 -1 -2 -5z"/>
<path d="M8830 16617 l-35 -11 34 -4 c19 -2 44 1 55 7 12 6 44 12 71 14 38 3
33 4 -20 4 -38 1 -86 -4 -105 -10z"/>
<path d="M10146 16431 c-6 -9 59 -56 99 -71 44 -17 13 33 -36 57 -50 25 -56
26 -63 14z"/>
<path d="M5655 16310 c3 -5 12 -10 20 -10 7 0 15 -7 19 -15 3 -8 12 -15 21
-15 8 0 23 -4 33 -9 57 -29 164 -42 177 -22 3 6 -15 13 -40 17 -25 3 -48 10
-51 15 -3 5 -18 9 -34 9 -16 0 -32 5 -35 10 -3 6 -17 10 -30 10 -13 0 -27 5
-30 10 -3 6 -17 10 -31 10 -14 0 -22 -4 -19 -10z"/>
<path d="M10678 16283 c6 -2 18 -2 25 0 6 3 1 5 -13 5 -14 0 -19 -2 -12 -5z"/>
<path d="M5505 16267 c-51 -31 -242 -164 -255 -178 -53 -55 -80 -90 -80 -104
0 -8 -4 -15 -10 -15 -5 0 -16 -17 -25 -37 -9 -21 -21 -46 -26 -55 -5 -10 -9
-27 -9 -39 0 -11 -7 -27 -15 -35 -12 -12 -15 -41 -15 -129 0 -88 3 -117 15
-129 8 -8 15 -26 15 -40 0 -14 5 -26 10 -26 6 0 10 -6 10 -14 0 -7 11 -25 25
-40 14 -15 25 -29 25 -32 0 -7 48 -54 55 -54 3 0 16 -9 28 -21 12 -11 38 -27
57 -36 19 -8 43 -19 52 -24 10 -5 29 -9 42 -9 14 0 27 -4 30 -9 3 -5 23 -11
43 -14 21 -3 68 -11 106 -17 63 -10 120 -6 222 15 67 14 136 49 189 96 93 82
136 186 136 332 0 180 -76 311 -216 373 -66 29 -198 34 -258 9 -51 -22 -146
-119 -146 -150 0 -7 -4 -17 -10 -20 -5 -3 -10 -42 -10 -86 0 -46 4 -79 10 -79
6 0 10 -6 10 -13 0 -23 64 -77 92 -77 32 0 78 35 78 60 0 31 57 80 94 80 41 0
56 -16 56 -60 0 -52 -43 -89 -139 -119 -77 -25 -155 -4 -217 58 -24 24 -45 55
-48 74 -16 74 -18 109 -7 120 6 6 11 20 11 32 0 22 58 125 82 147 15 14 36 27
108 67 40 22 57 25 160 25 106 1 120 -1 173 -26 59 -29 160 -122 172 -158 12
-38 27 -22 21 23 -4 23 -9 99 -12 170 -3 70 -9 127 -13 127 -3 0 -31 -9 -61
-20 -74 -27 -192 -27 -296 1 -44 11 -91 23 -107 26 -15 3 -30 9 -33 14 -3 5
-16 9 -29 9 -13 0 -27 5 -30 10 -8 13 -35 12 -60 -3z"/>
<path d="M10608 16273 c-10 -2 -18 -9 -18 -14 0 -5 -21 -9 -47 -10 -37 -1 -42
-3 -23 -8 14 -4 39 -4 55 0 17 4 42 10 58 13 15 4 27 11 27 16 0 10 -21 11
-52 3z"/>
<path d="M10780 16241 c-129 -42 -174 -51 -249 -51 -96 0 -101 -3 -101 -60 0
-27 4 -52 10 -55 5 -3 31 2 57 11 209 73 439 -32 497 -226 20 -67 20 -93 1
-157 -28 -96 -132 -163 -228 -149 -55 8 -136 47 -165 79 -34 36 -28 97 11 115
24 12 33 11 65 -6 20 -10 43 -32 51 -48 32 -67 82 -92 122 -61 74 56 92 172
39 263 -75 131 -208 183 -355 139 -82 -25 -113 -52 -131 -115 -8 -30 -24 -74
-35 -97 -10 -24 -19 -45 -19 -47 0 -2 -16 -33 -36 -68 l-36 -63 13 -70 c35
-200 166 -323 376 -356 97 -15 210 -2 335 38 217 69 336 229 325 437 -5 99
-13 130 -63 232 -27 55 -57 98 -100 141 -60 59 -266 204 -288 202 -6 0 -49
-13 -96 -28z"/>
<path d="M6162 15855 c0 -16 2 -22 5 -12 2 9 2 23 0 30 -3 6 -5 -1 -5 -18z"/>
<path d="M10435 11963 c-11 -3 -23 -8 -28 -12 -13 -13 37 -75 80 -99 l41 -22
63 46 c58 44 61 48 44 60 -39 29 -137 42 -200 27z"/>
<path d="M9735 11868 c-106 -20 -221 -95 -213 -137 3 -12 15 -15 52 -13 120 8
366 92 366 125 0 33 -100 45 -205 25z"/>
<path d="M5555 8209 c-66 -9 -150 -31 -161 -42 -4 -4 -15 -7 -25 -7 -16 0 -89
-34 -117 -55 -17 -12 -102 -97 -119 -119 -7 -8 -13 -22 -13 -31 0 -8 -4 -15
-10 -15 -5 0 -10 -11 -10 -24 0 -13 -6 -26 -12 -28 -9 -3 -14 -40 -16 -127 -3
-99 -1 -127 12 -146 9 -13 16 -31 16 -40 0 -8 4 -23 9 -33 5 -9 17 -34 27 -54
10 -21 22 -38 26 -38 5 0 8 -7 8 -15 0 -8 5 -15 10 -15 6 0 10 -6 10 -13 0
-14 96 -117 109 -117 4 0 21 -11 37 -25 16 -14 34 -25 40 -25 5 0 19 -8 30
-18 60 -56 170 -92 189 -62 3 6 15 10 26 10 10 0 27 4 37 9 9 6 42 18 72 27
76 25 311 25 354 1 16 -9 33 -14 38 -11 4 3 8 51 8 107 0 56 6 125 14 153 16
60 6 91 -18 59 -9 -11 -16 -23 -16 -27 0 -19 -90 -98 -135 -121 -77 -38 -115
-47 -197 -47 -107 0 -197 37 -268 110 -72 74 -118 206 -91 258 6 9 12 29 15
44 3 14 18 40 32 58 42 49 80 64 161 64 116 -1 203 -56 203 -130 0 -39 -26
-58 -67 -48 -35 8 -83 52 -83 75 0 10 -16 30 -35 45 -34 25 -36 26 -68 10 -19
-8 -46 -34 -61 -56 -37 -57 -37 -158 0 -227 35 -64 66 -96 122 -124 39 -20 60
-24 141 -24 85 0 103 3 152 28 129 63 199 192 199 367 0 211 -98 349 -295 419
-82 28 -171 35 -280 20z"/>
<path d="M10655 8200 c-202 -31 -329 -156 -365 -355 l-12 -70 36 -59 c20 -33
36 -64 36 -68 0 -5 9 -27 19 -51 11 -23 25 -60 31 -82 19 -61 36 -83 90 -110
42 -21 63 -25 144 -25 78 0 102 4 133 21 137 76 194 234 123 341 -52 79 -113
83 -147 9 -48 -103 -163 -119 -163 -23 0 74 93 134 210 136 86 0 142 -29 185
-98 26 -43 30 -59 30 -121 0 -40 -5 -83 -11 -96 -6 -13 -18 -37 -25 -53 -22
-45 -94 -112 -152 -140 -99 -49 -224 -56 -325 -19 -53 20 -64 10 -60 -52 3
-39 4 -40 43 -42 107 -7 206 -27 333 -70 l73 -25 57 37 c249 164 316 241 373
430 71 232 -60 474 -296 547 -125 39 -264 53 -360 38z"/>
<path d="M6162 7570 c0 -14 2 -19 5 -12 2 6 2 18 0 25 -3 6 -5 1 -5 -13z"/>
<path d="M5845 7185 c-75 -12 -94 -18 -140 -43 -39 -21 -59 -41 -50 -50 4 -4
10 -1 12 6 3 6 15 12 28 12 13 0 27 5 30 10 3 6 17 10 30 10 13 0 27 5 30 10
3 6 21 10 38 10 18 0 45 7 61 15 15 8 44 15 63 15 20 0 32 4 28 10 -7 12 -37
11 -130 -5z"/>
<path d="M10550 7171 c0 -9 29 -16 108 -26 l37 -5 -40 19 c-42 20 -105 27
-105 12z"/>
<path d="M10198 7038 c-27 -16 -48 -36 -48 -44 0 -8 2 -14 5 -14 17 0 103 51
108 64 10 26 -17 24 -65 -6z"/>
<path d="M8798 6823 c7 -3 16 -2 19 1 4 3 -2 6 -13 5 -11 0 -14 -3 -6 -6z"/>
<path d="M7615 6811 l-50 -7 46 -8 c53 -9 100 -5 100 9 0 12 -31 14 -96 6z"/>
<path d="M8836 6812 c-3 -5 1 -13 10 -16 21 -8 103 -6 134 4 23 7 22 8 -11 9
-20 1 -56 4 -81 7 -27 4 -48 2 -52 -4z"/>
<path d="M7770 6741 c-8 -5 -39 -14 -67 -21 -62 -14 -102 -53 -142 -139 -21
-46 -25 -70 -25 -136 2 -161 82 -245 234 -245 94 0 158 40 203 125 31 58 30
178 0 221 -36 51 -71 68 -134 68 -91 -1 -142 -51 -125 -120 l7 -27 28 27 c33
31 60 33 89 6 36 -34 27 -97 -18 -123 -87 -52 -200 30 -187 136 10 75 80 142
180 171 11 4 17 15 17 36 0 25 -4 30 -22 30 -13 0 -30 -4 -38 -9z"/>
<path d="M8720 6710 c0 -22 -1 -43 -2 -47 -2 -4 22 -8 52 -9 151 -4 247 -126
196 -249 -28 -66 -139 -90 -186 -40 -29 31 -31 92 -4 112 29 21 70 16 92 -11
22 -29 42 -18 42 24 0 57 -59 100 -138 100 -97 0 -155 -67 -155 -178 0 -80 23
-131 82 -185 109 -99 294 -64 360 68 20 40 24 65 24 125 0 90 -30 163 -96 235
-39 43 -48 48 -141 71 -54 13 -105 24 -112 24 -10 0 -14 -13 -14 -40z"/>
<path d="M15020 22190 c0 -5 9 -10 20 -10 11 0 20 5 20 10 0 6 -9 10 -20 10
-11 0 -20 -4 -20 -10z"/>
<path d="M15020 22050 c0 -5 9 -10 20 -10 11 0 20 5 20 10 0 6 -9 10 -20 10
-11 0 -20 -4 -20 -10z"/>
<path d="M15020 21485 c0 -10 7 -15 18 -13 21 4 19 22 -2 26 -10 2 -16 -3 -16
-13z"/>
<path d="M15020 21352 c0 -14 11 -21 26 -15 8 3 11 9 8 14 -7 11 -34 12 -34 1z"/>
<path d="M15020 21210 c0 -5 9 -10 20 -10 11 0 20 5 20 10 0 6 -9 10 -20 10
-11 0 -20 -4 -20 -10z"/>
<path d="M15026 20793 c-12 -12 -5 -23 14 -23 11 0 20 4 20 9 0 11 -26 22 -34
14z"/>
<path d="M15020 20352 c0 -14 11 -21 26 -15 21 8 17 23 -6 23 -11 0 -20 -4
-20 -8z"/>
<path d="M15020 20055 c0 -10 7 -15 18 -13 21 4 19 22 -2 26 -10 2 -16 -3 -16
-13z"/>
<path d="M15020 19755 c0 -10 7 -15 18 -13 21 4 19 22 -2 26 -10 2 -16 -3 -16
-13z"/>
<path d="M15020 19605 c0 -10 7 -15 18 -13 21 4 19 22 -2 26 -10 2 -16 -3 -16
-13z"/>
<path d="M15020 19465 c0 -10 7 -15 18 -13 21 4 19 22 -2 26 -10 2 -16 -3 -16
-13z"/>
<path d="M15030 19295 c0 -8 7 -15 15 -15 8 0 15 7 15 15 0 8 -7 15 -15 15 -8
0 -15 -7 -15 -15z"/>
<path d="M15020 19150 c0 -5 9 -10 21 -10 11 0 17 5 14 10 -3 6 -13 10 -21 10
-8 0 -14 -4 -14 -10z"/>
<path d="M15020 19010 c0 -5 7 -10 15 -10 8 0 15 5 15 10 0 6 -7 10 -15 10 -8
0 -15 -4 -15 -10z"/>
<path d="M15020 18875 c0 -10 7 -15 18 -13 21 4 19 22 -2 26 -10 2 -16 -3 -16
-13z"/>
<path d="M15020 18742 c0 -14 11 -21 26 -15 8 3 11 9 8 14 -7 11 -34 12 -34 1z"/>
<path d="M15030 18596 c0 -9 5 -16 10 -16 6 0 10 4 10 9 0 6 -4 13 -10 16 -5
3 -10 -1 -10 -9z"/>
<path d="M15020 18445 c0 -17 2 -18 24 -9 18 7 12 24 -10 24 -8 0 -14 -7 -14
-15z"/>
<path d="M15020 18310 c0 -5 9 -10 21 -10 11 0 17 5 14 10 -3 6 -13 10 -21 10
-8 0 -14 -4 -14 -10z"/>
<path d="M15020 18170 c0 -5 7 -10 15 -10 8 0 15 5 15 10 0 6 -7 10 -15 10 -8
0 -15 -4 -15 -10z"/>
<path d="M15020 18031 c0 -18 18 -21 30 -6 10 13 9 15 -9 15 -11 0 -21 -4 -21
-9z"/>
<path d="M15026 17893 c-11 -11 -6 -23 9 -23 8 0 15 4 15 9 0 13 -16 22 -24
14z"/>
<path d="M15026 17753 c-11 -11 -6 -23 9 -23 8 0 15 4 15 9 0 13 -16 22 -24
14z"/>
<path d="M15020 17605 c0 -8 9 -15 20 -15 24 0 27 15 4 24 -22 9 -24 8 -24 -9z"/>
<path d="M15022 17463 c4 -22 38 -30 38 -10 0 8 -7 18 -16 21 -23 9 -26 8 -22
-11z"/>
<path d="M15026 17323 c-11 -11 -6 -23 8 -23 8 0 17 4 20 9 7 10 -19 23 -28
14z"/>
<path d="M15020 17175 c0 -10 7 -15 18 -13 21 4 19 22 -2 26 -10 2 -16 -3 -16
-13z"/>
<path d="M15030 17020 c-13 -8 -12 -10 3 -10 9 0 20 0 24 -1 4 0 9 4 11 10 5
14 -18 14 -38 1z"/>
<path d="M15020 16875 c0 -8 4 -15 9 -15 5 0 16 -3 25 -6 12 -4 16 0 16 15 0
16 -6 21 -25 21 -16 0 -25 -6 -25 -15z"/>
<path d="M15038 16739 c-24 -13 -23 -25 3 -32 13 -3 22 0 26 9 8 22 -9 35 -29
23z"/>
<path d="M15038 16443 c-28 -7 -22 -33 7 -33 15 0 25 6 25 14 0 18 -10 24 -32
19z"/>
<path d="M15043 16293 c-18 -6 -16 -30 2 -37 9 -3 18 1 22 10 7 18 -7 33 -24
27z"/>
<path d="M15038 16146 c-23 -17 -23 -22 3 -29 13 -3 22 0 26 9 9 23 -9 35 -29
20z"/>
<path d="M15038 16009 c-24 -13 -23 -25 3 -32 13 -3 22 0 26 9 8 22 -9 35 -29
23z"/>
<path d="M15020 15860 c0 -12 35 -31 44 -23 15 15 4 33 -19 33 -14 0 -25 -4
-25 -10z"/>
<path d="M15020 15720 c0 -9 31 -30 44 -30 3 0 6 9 6 20 0 15 -7 20 -25 20
-14 0 -25 -4 -25 -10z"/>
<path d="M15035 15580 c-8 -14 3 -30 21 -30 8 0 14 9 14 20 0 21 -24 28 -35
10z"/>
<path d="M15038 15443 c-10 -3 -18 -8 -18 -13 0 -12 39 -19 46 -8 9 14 -8 25
-28 21z"/>
<path d="M15038 15303 c-22 -5 -23 -19 -2 -27 25 -9 34 -7 34 8 0 18 -10 24
-32 19z"/>
<path d="M15030 15160 c-13 -9 -13 -11 0 -20 24 -16 40 -12 40 10 0 22 -16 26
-40 10z"/>
<path d="M15033 15024 c-18 -8 -4 -34 18 -34 12 0 19 7 19 20 0 19 -12 24 -37
14z"/>
<path d="M15038 14879 c-26 -14 -22 -29 7 -29 18 0 25 5 25 20 0 22 -7 24 -32
9z"/>
<path d="M15037 14739 c-25 -14 -21 -29 8 -29 15 0 25 6 25 14 0 21 -12 26
-33 15z"/>
<path d="M15020 14586 c0 -13 20 -26 41 -26 5 0 9 9 9 20 0 15 -7 20 -25 20
-15 0 -25 -6 -25 -14z"/>
<path d="M15027 14454 c-11 -11 5 -34 24 -34 12 0 19 7 19 20 0 19 -28 28 -43
14z"/>
<path d="M15038 14309 c-26 -14 -22 -29 7 -29 18 0 25 5 25 20 0 22 -7 24 -32
9z"/>
<path d="M15020 14156 c0 -13 20 -26 41 -26 5 0 9 9 9 20 0 15 -7 20 -25 20
-15 0 -25 -6 -25 -14z"/>
<path d="M15030 14005 c-11 -13 -8 -15 14 -15 16 0 26 5 26 15 0 8 -6 15 -14
15 -7 0 -19 -7 -26 -15z"/>
<path d="M15020 13860 c0 -9 31 -30 44 -30 3 0 6 9 6 20 0 15 -7 20 -25 20
-14 0 -25 -4 -25 -10z"/>
<path d="M15038 13723 c-28 -7 -22 -33 7 -33 15 0 25 6 25 14 0 18 -10 24 -32
19z"/>
<path d="M15038 13423 c-10 -2 -18 -11 -18 -19 0 -22 44 -14 48 9 4 17 1 18
-30 10z"/>
<path d="M15031 11081 c-18 -12 -5 -31 20 -31 14 0 19 6 17 17 -4 20 -18 26
-37 14z"/>
<path d="M15027 10933 c-16 -15 -6 -33 18 -33 18 0 25 5 25 20 0 20 -28 28
-43 13z"/>
<path d="M15020 10776 c0 -14 34 -28 44 -18 15 14 4 32 -19 32 -15 0 -25 -6
-25 -14z"/>
<path d="M15020 10484 c0 -8 32 -33 43 -34 4 0 7 9 7 20 0 15 -7 20 -25 20
-14 0 -25 -3 -25 -6z"/>
<path d="M15034 10336 c-21 -16 -19 -22 11 -28 14 -2 21 3 23 20 4 25 -6 28
-34 8z"/>
<path d="M15020 10186 c0 -13 20 -26 41 -26 5 0 9 9 9 20 0 15 -7 20 -25 20
-15 0 -25 -6 -25 -14z"/>
<path d="M15027 10053 c-16 -15 -6 -33 18 -33 18 0 25 5 25 20 0 20 -28 28
-43 13z"/>
<path d="M15034 9906 c-21 -16 -19 -22 11 -28 14 -2 21 3 23 20 4 25 -6 28
-34 8z"/>
<path d="M15025 9760 c-8 -14 -7 -15 23 -25 20 -6 23 -4 20 11 -4 22 -33 31
-43 14z"/>
<path d="M15020 9616 c0 -13 20 -26 41 -26 5 0 9 9 9 20 0 15 -7 20 -25 20
-15 0 -25 -6 -25 -14z"/>
<path d="M15032 9478 c-19 -19 -14 -28 13 -28 18 0 25 5 25 20 0 22 -20 26
-38 8z"/>
<path d="M15038 9339 c-26 -14 -22 -29 7 -29 18 0 25 5 25 20 0 22 -7 24 -32
9z"/>
<path d="M15037 9203 c-24 -6 -16 -27 11 -31 17 -3 22 2 22 17 0 21 -2 22 -33
14z"/>
<path d="M15038 9063 c-22 -5 -23 -19 -2 -27 25 -9 34 -7 34 8 0 18 -10 24
-32 19z"/>
<path d="M15038 8923 c-24 -6 -23 -20 2 -33 16 -9 22 -8 26 5 8 20 -5 33 -28
28z"/>
<path d="M15038 8779 c-24 -13 -23 -25 3 -32 13 -3 22 0 26 9 8 22 -9 35 -29
23z"/>
<path d="M15030 8630 c-17 -10 -13 -17 15 -22 12 -2 21 3 23 15 4 18 -14 22
-38 7z"/>
<path d="M15034 8495 c-21 -15 -19 -19 14 -29 18 -6 22 -3 22 13 0 27 -13 33
-36 16z"/>
<path d="M15025 8351 c-3 -6 3 -15 14 -20 27 -15 31 -14 31 9 0 21 -33 29 -45
11z"/>
<path d="M15035 8210 c-8 -14 3 -30 21 -30 8 0 14 9 14 20 0 21 -24 28 -35 10z"/>
<path d="M15022 8053 c2 -10 14 -19 26 -21 19 -3 23 1 20 15 -2 10 -14 19 -26
21 -19 3 -23 -1 -20 -15z"/>
<path d="M15027 7913 c-16 -15 -6 -34 15 -31 29 4 38 38 10 38 -10 0 -22 -3
-25 -7z"/>
<path d="M15020 7755 c0 -8 4 -15 9 -15 5 0 16 -3 25 -6 12 -4 16 0 16 15 0
16 -6 21 -25 21 -16 0 -25 -6 -25 -15z"/>
<path d="M15035 7614 c-17 -13 -18 -16 -5 -24 21 -14 34 -7 38 18 4 26 -5 27
-33 6z"/>
<path d="M15035 7450 c10 -11 22 -20 27 -20 4 0 8 9 8 20 0 15 -7 20 -27 20
-25 0 -26 0 -8 -20z"/>
<path d="M15038 7323 c-28 -7 -22 -33 7 -33 15 0 25 6 25 14 0 18 -10 24 -32
19z"/>
<path d="M15020 7165 c0 -8 4 -15 9 -15 5 0 16 -3 25 -6 12 -4 16 0 16 15 0
16 -6 21 -25 21 -16 0 -25 -6 -25 -15z"/>
<path d="M15025 7019 c-4 -6 -4 -13 -1 -16 8 -8 36 5 36 17 0 13 -27 13 -35
-1z"/>
<path d="M15020 6875 c0 -10 7 -15 18 -13 21 4 19 22 -2 26 -10 2 -16 -3 -16
-13z"/>
<path d="M15020 6735 c0 -8 6 -15 14 -15 22 0 28 17 10 24 -22 9 -24 8 -24 -9z"/>
<path d="M15020 6595 c0 -10 7 -15 18 -13 21 4 19 22 -2 26 -10 2 -16 -3 -16
-13z"/>
<path d="M15025 6449 c-10 -15 1 -23 20 -15 9 3 13 10 10 16 -8 13 -22 13 -30
-1z"/>
<path d="M15020 6170 c0 -5 9 -10 21 -10 11 0 17 5 14 10 -3 6 -13 10 -21 10
-8 0 -14 -4 -14 -10z"/>
<path d="M15020 6030 c0 -5 7 -10 15 -10 8 0 15 5 15 10 0 6 -7 10 -15 10 -8
0 -15 -4 -15 -10z"/>
<path d="M15026 5753 c-11 -11 -6 -23 9 -23 8 0 15 4 15 9 0 13 -16 22 -24 14z"/>
<path d="M15020 5605 c0 -10 7 -15 18 -13 21 4 19 22 -2 26 -10 2 -16 -3 -16
-13z"/>
<path d="M15020 5465 c0 -10 7 -15 18 -13 21 4 19 22 -2 26 -10 2 -16 -3 -16
-13z"/>
<path d="M15020 5332 c0 -14 11 -21 26 -15 8 3 11 9 8 14 -7 11 -34 12 -34 1z"/>
<path d="M15030 5186 c0 -9 7 -16 16 -16 9 0 14 5 12 12 -6 18 -28 21 -28 4z"/>
<path d="M15025 5019 c-10 -15 1 -23 20 -15 9 3 13 10 10 16 -8 13 -22 13 -30
-1z"/>
<path d="M15020 4875 c0 -8 6 -15 14 -15 22 0 28 17 10 24 -22 9 -24 8 -24 -9z"/>
<path d="M15020 4715 c0 -17 2 -18 24 -9 18 7 12 24 -10 24 -8 0 -14 -7 -14
-15z"/>
<path d="M15022 4578 c5 -15 28 -18 29 -3 0 6 -7 12 -17 13 -10 3 -15 -1 -12
-10z"/>
<path d="M15020 4425 c0 -10 7 -15 18 -13 21 4 19 22 -2 26 -10 2 -16 -3 -16
-13z"/>
<path d="M15020 4125 c0 -10 7 -15 18 -13 21 4 19 22 -2 26 -10 2 -16 -3 -16
-13z"/>
<path d="M15020 3986 c0 -8 4 -17 9 -20 11 -7 33 18 24 27 -12 12 -33 7 -33
-7z"/>
<path d="M15020 3835 c0 -10 7 -15 18 -13 21 4 19 22 -2 26 -10 2 -16 -3 -16
-13z"/>
<path d="M15020 3695 c0 -10 7 -15 18 -13 21 4 19 22 -2 26 -10 2 -16 -3 -16
-13z"/>
<path d="M15020 3555 c0 -10 7 -15 18 -13 21 4 19 22 -2 26 -10 2 -16 -3 -16
-13z"/>
<path d="M15024 3415 c-4 -9 -4 -18 -2 -21 9 -8 39 8 35 19 -6 18 -27 20 -33
2z"/>
<path d="M15020 3132 c0 -14 11 -21 26 -15 8 3 11 9 8 14 -7 11 -34 12 -34 1z"/>
<path d="M15020 2990 c0 -5 6 -10 14 -10 8 0 18 5 21 10 3 6 -3 10 -14 10 -12
0 -21 -4 -21 -10z"/>
<path d="M15020 2856 c0 -21 16 -28 29 -12 9 11 8 15 -5 20 -22 8 -24 8 -24
-8z"/>
<path d="M15020 2565 c0 -10 7 -15 18 -13 21 4 19 22 -2 26 -10 2 -16 -3 -16
-13z"/>
<path d="M15020 2425 c0 -10 7 -15 18 -13 21 4 19 22 -2 26 -10 2 -16 -3 -16
-13z"/>
<path d="M15022 2288 c5 -15 28 -18 29 -3 0 6 -7 12 -17 13 -10 3 -15 -1 -12
-10z"/>
<path d="M15020 1856 c0 -8 4 -17 9 -20 11 -7 33 18 24 27 -12 12 -33 7 -33
-7z"/>
<path d="M15024 1705 c-4 -9 -4 -18 -2 -21 9 -8 39 8 35 19 -6 18 -27 20 -33
2z"/>
<path d="M15020 1405 c0 -10 7 -15 18 -13 21 4 19 22 -2 26 -10 2 -16 -3 -16
-13z"/>
<path d="M15020 1104 c0 -9 7 -14 17 -12 25 5 28 28 4 28 -12 0 -21 -6 -21
-16z"/>
<path d="M15020 965 c0 -8 9 -15 20 -15 11 0 20 7 20 15 0 8 -9 15 -20 15 -11
0 -20 -7 -20 -15z"/>
<path d="M15020 674 c0 -9 7 -14 17 -12 25 5 28 28 4 28 -12 0 -21 -6 -21 -16z"/>
<path d="M15020 110 c0 -5 9 -10 20 -10 11 0 20 5 20 10 0 6 -9 10 -20 10 -11
0 -20 -4 -20 -10z"/>
</g>
</svg>
