<?xml version="1.0" standalone="no"?>
<!DOCTYPE svg PUBLIC "-//W3C//DTD SVG 20010904//EN"
 "http://www.w3.org/TR/2001/REC-SVG-20010904/DTD/svg10.dtd">
<svg version="1.0" xmlns="http://www.w3.org/2000/svg"
 width="1587.000000pt" height="2245.000000pt" viewBox="0 0 1587.000000 2245.000000"
 preserveAspectRatio="xMidYMid meet">
<metadata>
Created by potrace 1.16, written by Peter Selinger 2001-2019
</metadata>
<g transform="translate(0.000000,2245.000000) scale(0.100000,-0.100000)"
fill="#000000" stroke="none">
<path d="M0 11225 l0 -11225 160 0 c184 0 170 -11 144 110 -12 57 -14 102 -9
188 5 85 4 116 -6 128 -10 13 -10 17 1 24 20 12 35 3 53 -35 13 -28 15 -55 11
-147 -3 -62 -2 -147 3 -188 8 -74 8 -75 38 -78 l30 -3 0 108 c0 106 7 155 41
283 19 74 30 92 44 70 15 -23 24 -2 12 25 -14 30 -16 105 -3 105 29 0 56 -93
48 -171 -6 -55 -5 -60 10 -55 48 19 99 18 123 -2 21 -17 22 -22 11 -36 -9 -10
-29 -16 -56 -16 -38 0 -47 -5 -74 -37 -17 -21 -31 -45 -31 -53 0 -9 -5 -21
-11 -27 -7 -7 -9 -19 -5 -28 6 -16 8 -16 31 -1 13 9 41 16 62 16 l38 -1 -31
-13 c-34 -15 -72 -59 -79 -90 -2 -12 -6 -33 -10 -48 l-5 -28 425 0 426 0 24
26 25 27 0 -27 0 -26 6480 0 6480 0 0 26 0 27 25 -27 24 -26 424 0 425 1 -9
40 c-15 65 -35 95 -80 117 l-42 21 28 7 c17 4 40 1 62 -10 20 -9 37 -15 40
-12 10 9 -22 88 -45 111 -25 26 -33 29 -66 25 -39 -4 -66 10 -66 34 0 13 6 29
14 35 14 11 69 16 111 9 18 -3 20 4 25 83 3 59 11 94 23 113 26 39 43 28 39
-25 -2 -30 2 -47 12 -55 9 -6 23 -42 32 -80 37 -162 45 -222 42 -317 l-4 -97
27 0 c24 0 27 4 33 46 3 26 6 119 6 208 0 144 2 164 20 186 23 29 25 79 8 147
-26 101 -122 150 -162 82 -26 -45 -60 -37 -64 14 -5 57 18 77 84 77 46 0 59
-5 89 -32 20 -17 42 -45 50 -62 l13 -31 1 32 c1 17 -3 35 -9 38 -5 3 -10 14
-10 24 0 53 -135 131 -226 131 -66 0 -84 -13 -84 -60 0 -48 -6 -52 -48 -34
-21 8 -37 24 -43 43 -8 21 -21 33 -46 42 -34 11 -73 58 -73 89 0 12 2 12 9 2
9 -16 77 -13 73 3 -1 6 -22 17 -46 25 -25 8 -48 18 -52 23 -14 14 -32 7 -38
-17 -7 -27 -33 -37 -81 -29 -43 7 -63 28 -67 73 -3 32 -5 35 -33 32 -21 -2
-45 -18 -80 -56 -66 -69 -84 -132 -62 -217 25 -93 52 -136 110 -172 91 -58
172 -71 237 -39 47 23 62 55 56 121 -5 56 -22 83 -68 107 -35 18 -56 9 -55
-23 0 -23 -25 -53 -43 -53 -4 0 -19 12 -35 26 -22 21 -26 31 -21 57 20 101
141 103 227 5 53 -60 65 -171 26 -229 -12 -18 -40 -44 -62 -57 -35 -20 -50
-23 -127 -19 -57 2 -88 -1 -89 -7 -1 -6 -1 -22 0 -36 2 -36 -34 -88 -65 -96
-53 -13 -96 19 -80 61 4 11 11 11 35 2 40 -15 61 3 61 53 0 32 -8 47 -50 91
-28 30 -62 77 -76 104 -61 127 -32 322 62 405 61 53 223 81 335 57 34 -7 36
-6 46 25 8 25 11 28 12 11 2 -37 46 -79 98 -93 27 -7 53 -16 58 -20 17 -12 65
-21 65 -12 0 5 -9 17 -20 27 -25 23 -26 45 -1 45 11 0 21 5 23 11 3 8 10 8 26
-2 19 -12 22 -20 17 -47 -6 -30 -1 -38 43 -83 48 -48 82 -63 82 -35 0 8 -3 16
-7 18 -8 3 -105 144 -112 163 -2 6 -23 37 -46 70 -59 84 -89 142 -104 203 -16
63 -17 200 -2 215 6 6 11 29 12 52 l1 40 9 -35 c5 -19 13 -89 19 -154 7 -71
17 -127 26 -140 7 -11 14 -28 14 -38 0 -33 18 -19 22 17 3 23 -1 40 -10 47
-18 16 -14 240 6 260 6 6 12 19 12 28 0 17 34 42 44 33 12 -12 6 -51 -13 -90
-30 -60 -46 -169 -31 -222 6 -24 10 -57 9 -75 -2 -17 5 -45 14 -63 9 -18 17
-41 17 -51 0 -11 7 -23 15 -26 9 -3 24 -23 33 -43 l17 -38 3 44 c4 53 -3 72
-23 65 -19 -8 -19 3 1 23 9 9 13 25 10 37 -6 24 21 167 35 181 5 5 9 17 9 27
0 10 11 24 25 30 14 6 25 15 25 20 0 16 29 7 44 -14 15 -20 14 -23 -16 -41
-38 -23 -67 -57 -68 -77 0 -9 -5 -21 -11 -27 -7 -7 -11 -67 -12 -157 -2 -124
0 -145 13 -143 9 1 16 -8 18 -23 2 -14 8 -29 13 -35 5 -5 9 28 9 85 0 122 11
144 70 148 58 4 90 -13 90 -50 0 -29 -17 -37 -37 -17 -17 17 -61 -14 -78 -55
-18 -42 -21 -175 -6 -204 6 -11 11 -28 11 -36 0 -9 16 -50 36 -92 34 -74 35
-78 30 -172 -2 -54 -7 -116 -11 -140 -5 -28 -3 -47 5 -57 10 -12 10 -18 0 -30
-8 -10 -11 -56 -11 -148 1 -88 -4 -156 -14 -198 -8 -35 -15 -67 -15 -71 0 -5
79 -8 175 -8 l175 0 0 11225 0 11225 -169 0 -169 0 29 -29 c38 -39 38 -69 -1
-84 -31 -12 -37 -21 -21 -32 19 -11 -26 -105 -51 -105 -4 0 -8 18 -8 40 0 22
-10 58 -22 81 -24 46 -36 37 -19 -13 8 -23 8 -41 0 -65 -10 -31 -7 -41 23
-101 65 -126 89 -240 87 -415 -1 -116 2 -141 16 -157 15 -17 15 -19 0 -28 -14
-7 -16 -17 -10 -53 3 -24 9 -86 11 -137 6 -97 4 -106 -45 -214 -32 -72 -43
-133 -39 -212 4 -96 26 -130 86 -134 37 -3 42 -6 42 -27 0 -44 -92 -71 -135
-39 -17 13 -20 29 -23 119 -2 58 -8 105 -13 105 -5 0 -9 -13 -9 -28 0 -34 -9
-45 -24 -33 -8 7 -10 -31 -9 -132 2 -131 4 -146 29 -194 25 -50 65 -83 101
-83 8 0 3 -11 -14 -30 -14 -16 -30 -30 -35 -30 -15 0 -59 45 -74 75 -17 37
-44 158 -44 203 0 17 -4 32 -10 32 -5 0 -10 10 -10 21 0 17 3 19 14 10 16 -14
26 4 26 50 0 36 -17 38 -26 4 -3 -14 -15 -30 -25 -36 -11 -5 -19 -17 -19 -27
0 -9 -7 -30 -16 -47 -9 -17 -16 -49 -15 -73 1 -29 -2 -42 -8 -37 -6 3 -11 17
-11 31 0 27 -20 34 -20 7 0 -10 -7 -26 -15 -36 -7 -10 -16 -53 -20 -95 -3 -43
-11 -113 -17 -157 l-12 -80 -8 45 c-4 25 -12 74 -19 109 -11 56 -10 74 6 140
21 85 35 113 106 219 27 40 49 77 49 81 0 5 3 11 7 13 12 5 113 156 113 168 0
24 -50 -6 -99 -59 -26 -28 -30 -39 -25 -66 5 -27 2 -35 -14 -44 -13 -7 -22 -7
-29 0 -6 6 -20 8 -32 4 -18 -5 -21 -14 -21 -56 0 -42 -3 -49 -19 -49 -11 0
-23 5 -26 11 -5 7 -14 4 -26 -7 -18 -16 -19 -16 -19 3 0 11 -10 25 -25 31 -47
21 -19 47 39 37 34 -7 55 7 117 79 33 38 33 39 9 34 -54 -13 -175 -60 -192
-74 -9 -9 -20 -30 -24 -47 l-6 -30 -14 32 c-11 26 -18 31 -31 25 -30 -14 -174
-16 -222 -4 -72 19 -103 36 -142 77 -54 57 -74 120 -74 233 1 116 17 158 99
249 46 52 56 70 56 99 0 19 -7 43 -16 53 -15 17 -18 17 -41 2 -29 -19 -46 -7
-41 28 4 28 43 45 82 35 36 -9 67 -61 64 -106 l-3 -35 95 0 c108 0 148 -16
188 -75 26 -39 30 -121 8 -174 -52 -125 -212 -176 -252 -80 -8 18 -14 40 -14
49 0 23 37 55 65 55 20 0 27 -6 31 -30 9 -42 25 -52 60 -40 42 15 65 53 71
115 6 53 5 56 -30 89 -56 53 -122 56 -222 10 -89 -40 -121 -82 -150 -196 -24
-92 -2 -165 75 -236 56 -53 100 -55 100 -6 0 40 18 62 60 75 33 10 43 9 65 -5
14 -9 25 -25 25 -36 0 -18 2 -18 53 5 28 14 60 25 70 25 9 0 17 4 17 9 0 15
-49 22 -70 11 -24 -13 -26 -1 -6 38 13 26 37 42 79 56 10 3 23 19 29 36 6 20
22 36 42 44 40 17 46 13 46 -34 0 -52 23 -64 105 -58 99 8 179 59 211 136 16
40 19 82 4 82 -5 0 -10 -11 -10 -24 0 -16 -15 -38 -46 -65 -39 -34 -54 -41
-89 -41 -59 0 -87 28 -83 83 3 37 6 42 28 42 17 0 29 -8 38 -27 11 -23 20 -28
51 -28 67 0 113 72 123 195 1 19 -6 43 -20 62 -21 29 -22 42 -22 196 0 243
-25 347 -114 485 -56 85 -71 83 -40 -8 8 -25 25 -64 37 -88 16 -33 18 -45 8
-55 -9 -9 -14 -9 -22 3 -9 15 -8 -12 7 -189 9 -97 24 -55 24 67 0 56 4 102 9
102 5 0 15 -33 21 -72 16 -90 8 -266 -14 -328 -9 -25 -19 -69 -22 -98 -5 -38
-12 -56 -26 -63 -17 -9 -19 -17 -13 -60 8 -55 -7 -66 -41 -28 -15 17 -20 40
-22 116 -4 83 -6 94 -20 87 -59 -26 -132 -6 -132 36 0 24 35 44 63 36 45 -11
93 37 112 116 6 23 4 26 -14 21 -12 -3 -24 -9 -27 -14 -3 -5 -25 -9 -50 -9
-28 0 -43 4 -39 10 3 6 14 10 23 10 10 0 34 16 53 35 30 29 38 46 54 119 19
92 14 149 -22 276 -21 74 -33 84 -33 29 0 -24 -4 -50 -9 -57 -9 -15 -21 1 -56
73 -11 22 -23 42 -27 43 -5 2 -8 12 -8 22 0 10 -4 22 -10 25 -13 8 -13 -19 -1
-43 5 -9 17 -35 26 -57 9 -22 21 -48 26 -58 17 -30 23 -150 10 -176 -16 -29
-33 -16 -65 48 l-23 45 -7 -49 c-4 -26 -11 -55 -16 -64 -5 -9 -11 -24 -14 -33
-3 -10 -12 -18 -20 -18 -25 0 -30 66 -16 193 6 65 10 120 7 123 -2 3 -14 -26
-26 -64 -23 -77 -55 -116 -103 -126 -42 -8 -56 6 -30 32 32 32 43 88 40 197
l-3 100 -42 3 -43 3 0 -70 c0 -38 -4 -72 -9 -75 -5 -3 -12 -18 -15 -32 -8 -31
-55 -102 -91 -139 -27 -26 -110 -85 -120 -85 -4 0 -22 -7 -41 -15 -19 -8 -49
-22 -68 -30 -19 -8 -37 -15 -41 -15 -4 0 -15 -10 -26 -22 l-18 -23 -1 39 c0
54 36 99 97 121 88 31 136 60 185 108 62 61 67 96 8 62 -16 -9 -55 -14 -106
-15 -71 0 -83 3 -102 23 -36 38 -54 113 -34 144 13 21 61 1 117 -48 61 -53 89
-60 135 -33 29 18 60 62 60 88 0 15 -584 16 -6840 16 -4964 0 -6840 -3 -6840
-11 0 -26 32 -76 59 -92 44 -26 78 -22 114 16 40 40 74 62 109 71 24 5 28 3
34 -19 10 -38 -4 -91 -32 -125 -25 -29 -29 -30 -105 -30 -60 0 -90 5 -119 20
-38 20 -65 27 -45 12 6 -4 17 -20 25 -36 24 -46 146 -136 186 -136 28 0 92
-39 114 -70 16 -22 20 -41 18 -72 -3 -39 -5 -41 -14 -20 -7 17 -35 33 -99 59
-160 64 -235 132 -299 272 -9 19 -16 46 -16 60 0 14 -3 43 -6 64 -6 34 -9 37
-40 37 -18 0 -35 -4 -39 -9 -3 -6 -6 -56 -7 -113 -1 -108 14 -167 48 -186 10
-5 14 -14 9 -21 -10 -17 -65 -4 -94 23 -29 26 -61 98 -61 136 0 16 -5 32 -11
36 -8 5 -10 -14 -5 -67 19 -216 19 -225 0 -244 -17 -17 -19 -16 -37 26 -11 26
-22 84 -27 139 -6 80 -7 86 -9 35 -1 -66 -35 -148 -62 -153 -26 -5 -38 62 -23
123 14 57 37 121 47 131 9 10 9 44 0 44 -5 0 -17 -20 -27 -43 -11 -23 -27 -52
-37 -65 l-18 -23 -5 33 c-3 18 -7 44 -9 58 -3 23 -4 22 -19 -13 -39 -87 -55
-225 -38 -311 20 -95 47 -135 108 -163 l27 -11 -35 -1 c-19 -1 -49 8 -67 19
-38 23 -51 11 -33 -28 46 -100 60 -113 114 -110 46 3 72 -22 55 -54 -9 -17
-19 -19 -62 -16 -29 3 -59 8 -67 11 -14 6 -16 -4 -15 -75 0 -85 -16 -137 -44
-146 -12 -4 -13 7 -8 63 5 56 4 65 -7 55 -12 -9 -17 -1 -30 44 -9 30 -16 61
-16 68 0 8 -3 18 -7 22 -12 12 -31 134 -32 199 -1 70 19 197 30 197 5 0 9 -51
9 -112 0 -62 4 -119 9 -127 16 -25 22 23 25 192 3 122 8 177 22 220 9 31 15
60 11 63 -15 15 -98 -109 -125 -188 -39 -112 -45 -156 -47 -328 -1 -143 -5
-181 -18 -207 -18 -34 -24 -37 -51 -27 -14 5 -14 9 -4 22 9 11 13 59 14 161 1
152 12 219 54 341 13 36 31 80 42 98 10 18 18 40 18 48 0 14 23 44 33 44 8 0
132 130 136 143 2 7 10 20 19 30 14 16 13 17 -19 17 -27 0 -40 -8 -65 -38 -42
-51 -84 -119 -84 -136 0 -20 -20 -32 -29 -17 -9 13 10 101 21 101 5 0 8 5 8
10 0 6 -7 6 -19 -2 -28 -17 -51 -73 -51 -123 0 -48 -4 -53 -24 -32 -25 24 -38
60 -32 87 4 24 1 30 -24 40 -39 16 -38 40 2 79 l32 31 -157 0 -157 0 0 -11225z
m482 10873 c-9 -9 -12 -7 -12 12 0 19 3 21 12 12 9 -9 9 -15 0 -24z m744 -494
c9 -36 -3 -46 -35 -29 -26 13 -30 13 -45 -4 -19 -21 -21 -73 -3 -102 6 -12 33
-43 58 -69 64 -68 83 -132 77 -259 -9 -167 -70 -245 -216 -273 -71 -14 -136
-14 -186 0 -44 12 -66 7 -67 -17 0 -12 -2 -11 -9 4 -13 33 -52 61 -110 79 -30
9 -74 26 -97 37 -24 10 -48 19 -54 19 -12 0 -64 36 -91 63 -12 12 -46 28 -58
28 -3 0 -8 -10 -12 -23 l-6 -23 -1 23 c-1 12 -5 22 -11 22 -5 0 -10 9 -10 20
0 11 -11 38 -24 59 -25 39 -47 153 -45 229 l1 37 10 -35 c5 -19 12 -48 15 -65
14 -84 93 -175 153 -175 11 0 20 -4 20 -10 0 -6 31 -10 72 -10 86 0 108 14
108 71 0 38 0 38 29 28 18 -6 36 -24 46 -45 9 -19 21 -34 27 -34 14 0 78 -48
78 -59 0 -4 -26 -14 -57 -21 -110 -24 -113 -26 -43 -33 61 -7 120 -25 120 -38
0 -3 -17 -3 -37 1 -41 7 -98 -13 -88 -30 4 -6 10 -10 15 -10 5 0 26 -16 46
-35 31 -30 42 -35 82 -34 68 1 107 27 107 70 0 31 -3 34 -32 37 -40 4 -44 27
-9 43 53 25 116 -17 116 -76 0 -40 7 -42 58 -18 43 20 84 63 109 113 39 79 9
234 -57 300 -74 74 -210 111 -279 76 -38 -20 -71 -70 -71 -109 0 -51 37 -113
80 -132 43 -19 60 -14 60 19 0 12 6 31 14 42 14 18 17 18 43 4 41 -22 44 -76
7 -113 -15 -15 -36 -27 -48 -27 -133 1 -244 186 -173 290 47 70 115 94 230 83
l57 -6 0 49 c0 62 20 92 63 96 49 5 67 -2 73 -28z m-676 -295 c0 -28 -6 -46
-17 -55 -24 -18 -73 -17 -111 2 -32 16 -66 54 -56 63 3 3 9 0 13 -7 11 -18 62
-31 86 -22 11 4 27 19 34 34 8 14 23 26 33 26 14 0 18 -8 18 -41z m-100 -369
c0 -7 -6 -6 -15 4 -8 8 -15 20 -15 26 0 7 6 6 15 -4 8 -8 15 -20 15 -26z m128
-48 c-8 -9 -14 -9 -24 -1 -11 9 -11 15 -3 25 8 10 14 11 24 1 9 -8 10 -16 3
-25z m173 -61 c-8 -5 -20 -7 -28 -4 -21 8 -15 13 15 13 20 0 23 -3 13 -9z
m-80 -14 c-1 -4 -1 -14 -1 -22 0 -8 -7 -15 -15 -15 -15 0 -21 31 -8 44 8 8 25
3 24 -7z m14372 -83 c11 -19 23 -18 47 6 15 15 20 16 20 6 0 -8 -5 -16 -12
-18 -8 -3 -6 -12 5 -29 18 -26 13 -69 -8 -69 -14 0 -39 27 -48 53 -4 12 -17
17 -41 17 -43 0 -68 32 -39 49 22 13 65 5 76 -15z m-14179 -9 c-4 -9 -19 -15
-36 -15 -26 0 -29 2 -18 15 7 8 23 15 36 15 17 0 22 -4 18 -15z m-112 -65
c-21 -19 -22 -20 -22 -2 0 25 21 45 34 32 7 -7 2 -17 -12 -30z m14230 -32 c50
-25 78 -51 78 -72 0 -25 -18 -28 -50 -9 -21 12 -28 23 -24 35 4 15 -1 18 -35
18 -29 0 -43 5 -51 19 -7 14 -6 21 3 24 23 10 36 7 79 -15z m367 -124 c1 -20
18 -65 40 -104 29 -52 30 -58 17 -69 -19 -16 -61 27 -70 70 -12 59 -23 191
-18 218 4 20 8 13 18 -34 7 -33 13 -70 13 -81z m-14419 116 c0 -5 -17 -10 -37
-9 -34 1 -35 2 -13 9 36 11 50 11 50 0z m14336 -75 c-8 -43 10 -147 36 -201
19 -41 22 -110 4 -108 -5 1 -21 22 -35 45 -22 38 -25 59 -29 157 -3 80 -1 117
8 127 19 23 23 18 16 -20z m-368 -42 c20 -9 50 -17 66 -18 28 -3 46 -19 46
-42 0 -18 -32 -16 -56 2 -10 8 -32 15 -47 15 -15 0 -42 7 -58 16 -25 12 -28
18 -18 30 15 18 21 18 67 -3z m-13922 -18 c-35 -19 -37 -19 -30 0 4 8 18 15
33 15 l26 0 -29 -15z m13924 -106 c30 -13 58 -28 62 -34 24 -34 -12 -33 -57 1
-22 17 -41 23 -54 19 -29 -9 -71 4 -64 20 5 14 31 25 48 20 6 -2 35 -14 65
-26z m4 -139 c15 0 29 -27 18 -34 -16 -10 -62 8 -68 26 -5 18 -7 18 -23 4 -17
-15 -71 -23 -71 -10 0 14 36 33 62 34 15 0 30 5 33 11 5 6 13 3 22 -10 8 -12
20 -21 27 -21z m-34 -121 c0 -18 -5 -29 -14 -29 -17 0 -26 22 -19 48 7 30 33
15 33 -19z m-3046 -7474 c18 -125 36 -374 36 -504 0 -156 -46 -356 -100 -431
-78 -110 -388 -209 -619 -198 -53 3 -115 12 -138 20 -41 15 -44 15 -103 -14
-86 -41 -199 -65 -391 -82 -227 -22 -305 -21 -382 5 l-64 21 -79 -25 c-74 -23
-189 -49 -277 -61 -37 -5 -39 -4 -33 19 4 14 5 25 4 25 -2 0 -26 -9 -53 -19
-28 -11 -87 -25 -132 -31 l-82 -12 -18 -47 c-38 -101 -205 -218 -363 -256
-209 -48 -432 26 -495 165 -16 37 -17 47 -6 88 30 114 152 320 255 430 l61 65
16 -84 16 -84 -101 -97 c-98 -94 -100 -97 -83 -116 40 -44 114 -65 242 -70
134 -4 217 10 317 55 65 29 61 11 37 153 -13 82 -71 325 -97 408 l-20 63 48
72 c51 75 165 207 180 207 21 0 49 -234 59 -485 l6 -160 55 3 c82 4 170 21
216 42 34 15 44 25 56 61 13 39 18 44 48 47 31 3 33 2 27 -25 -21 -107 -21
-103 6 -103 13 0 38 3 54 6 27 5 30 10 41 75 35 205 150 350 315 401 118 35
196 15 242 -63 16 -28 20 -52 20 -135 0 -95 -2 -104 -36 -173 l-37 -74 62 7
c33 4 98 10 144 13 l82 6 0 42 c0 58 24 135 77 241 80 162 135 207 255 207 52
0 79 -6 114 -24 74 -38 89 -66 88 -162 -1 -77 -12 -120 -59 -229 -6 -16 -1
-18 36 -18 62 0 270 36 357 62 l73 21 -6 51 c-11 86 -53 275 -91 408 l-36 128
23 37 c56 93 197 249 211 235 4 -4 14 -53 22 -107z m-641 -67 l56 -88 -42 -28
c-23 -16 -61 -41 -85 -56 l-44 -27 -35 37 c-19 20 -50 60 -68 87 l-34 51 92
62 c51 34 95 59 98 55 3 -3 31 -45 62 -93z m-5439 -308 c26 -199 40 -511 27
-611 -14 -111 -49 -232 -84 -291 -43 -74 -172 -146 -328 -183 -77 -18 -338
-49 -346 -41 -3 3 4 30 15 61 l21 55 -30 -16 c-71 -36 -271 -107 -393 -139
-323 -85 -531 -86 -704 -5 l-64 30 7 67 c14 134 56 237 141 350 68 89 231 233
264 233 7 0 45 -159 38 -164 -1 -2 -34 -22 -72 -45 -91 -55 -199 -142 -189
-152 20 -20 134 -39 235 -39 186 0 480 55 740 140 131 42 150 46 167 34 19
-14 19 -17 5 -55 -7 -23 -14 -43 -14 -45 0 -11 256 29 357 56 l83 22 -6 42
c-14 97 -58 300 -90 409 -19 65 -34 125 -34 134 0 42 211 296 230 277 5 -5 16
-61 24 -124z m1440 -15 c18 -125 36 -374 36 -504 0 -156 -46 -356 -100 -431
-73 -102 -314 -184 -603 -206 l-98 -7 11 27 c5 15 10 29 10 31 0 3 -20 -8 -45
-24 -55 -35 -149 -58 -270 -66 -49 -4 -100 -9 -112 -12 -23 -5 -23 -4 -23 88
0 108 -12 333 -36 667 l-17 233 64 65 c35 36 91 86 123 110 53 40 61 43 69 28
20 -36 -7 -565 -42 -817 -5 -34 -8 -63 -7 -63 0 -1 59 4 130 12 126 13 220 35
243 58 6 6 20 40 30 76 16 54 23 66 42 68 38 6 44 -10 31 -74 -6 -33 -14 -67
-17 -78 -5 -17 0 -18 68 -11 111 10 235 33 317 57 l73 21 -6 51 c-11 86 -53
275 -91 409 l-36 128 47 72 c56 84 175 211 187 199 4 -4 14 -53 22 -107z m459
-85 c7 -93 -7 -434 -27 -644 -14 -141 -14 -143 -81 -300 -50 -117 -71 -156
-82 -152 -8 4 -18 6 -22 6 -4 0 -11 118 -15 263 -6 244 -17 453 -32 624 l-6
72 58 62 c62 64 183 161 194 154 4 -3 10 -41 13 -85z m423 -191 c-14 -458 -30
-568 -107 -750 -33 -79 -65 -148 -69 -152 -4 -5 -17 -4 -27 2 -19 9 -20 26
-26 298 -4 158 -13 371 -21 473 l-14 184 29 37 c33 42 125 123 184 163 l40 28
8 -44 c5 -24 6 -131 3 -239z m4217 191 c7 -93 -7 -434 -27 -644 -14 -141 -14
-143 -81 -300 -50 -117 -71 -156 -82 -152 -8 4 -18 6 -22 6 -4 0 -11 118 -15
263 -6 244 -17 453 -32 624 l-6 72 58 62 c62 64 183 161 194 154 4 -3 10 -41
13 -85z m-7380 -165 c26 -9 47 -21 47 -26 0 -13 -112 -179 -120 -179 -4 0 -24
7 -45 16 -21 8 -62 16 -92 17 -54 2 -56 1 -93 -42 -30 -34 -42 -42 -59 -36
-11 3 -21 10 -21 15 0 5 44 66 98 136 l97 126 70 -5 c39 -3 91 -13 118 -22z
m1864 -37 l52 -19 -61 -92 -62 -93 -50 18 c-28 9 -72 17 -97 18 -42 0 -50 -4
-88 -45 -35 -39 -45 -44 -61 -35 -11 6 -20 13 -20 16 0 10 190 252 203 257 22
10 131 -5 184 -25z m3033 -2173 c-11 -21 -63 -55 -85 -55 -7 0 -26 -7 -41 -15
-22 -11 -65 -15 -176 -15 -82 0 -148 -4 -148 -8 0 -15 465 -22 1444 -22 522 0
947 -2 944 -5 -2 -3 -436 -5 -964 -5 -527 0 -965 -4 -973 -9 -21 -13 4 -24 63
-26 46 -2 51 -4 58 -30 4 -16 5 -32 2 -37 -3 -5 9 -29 28 -54 18 -25 41 -56
51 -69 18 -25 19 -25 200 -26 130 0 173 -3 152 -10 -16 -5 -97 -9 -180 -7
l-149 2 -2 -85 c0 -46 -5 -108 -9 -137 -7 -52 -9 -54 -34 -47 -14 4 -47 7 -72
6 -53 -2 -105 18 -136 51 -25 27 -63 101 -88 174 -20 56 -82 153 -105 165 -55
26 -101 41 -115 35 -15 -5 -15 -8 -1 -28 25 -36 22 -158 -5 -192 -28 -36 -90
-66 -136 -67 -74 -1 -126 -22 -150 -58 l-23 -34 0 30 c0 17 10 43 22 58 18 23
20 30 8 48 -11 18 -9 23 14 40 35 25 36 69 2 85 -53 24 -67 80 -41 160 7 21 5
23 -21 16 -77 -18 -161 -71 -240 -149 -66 -65 -154 -179 -154 -200 0 -2 -11
-28 -24 -57 -13 -29 -36 -84 -52 -123 -27 -68 -66 -139 -88 -160 -6 -6 -29
-24 -50 -40 -35 -27 -46 -30 -120 -30 -45 -1 -94 -7 -111 -14 -16 -7 -42 -15
-57 -18 l-28 -5 16 31 c14 29 14 36 -3 89 -24 75 -24 218 0 285 25 70 44 105
91 166 40 54 45 70 45 159 0 31 13 42 26 22 11 -18 100 -11 161 13 32 13 86
29 119 36 33 8 76 17 95 22 51 13 265 11 294 -2 21 -10 30 -8 57 9 l33 20 -40
7 c-21 3 -57 10 -79 15 -113 25 -342 42 -488 37 -146 -5 -172 -9 -282 -44
-125 -40 -205 -132 -205 -235 0 -20 6 -27 21 -30 35 -5 47 -33 25 -57 -45 -49
-76 0 -76 117 0 69 3 83 29 123 54 86 121 121 291 155 114 22 483 13 630 -15
140 -28 216 -45 225 -52 6 -4 39 -9 73 -10 58 -2 64 -1 76 22 12 24 13 24 161
24 164 1 208 10 259 56 22 21 30 38 35 80 l6 54 3 -55 c2 -30 -2 -63 -8 -75z
m-3681 33 c0 -10 -3 -18 -9 -18 -5 0 -9 21 -9 48 1 42 2 44 9 17 4 -16 8 -38
9 -47z m1039 65 c-16 -2 -40 -2 -55 0 -16 2 -3 4 27 4 30 0 43 -2 28 -4z m110
0 c-16 -2 -40 -2 -55 0 -16 2 -3 4 27 4 30 0 43 -2 28 -4z m102 -23 c12 -8 9
-10 -13 -10 -16 0 -26 4 -22 10 8 12 16 12 35 0z m-347 -7 c-7 -2 -19 -2 -25
0 -7 3 -2 5 12 5 14 0 19 -2 13 -5z m1560 0 c-7 -2 -21 -2 -30 0 -10 3 -4 5
12 5 17 0 24 -2 18 -5z m340 0 c-7 -2 -19 -2 -25 0 -7 3 -2 5 12 5 14 0 19 -2
13 -5z m-1973 -17 c0 -9 -30 -14 -35 -6 -4 6 3 10 14 10 12 0 21 -2 21 -4z
m480 -6 c0 -5 9 -10 20 -10 11 0 20 -4 20 -10 0 -13 -27 -13 -35 1 -4 6 -17
14 -29 19 l-21 9 23 0 c12 1 22 -3 22 -9z m1093 3 c-7 -2 -19 -2 -25 0 -7 3
-2 5 12 5 14 0 19 -2 13 -5z m480 0 c-7 -2 -21 -2 -30 0 -10 3 -4 5 12 5 17 0
24 -2 18 -5z m-2123 -23 c0 -5 -9 -10 -20 -10 -11 0 -20 5 -20 10 0 6 9 10 20
10 11 0 20 -4 20 -10z m1595 0 c-3 -5 -10 -10 -16 -10 -5 0 -9 5 -9 10 0 6 7
10 16 10 8 0 12 -4 9 -10z m600 0 c4 -6 -5 -10 -19 -10 -14 0 -26 5 -26 10 0
6 9 10 19 10 11 0 23 -4 26 -10z m-2260 -20 c4 -6 -7 -10 -27 -9 -27 0 -30 2
-13 9 27 12 33 12 40 0z m2325 0 c11 -7 7 -10 -18 -10 -20 0 -31 4 -27 10 8
13 26 13 45 0z m-3000 -10 c0 -5 7 -10 15 -10 8 0 15 -4 15 -10 0 -5 8 -10 18
-10 9 0 24 -5 32 -10 12 -8 10 -10 -10 -10 -25 0 -107 59 -82 60 6 0 12 -4 12
-10z m1445 -26 c39 -8 82 -18 98 -21 15 -3 55 -22 90 -43 86 -52 127 -118 127
-207 0 -109 -39 -168 -83 -125 -18 18 -18 23 -7 37 8 10 24 21 37 26 26 10 29
34 11 88 -35 104 -145 174 -322 206 -80 15 -127 17 -255 12 -214 -9 -396 -31
-481 -57 -24 -8 -24 -8 14 -25 27 -11 42 -13 49 -6 16 16 240 14 322 -3 90
-19 127 -29 195 -55 58 -22 135 -28 145 -11 3 6 12 10 19 10 9 0 13 -20 14
-65 0 -60 4 -69 46 -128 25 -36 58 -91 73 -123 25 -54 27 -70 28 -180 0 -84
-4 -129 -14 -147 -13 -25 -12 -63 4 -99 5 -14 2 -18 -13 -18 -12 0 -24 5 -27
10 -3 6 -17 10 -31 10 -13 0 -24 4 -24 9 0 4 -37 8 -82 7 -74 0 -88 3 -125 26
-60 39 -119 126 -152 223 -24 72 -41 109 -85 190 -89 162 -242 290 -380 320
-25 5 -27 4 -21 -12 18 -40 17 -97 0 -130 -10 -18 -24 -33 -30 -33 -40 0 -43
-77 -4 -87 17 -5 20 -11 14 -39 -4 -26 -1 -39 15 -56 22 -24 24 -36 11 -57 -7
-11 -10 -9 -15 7 -9 27 -65 52 -134 59 -125 13 -182 65 -182 163 1 30 7 66 15
80 32 55 12 63 -73 28 -45 -19 -59 -31 -91 -82 -21 -34 -50 -93 -65 -132 -55
-145 -112 -197 -212 -192 -27 2 -59 -1 -70 -5 -20 -7 -22 -3 -29 45 -5 29 -8
94 -8 143 1 87 2 92 38 145 20 30 44 63 52 72 8 9 12 21 9 26 -3 5 -2 22 3 38
6 24 12 28 33 26 40 -5 115 18 97 29 -8 5 -192 10 -409 11 -381 1 -373 2 215
9 336 4 614 4 618 -1 5 -4 -8 -11 -28 -14 -39 -8 -64 -19 -104 -48 -33 -25 -8
-23 73 6 37 12 74 32 81 44 12 16 29 21 77 25 35 2 90 11 123 21 90 26 204 44
360 56 158 12 330 18 360 12 11 -2 52 -10 90 -18z m-830 6 c-3 -5 -17 -10 -31
-10 -13 0 -24 5 -24 10 0 6 14 10 31 10 17 0 28 -4 24 -10z m2465 0 c0 -13
-40 -13 -60 0 -11 7 -5 10 23 10 20 0 37 -4 37 -10z m-2540 -20 c0 -5 -21 -10
-47 -10 -35 0 -44 3 -33 10 20 13 80 13 80 0z m2630 0 c11 -7 2 -10 -32 -10
-27 0 -48 5 -48 10 0 13 60 13 80 0z m-2753 -27 c4 -10 -26 -13 -125 -13 -71
0 -145 3 -163 7 l-34 7 30 6 c17 3 88 5 159 5 95 0 130 -3 133 -12z m4229
-148 c-11 -8 -63 -36 -115 -61 -53 -26 -104 -50 -113 -55 -24 -12 -68 -11 -68
1 0 6 11 10 24 10 12 0 44 11 70 25 26 14 54 25 62 25 7 0 14 5 14 10 0 6 6
10 13 11 6 0 28 11 47 24 19 13 46 24 60 24 24 0 24 0 6 -14z m-5589 -21 c-3
-3 -12 -4 -19 -1 -8 3 -5 6 6 6 11 1 17 -2 13 -5z m40 -20 c-3 -3 -12 -4 -19
-1 -8 3 -5 6 6 6 11 1 17 -2 13 -5z m50 -30 c-3 -3 -12 -4 -19 -1 -8 3 -5 6 6
6 11 1 17 -2 13 -5z m56 -21 c-7 -2 -19 -2 -25 0 -7 3 -2 5 12 5 14 0 19 -2
13 -5z m57 -23 c0 -5 -4 -10 -10 -10 -5 0 -10 5 -10 10 0 6 5 10 10 10 6 0 10
-4 10 -10z m5075 -20 c4 -6 -11 -10 -37 -9 -33 0 -38 2 -23 9 28 12 53 12 60
0z m-4982 -7 c-7 -2 -21 -2 -30 0 -10 3 -4 5 12 5 17 0 24 -2 18 -5z m300 -20
c-40 -2 -106 -2 -145 0 -40 1 -8 3 72 3 80 0 112 -2 73 -3z m9075 -7535 c-4
-46 -28 -49 -28 -4 0 26 4 36 16 36 11 0 14 -8 12 -32z m52 -103 c0 -9 -11
-20 -25 -25 -14 -5 -25 -15 -25 -22 -1 -9 -5 -7 -14 4 -8 11 -20 15 -33 12
-23 -6 -63 11 -63 26 0 13 36 13 60 0 13 -7 26 -5 47 5 36 19 53 19 53 0z m50
-104 c0 -30 -102 -76 -153 -69 -45 5 -31 23 21 26 33 2 57 11 77 27 31 25 55
32 55 16z m430 -32 c0 -11 -11 -39 -23 -62 -13 -23 -27 -62 -30 -87 -19 -125
-26 -136 -22 -35 5 134 14 185 31 185 8 0 14 5 14 10 0 6 7 10 15 10 8 0 15
-9 15 -21z m-390 -85 c0 -22 -29 -43 -60 -44 -14 0 -34 -7 -44 -15 -22 -17
-72 -20 -81 -6 -10 17 26 41 63 41 21 0 48 9 62 20 31 24 60 26 60 4z m-14024
-49 c14 -13 13 -15 -9 -15 -14 0 -27 7 -31 15 -3 9 0 15 10 15 8 0 22 -7 30
-15z m14074 -61 c0 -24 -42 -59 -94 -79 -38 -15 -48 -15 -62 -4 -14 12 -14 14
2 26 10 7 26 13 37 13 11 0 35 14 54 30 37 33 63 39 63 14z m-14137 -71 c-7
-2 -21 -2 -30 0 -10 3 -4 5 12 5 17 0 24 -2 18 -5z m14191 -28 c11 -29 -19
-75 -49 -75 -9 0 -23 -7 -31 -15 -20 -19 -63 -19 -70 0 -9 23 15 45 47 45 16
0 29 5 29 12 0 17 32 47 51 47 9 1 19 -6 23 -14z m-14344 -26 c0 -6 -7 -8 -16
-5 -9 3 -18 6 -20 6 -2 0 -4 7 -4 15 0 13 4 14 20 5 11 -6 20 -16 20 -21z m90
-54 c0 -8 -7 -15 -16 -15 -8 0 -22 7 -30 15 -14 13 -12 15 15 15 21 0 31 -5
31 -15z m14304 -46 c29 24 46 6 46 -50 0 -52 0 -52 -21 -33 -13 12 -36 18 -67
19 -52 0 -67 24 -22 35 19 5 24 12 22 31 -2 23 -2 23 12 4 12 -16 16 -17 30
-6z m-14490 -24 c4 -10 -1 -15 -14 -15 -11 0 -20 7 -20 15 0 8 6 15 14 15 8 0
16 -7 20 -15z m66 -25 c0 -5 -5 -10 -11 -10 -5 0 -7 5 -4 10 3 6 8 10 11 10 2
0 4 -4 4 -10z m122 -42 c68 24 207 11 287 -27 38 -18 91 -80 112 -131 9 -23
14 -73 14 -145 0 -126 -11 -159 -77 -228 -60 -63 -68 -77 -68 -124 0 -52 21
-68 61 -48 30 16 39 11 39 -21 0 -43 -69 -59 -111 -25 -18 15 -25 32 -29 77
-4 52 -7 59 -25 55 -151 -27 -250 13 -277 112 -13 48 -8 73 27 152 23 51 105
105 159 105 32 0 76 -53 76 -90 0 -26 -29 -60 -52 -60 -15 0 -38 33 -38 56 0
19 -5 24 -26 24 -56 0 -114 -71 -114 -141 0 -37 35 -91 69 -107 33 -16 116
-15 164 1 49 18 121 69 143 102 24 37 54 132 54 172 0 84 -66 190 -137 219
-46 20 -53 18 -53 -17 0 -62 -43 -96 -107 -84 -46 8 -46 42 0 47 27 3 33 7 35
32 5 45 -28 66 -107 66 -63 0 -65 -1 -107 -45 -50 -51 -45 -59 33 -57 29 1 53
-3 53 -8 0 -6 -12 -10 -27 -10 -16 0 -41 -7 -56 -15 -25 -13 -31 -13 -53 2
-19 12 -30 13 -47 5 -20 -10 -19 -11 14 -11 23 -1 39 -7 42 -16 4 -8 26 -17
57 -21 29 -4 50 -12 50 -19 0 -17 -31 -41 -63 -49 -15 -4 -32 -17 -37 -29 -14
-34 -33 -53 -57 -59 -20 -5 -22 -2 -25 35 -2 33 -8 44 -28 54 -34 17 -129 16
-164 -2 -15 -8 -35 -15 -42 -15 -8 0 -14 -4 -14 -10 0 -5 -5 -10 -10 -10 -16
0 -69 -63 -70 -82 0 -10 -4 -18 -10 -18 -5 0 -10 -18 -10 -40 0 -22 -4 -40
-10 -40 -5 0 -11 -12 -11 -27 -1 -19 -3 -22 -6 -10 -6 25 16 190 28 202 5 5 9
17 9 26 0 9 7 19 15 23 9 3 15 18 15 36 0 26 3 30 19 25 27 -8 60 8 110 54 24
22 48 38 52 35 5 -2 16 -1 26 4 10 6 29 14 43 19 14 6 42 18 63 27 21 9 45 16
54 16 24 0 83 48 83 67 0 14 2 14 14 -2 13 -18 18 -18 48 -7z m-286 -47 c-4
-5 -13 -8 -22 -4 -11 4 -12 8 -3 20 14 16 36 2 25 -16z m-199 -143 c-3 -7 -5
-2 -5 12 0 14 2 19 5 13 2 -7 2 -19 0 -25z m160 -199 c7 -6 13 -29 13 -50 0
-51 -26 -52 -58 -4 -13 21 -30 35 -42 35 -22 0 -60 -19 -72 -35 -5 -6 -8 -5
-8 3 0 51 122 88 167 51z m-230 -251 c-3 -8 -6 -5 -6 6 -1 11 2 17 5 13 3 -3
4 -12 1 -19z"/>
<path d="M10928 11958 l-28 -13 18 -28 c24 -35 80 -77 105 -77 19 0 94 47 116
74 10 12 7 17 -21 32 -42 22 -154 29 -190 12z"/>
<path d="M10234 11865 c-110 -24 -204 -85 -204 -133 0 -22 2 -23 43 -17 94 14
259 59 309 84 119 59 21 103 -148 66z"/>
<path d="M9352 9659 c4 -11 125 -58 152 -59 10 0 -31 33 -59 47 -35 18 -98 26
-93 12z"/>
<path d="M9555 9608 c63 -58 98 -77 193 -104 34 -10 62 -21 62 -26 0 -4 15 -8
34 -8 19 0 38 -4 41 -10 4 -6 -8 -10 -29 -10 -19 0 -38 5 -41 10 -3 6 -17 10
-30 10 -13 0 -40 7 -59 16 -19 9 -41 14 -50 11 -13 -5 -12 -13 10 -56 30 -61
32 -62 102 -70 63 -7 76 -21 33 -38 -60 -22 -52 -105 12 -137 50 -24 96 -15
142 28 30 29 35 40 35 79 0 25 -4 48 -9 52 -5 3 -12 19 -16 35 -6 26 -12 31
-48 37 -37 6 -39 7 -19 16 12 6 22 14 22 19 0 5 -25 36 -56 68 -78 82 -198
130 -325 130 l-61 0 57 -52z"/>
<path d="M9193 9608 c-34 -36 -30 -80 8 -112 38 -33 69 -33 99 -1 l23 24 18
-23 c11 -13 19 -36 19 -50 0 -14 5 -26 10 -26 6 0 10 -7 10 -15 0 -19 -14 -19
-29 -1 -15 18 -100 31 -114 17 -14 -14 16 -57 55 -77 27 -14 37 -14 70 -3 158
52 83 260 -103 285 -38 5 -47 2 -66 -18z"/>
<path d="M8825 9615 c-5 -1 -37 -8 -70 -15 -164 -34 -259 -85 -362 -195 -121
-127 -184 -277 -154 -368 32 -95 174 -149 259 -97 37 23 72 75 72 108 0 55
-51 101 -102 93 -29 -4 -21 27 11 43 22 12 37 13 66 5 26 -8 41 -7 48 0 6 6
22 11 37 12 21 0 30 10 54 62 58 122 165 253 255 312 30 20 38 31 29 36 -12 8
-121 11 -143 4z"/>
<path d="M6250 9650 c-8 -5 -23 -10 -33 -10 -52 0 -209 -107 -239 -163 -8 -16
-7 -23 6 -33 14 -10 12 -13 -19 -18 -25 -5 -35 -12 -35 -26 0 -10 -7 -25 -15
-34 -24 -24 -20 -100 8 -128 56 -59 114 -73 167 -41 56 33 65 92 20 131 -16
15 -30 30 -30 34 0 4 22 7 49 6 28 0 54 3 60 6 14 9 70 114 63 121 -3 3 -18 5
-34 5 -17 0 -27 4 -23 10 3 6 14 10 24 10 28 0 67 23 124 72 28 24 58 48 66
55 13 10 1 12 -64 13 -44 0 -87 -5 -95 -10z m-89 -171 c-16 -6 -28 -6 -35 1
-7 7 1 10 25 9 32 0 33 -1 10 -10z m-71 -19 c0 -5 -12 -10 -26 -10 -14 0 -23
4 -19 10 3 6 15 10 26 10 10 0 19 -4 19 -10z"/>
<path d="M6640 9625 c-84 -22 -141 -64 -166 -124 -18 -43 -18 -65 1 -101 15
-28 82 -70 112 -70 43 0 104 64 87 92 -9 14 -79 2 -110 -18 -20 -14 -24 -14
-24 -2 0 8 4 18 9 24 5 5 11 23 13 39 3 35 36 46 58 20 21 -25 68 -18 101 14
33 34 36 52 13 90 -25 43 -43 49 -94 36z"/>
<path d="M6940 9611 c-12 -8 -10 -12 10 -19 78 -30 212 -186 280 -324 32 -66
39 -73 69 -68 8 1 17 -4 22 -11 6 -10 16 -10 44 -2 39 12 83 3 97 -20 11 -18
-1 -27 -37 -27 -76 0 -102 -114 -40 -176 47 -47 136 -57 205 -21 93 46 115
137 64 265 -69 172 -215 307 -394 365 -111 36 -291 58 -320 38z"/>
<path d="M826 22434 c-9 -24 -7 -54 4 -54 6 0 10 16 10 35 0 38 -4 44 -14 19z"/>
<path d="M15240 22446 c0 -16 35 -62 93 -118 48 -48 67 -62 67 -49 0 25 -18
58 -65 120 -31 40 -45 51 -67 51 -15 0 -28 -2 -28 -4z"/>
<path d="M731 22424 c0 -11 3 -14 6 -6 3 7 2 16 -1 19 -3 4 -6 -2 -5 -13z"/>
<path d="M15000 22411 c0 -17 5 -31 10 -31 6 0 10 11 10 24 0 14 -4 28 -10 31
-6 4 -10 -7 -10 -24z"/>
<path d="M15102 22420 c0 -14 2 -19 5 -12 2 6 2 18 0 25 -3 6 -5 1 -5 -13z"/>
<path d="M705 22387 c-4 -10 -5 -21 -1 -24 10 -10 18 4 13 24 -4 17 -4 17 -12
0z"/>
<path d="M612 22355 c0 -16 2 -22 5 -12 2 9 2 23 0 30 -3 6 -5 -1 -5 -18z"/>
<path d="M15222 22350 c0 -14 2 -19 5 -12 2 6 2 18 0 25 -3 6 -5 1 -5 -13z"/>
<path d="M488 21803 c-2 -5 -1 -24 3 -43 l6 -35 2 43 c1 39 -3 52 -11 35z"/>
<path d="M15342 21770 c0 -14 2 -19 5 -12 2 6 2 18 0 25 -3 6 -5 1 -5 -13z"/>
<path d="M510 21693 c0 -18 5 -33 10 -33 13 0 13 30 0 50 -7 11 -10 7 -10 -17z"/>
<path d="M14854 20976 c-16 -42 63 -85 130 -72 26 6 106 66 106 81 0 10 -109
5 -115 -5 -3 -5 -17 -10 -31 -10 -13 0 -24 5 -24 10 0 16 -60 12 -66 -4z"/>
<path d="M14920 1094 c-58 -21 -75 -41 -65 -75 8 -24 75 -28 75 -4 0 12 6 12
48 0 53 -17 98 -19 106 -7 3 5 -12 26 -33 46 -38 37 -93 54 -131 40z"/>
<path d="M510 310 c0 -25 4 -39 10 -35 6 3 10 19 10 35 0 16 -4 32 -10 35 -6
4 -10 -10 -10 -35z"/>
<path d="M490 248 c0 -13 -7 -36 -15 -52 -10 -18 -15 -57 -15 -112 0 -78 1
-84 21 -84 15 0 19 5 15 18 -8 27 -8 110 0 185 4 37 4 67 0 67 -3 0 -6 -10 -6
-22z"/>
<path d="M15342 225 c0 -16 2 -22 5 -12 2 9 2 23 0 30 -3 6 -5 -1 -5 -18z"/>
<path d="M15354 81 c-9 -75 -8 -81 8 -81 16 0 18 9 18 68 0 100 -15 108 -26
13z"/>
</g>
</svg>
