<?xml version="1.0" standalone="no"?>
<!DOCTYPE svg PUBLIC "-//W3C//DTD SVG 20010904//EN"
 "http://www.w3.org/TR/2001/REC-SVG-20010904/DTD/svg10.dtd">
<svg version="1.0" xmlns="http://www.w3.org/2000/svg"
 width="4242.000000pt" height="5239.000000pt" viewBox="0 0 4242.000000 5239.000000"
 preserveAspectRatio="xMidYMid meet">

<g transform="translate(0.000000,5239.000000) scale(0.100000,-0.100000)"
fill="#000000" stroke="none">
<path d="M0 52245 l0 -145 133 1 c72 1 143 5 157 9 17 5 19 8 8 9 -21 1 -24
17 -5 24 9 4 10 6 0 6 -10 1 -13 32 -13 121 l0 120 -140 0 -140 0 0 -145z"/>
<path d="M42064 52270 c0 -69 1 -97 3 -62 2 34 2 90 0 125 -2 34 -3 6 -3 -63z"/>
<path d="M42160 52270 l0 -120 -27 -1 c-17 -1 -21 -3 -10 -6 20 -5 23 -23 5
-24 -7 -1 -2 -5 12 -9 14 -4 82 -8 153 -9 l127 -1 0 145 0 145 -130 0 -130 0
0 -120z"/>
<path d="M14350 50109 c-853 -55 -1459 -168 -2168 -404 -528 -176 -1186 -474
-1393 -629 -224 -169 -383 -403 -539 -795 -224 -562 -402 -1141 -499 -1617
-82 -401 -158 -1017 -191 -1554 -6 -96 -19 -230 -28 -297 l-17 -121 -130 -157
c-297 -359 -454 -591 -554 -818 -89 -205 -96 -348 -19 -442 42 -50 101 -78
169 -79 l55 -1 -22 -56 c-13 -31 -33 -103 -44 -160 -29 -139 -25 -377 9 -480
38 -119 138 -201 225 -185 41 8 87 44 126 98 l27 37 13 -72 c27 -154 132 -379
251 -537 38 -51 68 -94 67 -95 -2 -1 -21 -12 -43 -23 -222 -111 -378 -371
-415 -687 -29 -258 6 -514 100 -735 70 -164 144 -277 266 -410 191 -206 486
-320 691 -267 l51 13 6 -59 c3 -33 6 -83 6 -111 0 -28 7 -109 15 -181 63 -533
271 -1019 626 -1460 583 -724 1499 -1271 2751 -1644 280 -83 523 -151 543
-151 24 0 18 -13 -22 -52 -71 -67 -113 -82 -243 -82 -63 -1 -145 3 -182 7
l-66 8 -7 39 c-10 61 -20 65 -143 50 -161 -18 -509 -77 -563 -95 -49 -17 -109
-72 -109 -100 0 -8 -5 -15 -11 -15 -46 0 -298 63 -522 130 -147 44 -312 89
-365 99 -304 62 -612 63 -1182 5 -467 -47 -536 -54 -700 -63 -91 -6 -345 -15
-565 -21 -820 -21 -1154 -32 -1300 -41 -82 -5 -355 -16 -606 -24 -252 -8 -504
-17 -561 -21 l-104 -7 22 144 c13 79 34 209 48 289 14 80 39 267 56 415 17
149 56 414 85 590 67 393 124 792 167 1155 26 230 32 313 32 505 1 244 -9 321
-53 433 -12 29 -30 76 -42 105 -22 55 -64 112 -138 186 l-44 45 25 20 c279
230 382 295 621 395 262 109 441 149 725 162 215 9 269 18 343 55 92 46 148
152 134 254 -9 63 -59 168 -119 247 -92 122 -276 276 -411 346 -137 70 -365
95 -540 58 -157 -32 -364 -142 -557 -295 -60 -48 -95 -70 -99 -63 -4 7 -12 46
-19 87 -6 41 -21 125 -32 185 -41 213 -28 404 61 910 68 387 159 1153 177
1488 15 273 -48 512 -167 635 -54 57 -105 81 -187 88 -61 6 -76 4 -125 -19
-148 -68 -263 -279 -331 -608 -14 -68 -41 -248 -61 -399 -48 -370 -57 -426
-109 -630 -36 -142 -183 -440 -217 -440 -15 0 -52 119 -80 260 -37 187 -79
478 -124 860 -69 583 -119 803 -240 1058 -43 89 -67 125 -113 171 -68 68 -101
81 -212 81 -171 0 -279 -101 -354 -332 -51 -158 -61 -250 -61 -558 1 -159 8
-389 18 -520 27 -390 29 -456 18 -690 -9 -199 -19 -303 -36 -378 -4 -17 -57
80 -210 385 -195 387 -205 410 -205 464 0 31 -7 74 -16 95 -35 84 -209 423
-250 487 -24 37 -40 67 -36 67 4 0 -1 5 -10 11 -22 12 -24 33 -2 25 9 -3 12
-2 9 5 -4 6 -13 8 -20 5 -8 -3 -27 14 -47 41 -18 24 -50 62 -70 83 -21 21 -38
46 -38 56 0 13 -3 15 -8 7 -6 -9 -17 -5 -43 16 -27 22 -52 32 -112 41 -95 14
-125 8 -166 -32 -150 -146 -124 -468 103 -1298 31 -113 76 -270 100 -350 63
-207 114 -406 122 -470 7 -50 6 -54 -9 -41 -9 7 -14 17 -11 22 3 5 -5 9 -16 9
-16 0 -20 5 -16 15 3 10 -27 49 -87 111 -51 53 -92 105 -92 115 0 10 -15 32
-34 48 -42 37 -53 41 -21 6 13 -14 20 -25 15 -25 -12 0 -54 48 -47 54 6 7 -27
46 -40 46 -5 0 -6 -5 -2 -12 4 -7 3 -8 -5 -4 -6 4 -9 12 -5 17 6 10 -48 66
-132 140 -44 39 -73 76 -38 49 18 -14 18 -14 5 3 -8 10 -23 16 -35 15 -15 -2
-20 2 -18 14 2 12 -3 15 -18 11 -12 -3 -20 0 -20 6 0 7 5 9 10 6 6 -3 10 -4
10 -2 0 9 -78 46 -84 40 -3 -4 -6 -1 -6 5 0 6 -15 15 -32 21 -69 22 -334 71
-387 71 -70 0 -137 -31 -168 -78 -68 -103 -17 -336 135 -605 67 -119 149 -214
428 -497 298 -302 339 -347 395 -434 59 -89 74 -144 108 -372 36 -243 72 -375
142 -523 27 -57 48 -105 47 -105 -2 -1 -36 -23 -76 -50 -93 -62 -160 -143
-222 -271 -102 -207 -146 -460 -250 -1430 -58 -542 -83 -734 -145 -1115 -100
-622 -120 -824 -120 -1230 0 -248 4 -344 18 -450 86 -640 256 -1134 564 -1645
263 -435 372 -586 552 -766 144 -144 234 -208 406 -289 212 -101 354 -140 925
-254 645 -129 838 -154 1295 -163 512 -10 828 21 1420 141 458 93 525 109
1060 251 232 62 545 119 531 97 -8 -13 -89 -492 -125 -742 -66 -448 -110 -834
-201 -1753 -33 -335 -85 -832 -115 -1105 -58 -533 -95 -916 -121 -1267 -21
-297 -30 -1072 -15 -1343 23 -403 77 -845 146 -1201 19 -97 35 -177 35 -178 0
-1 -52 -41 -115 -88 -194 -145 -206 -177 -173 -433 18 -137 23 -225 22 -387 0
-254 -8 -295 -119 -636 -204 -626 -329 -1169 -390 -1692 -17 -146 -17 -149 2
-175 21 -29 265 -197 378 -260 39 -21 129 -65 202 -97 122 -53 131 -59 123
-79 -4 -11 -55 -121 -113 -243 -286 -601 -354 -802 -556 -1648 -70 -293 -396
-1716 -440 -1920 -122 -569 -204 -1100 -236 -1527 -26 -348 -32 -407 -69 -613
-54 -309 -113 -556 -236 -995 -85 -303 -144 -537 -266 -1059 -157 -672 -205
-849 -394 -1466 -249 -809 -371 -1279 -396 -1526 -3 -37 -9 -71 -13 -76 -3 -5
-36 -32 -73 -61 -87 -69 -204 -195 -247 -267 -52 -85 -70 -149 -71 -238 l0
-79 -57 32 c-158 89 -284 188 -517 406 -300 281 -441 403 -657 566 -559 424
-1082 656 -1598 709 -141 14 -403 7 -526 -16 -118 -21 -277 -75 -379 -128
-313 -162 -605 -537 -745 -956 -96 -285 -101 -576 -17 -858 92 -306 248 -580
589 -1033 236 -313 313 -404 676 -800 151 -164 420 -430 526 -518 50 -41 95
-81 101 -88 6 -8 15 -14 20 -14 5 -1 36 -26 69 -56 33 -30 72 -62 86 -69 15
-8 29 -21 32 -30 4 -8 12 -15 19 -15 8 0 20 -8 29 -17 8 -10 37 -36 64 -58 26
-22 55 -48 63 -57 9 -9 19 -15 24 -12 4 3 8 -1 8 -8 0 -7 9 -18 19 -23 21 -11
158 -119 206 -164 17 -15 53 -43 80 -61 28 -19 82 -59 120 -90 284 -230 661
-487 972 -664 494 -280 890 -427 1538 -571 163 -36 570 -114 675 -130 506 -75
672 -89 975 -82 377 9 621 60 870 183 376 185 625 539 706 1002 26 148 27 412
4 587 -14 109 -64 358 -79 395 -6 14 7 16 91 15 90 0 104 3 166 32 135 64 277
236 401 485 75 152 98 242 98 383 0 176 -27 250 -234 651 -132 254 -181 442
-182 699 -1 158 0 162 42 323 92 348 172 544 393 967 147 281 279 550 541
1100 110 231 338 695 507 1030 377 749 444 913 501 1235 37 209 39 620 4 925
l-6 50 84 38 c153 69 235 169 258 312 14 85 8 153 -27 305 l-25 116 95 126
c250 333 464 678 890 1438 112 201 278 496 369 655 215 378 386 685 482 865
162 302 276 440 421 510 134 65 129 66 226 -39 234 -255 481 -663 632 -1046
148 -378 250 -777 317 -1244 60 -418 65 -478 65 -791 0 -337 -3 -358 -90 -720
-91 -380 -90 -374 -89 -585 0 -149 6 -232 27 -385 46 -338 50 -435 43 -1075
-11 -980 -25 -1697 -42 -2135 -20 -500 -22 -1078 -5 -1285 7 -82 27 -272 46
-421 48 -379 58 -523 53 -719 l-5 -170 -63 -125 c-181 -360 -290 -706 -290
-917 0 -153 51 -287 139 -365 57 -50 80 -59 151 -59 l57 -1 -5 -53 c-6 -77 16
-433 39 -619 36 -298 127 -755 184 -931 110 -336 348 -601 660 -733 75 -32
104 -44 120 -47 6 -2 35 -10 65 -20 30 -9 66 -19 80 -21 14 -2 39 -8 55 -13
29 -9 28 -9 -15 -11 -25 -1 -56 -2 -70 -1 -69 2 294 -88 460 -114 327 -52 487
-66 810 -72 330 -6 501 2 890 42 374 39 584 73 800 129 54 14 52 14 -108 14
-90 0 -165 2 -168 4 -7 8 126 30 141 24 9 -3 14 -2 11 3 -3 4 41 20 97 36 373
102 657 255 867 466 312 314 409 757 253 1154 -62 159 -150 299 -350 562 -67
89 -154 210 -193 269 -77 119 -228 409 -218 419 3 4 39 13 79 21 144 30 252
87 342 180 63 66 91 109 143 218 63 135 78 200 77 341 -1 152 -25 238 -128
455 -182 384 -200 595 -111 1335 52 427 64 774 47 1295 -6 190 -18 557 -26
815 -14 442 -24 611 -60 1050 -77 919 -71 1330 26 1900 25 144 30 199 26 275
-6 126 -30 195 -127 370 -89 162 -115 222 -137 325 -22 103 -12 189 51 455 99
420 112 527 122 990 7 320 -5 708 -37 1225 -10 176 -33 559 -49 850 -60 1058
-99 1466 -188 1951 l-19 101 88 32 c94 35 119 54 119 92 0 13 -16 85 -36 159
-20 74 -38 144 -41 155 -3 16 36 56 184 186 103 92 211 187 238 212 28 24 95
84 150 133 55 48 114 100 130 115 17 15 55 48 85 75 30 26 57 50 60 53 21 25
192 162 197 158 3 -3 5 -35 5 -71 0 -52 -8 -83 -38 -153 -81 -192 -87 -217
-80 -333 3 -58 10 -132 16 -165 39 -229 -13 -422 -192 -704 -223 -353 -242
-389 -288 -549 -22 -78 -24 -236 -3 -307 37 -124 114 -213 236 -270 139 -66
297 -66 437 1 163 77 345 321 439 588 17 49 45 166 62 260 31 175 65 310 77
304 55 -25 150 -85 238 -151 148 -111 337 -303 594 -602 358 -417 501 -560
734 -734 80 -60 240 -150 250 -140 3 3 3 44 -1 91 l-6 85 -51 25 c-144 71
-407 318 -726 683 -407 464 -624 655 -892 783 -54 26 -98 51 -98 56 0 6 12 23
27 38 36 38 10 36 -41 -2 -80 -60 -122 -144 -166 -327 -82 -340 -208 -586
-386 -753 -151 -141 -306 -164 -457 -68 -180 115 -204 294 -75 553 22 44 90
157 151 250 247 378 306 562 273 863 -17 158 -12 228 30 367 15 50 38 125 50
169 13 43 24 93 24 112 0 45 -19 129 -40 178 l-17 41 106 110 c58 61 171 191
251 290 186 232 224 275 448 518 103 111 212 230 242 264 l55 62 145 -99 c455
-310 514 -345 714 -420 114 -43 111 -44 118 40 l3 43 -80 29 c-114 42 -289
127 -384 188 l-82 53 48 26 c321 179 477 276 599 371 l62 48 6 -101 c17 -251
65 -658 92 -775 20 -88 58 -165 102 -203 68 -60 199 -105 357 -124 79 -9 404
-27 480 -26 89 2 389 -25 785 -69 600 -67 1152 -112 1179 -96 5 3 12 -16 16
-42 26 -185 81 -394 125 -483 27 -52 119 -149 142 -149 5 0 -5 12 -24 28 -55
46 -77 74 -112 147 -41 83 -54 132 -106 394 -21 110 -53 235 -69 278 -33 84
-68 125 -168 197 -28 20 -87 74 -130 120 -64 67 -92 108 -143 206 -75 145
-101 168 -229 206 -403 120 -482 180 -565 428 -58 174 -71 263 -70 496 0 203
2 221 28 315 87 319 295 583 572 726 41 21 85 39 98 39 12 0 60 -24 107 -54
377 -239 797 -393 1408 -516 110 -22 208 -40 218 -39 10 0 -74 20 -187 43
-301 63 -482 110 -695 181 -299 99 -508 196 -685 315 -97 66 -201 128 -183
109 10 -10 -5 -22 -78 -61 -320 -168 -520 -431 -600 -788 -55 -244 -21 -591
82 -848 16 -41 27 -78 23 -83 -10 -18 -124 -90 -203 -129 -179 -89 -288 -108
-404 -69 -100 34 -266 118 -283 145 -9 14 -26 24 -39 24 -23 0 -178 104 -325
218 -130 102 -233 193 -372 331 -70 69 -130 123 -132 120 -3 -3 -8 -43 -12
-89 -6 -82 -8 -86 -48 -128 -62 -66 -339 -282 -360 -282 -2 0 -40 -22 -83 -48
-43 -27 -103 -62 -133 -79 -66 -36 -107 -60 -177 -101 l-53 -31 -77 53 c-43
30 -109 70 -148 91 -38 20 -72 38 -74 41 -6 6 139 174 229 265 215 216 424
320 652 323 54 0 98 4 98 8 0 28 -244 27 -355 -2 -223 -58 -462 -225 -699
-490 -174 -194 -512 -603 -752 -910 -67 -85 -153 -190 -190 -232 -38 -42 -134
-150 -214 -239 -176 -198 -185 -207 -340 -339 -148 -125 -494 -467 -604 -597
-43 -51 -82 -91 -86 -88 -4 2 -10 40 -14 82 -16 194 -83 524 -167 821 -63 223
-275 858 -367 1102 -38 102 -123 322 -187 490 -193 504 -292 817 -355 1127
-22 109 -25 145 -19 200 19 169 29 384 29 645 0 306 -10 504 -40 807 -18 179
-19 199 -4 270 24 116 69 244 130 366 64 127 63 126 129 225 52 78 54 81 83
117 9 12 26 34 37 49 11 15 45 57 75 93 51 62 48 59 -58 -39 -194 -181 -345
-363 -416 -505 -24 -47 -31 -54 -37 -39 -4 10 -30 159 -58 329 -28 171 -69
416 -91 545 -23 129 -66 381 -96 560 -30 179 -80 449 -111 600 l-55 275 -8
680 c-9 727 -12 782 -66 1038 -61 291 -169 617 -345 1045 -59 143 -79 177 -79
133 0 -38 63 -261 145 -510 139 -425 186 -601 227 -856 22 -134 9 -1039 -14
-975 -3 8 -73 218 -155 465 -196 585 -413 1222 -413 1212 0 -38 122 -482 260
-942 227 -761 307 -1071 336 -1297 16 -135 40 -257 53 -272 11 -13 50 -242
121 -696 28 -179 84 -523 125 -765 172 -1016 210 -1379 209 -1990 0 -495 -24
-747 -110 -1185 -48 -245 -164 -678 -220 -824 -3 -9 -2 -16 3 -16 14 0 102
193 162 352 79 212 171 547 196 721 10 65 21 67 29 4 23 -173 76 -343 297
-955 490 -1352 671 -1938 763 -2462 21 -120 56 -371 56 -403 0 -13 -72 -40
-105 -39 -79 3 -888 -289 -1600 -575 -535 -215 -767 -299 -1015 -368 -569
-156 -1404 -222 -2495 -195 -242 6 -892 15 -1445 20 -1640 15 -1829 31 -2871
250 -692 144 -1113 236 -1273 276 -190 48 -506 153 -641 214 -11 5 -42 19 -70
31 -74 32 -237 114 -338 171 l-89 50 7 57 c54 463 155 925 335 1531 146 488
159 536 174 643 27 178 15 436 -29 645 -20 95 -19 168 3 214 9 20 58 79 109
133 l92 96 10 -38 c5 -21 26 -101 46 -178 74 -287 218 -682 332 -909 60 -120
166 -307 215 -378 39 -59 70 -74 82 -42 4 10 -40 129 -108 293 -159 383 -218
536 -291 756 -251 758 -369 1713 -336 2710 20 595 50 963 161 1980 22 198 64
605 95 905 216 2118 310 2700 585 3621 90 300 152 473 210 589 44 89 131 218
174 259 34 33 47 61 27 61 -16 0 -105 -75 -149 -126 -107 -120 -198 -297 -303
-584 -144 -396 -231 -681 -304 -995 -20 -88 -38 -165 -40 -172 -2 -6 -36 -14
-82 -17 -298 -23 -436 -44 -778 -122 -671 -151 -1231 -253 -1575 -285 -172
-17 -641 -16 -830 0 -579 49 -1541 230 -1841 346 -306 118 -479 279 -764 710
-198 300 -244 378 -374 637 -210 417 -329 812 -383 1273 -8 70 -13 231 -13
440 1 430 17 590 130 1300 62 389 79 519 135 1060 23 215 50 460 61 545 37
293 103 670 118 670 3 0 21 -23 40 -51 80 -117 280 -266 522 -389 307 -156
602 -244 989 -297 110 -15 201 -18 495 -18 392 1 503 10 704 61 253 64 444
188 549 357 23 39 38 54 42 45 4 -7 10 -96 13 -198 5 -173 3 -211 -39 -585
-47 -425 -68 -564 -163 -1095 -33 -184 -69 -414 -81 -510 -50 -421 -63 -509
-91 -621 -16 -65 -33 -127 -38 -136 -5 -10 -14 -43 -20 -73 -51 -272 -101
-435 -227 -749 -86 -212 -101 -261 -77 -261 11 0 102 122 147 197 69 116 156
312 208 465 27 84 52 155 54 157 8 8 45 -48 90 -132 124 -239 171 -514 162
-953 -3 -129 -2 -234 2 -234 4 0 14 33 23 73 32 147 40 248 34 457 -8 312 -59
598 -131 745 -19 38 -33 71 -31 73 5 5 362 19 795 32 201 6 525 17 720 25 195
8 598 24 895 35 695 26 1008 48 1600 111 247 26 550 35 683 20 142 -15 222
-33 466 -102 273 -78 387 -105 516 -124 58 -8 110 -15 116 -15 6 0 14 -24 18
-53 18 -161 155 -449 307 -649 130 -170 404 -430 564 -534 97 -63 175 -101
406 -198 l169 -71 4 -190 c3 -140 11 -234 30 -355 14 -91 42 -286 61 -435 20
-148 56 -403 81 -565 25 -162 52 -375 60 -474 28 -342 84 -476 198 -476 53 0
94 28 186 126 80 85 133 183 193 359 25 72 83 209 130 305 95 195 283 587 418
873 97 204 165 364 224 523 l37 101 76 -20 c114 -29 379 -29 517 1 165 35 290
82 495 183 306 152 463 265 733 532 160 158 225 241 262 336 20 52 23 56 51
53 106 -12 319 -71 419 -117 232 -106 412 -215 595 -361 116 -93 406 -384 522
-524 207 -250 405 -532 591 -841 200 -333 329 -585 662 -1289 290 -615 478
-982 818 -1600 133 -243 693 -1240 829 -1476 l64 -112 18 119 19 118 -78 138
c-42 76 -89 158 -102 183 -14 25 -85 151 -158 280 -224 398 -406 725 -635
1145 -173 317 -454 878 -720 1440 -216 455 -357 732 -540 1060 -56 99 -170
288 -196 322 -13 17 -24 35 -24 38 0 15 -191 283 -317 445 -125 161 -329 382
-481 523 -391 362 -767 572 -1177 658 -49 10 -104 19 -122 19 -23 0 -33 6 -38
20 -12 38 -71 70 -221 119 -348 116 -533 143 -634 91 l-37 -19 -44 28 c-54 34
-121 106 -148 159 -27 53 -45 126 -37 156 5 21 13 25 64 31 1064 122 2019 451
2757 949 553 373 971 851 1201 1375 156 355 215 555 249 851 18 150 18 386 1
530 -7 58 -12 106 -12 107 1 1 28 -5 61 -13 440 -103 924 336 1047 948 30 151
33 447 5 578 -75 347 -297 589 -595 646 -40 8 -76 14 -78 14 -2 0 12 28 32 63
78 138 138 296 156 413 l11 72 28 -37 c32 -45 74 -79 106 -87 36 -9 110 23
139 61 51 68 67 136 72 315 4 176 -8 278 -48 394 l-19 56 37 0 c45 0 111 29
141 61 67 72 75 207 20 372 -40 121 -170 368 -284 537 l-112 167 46 -14 c51
-15 112 -9 148 14 38 25 65 96 70 186 7 109 -14 712 -33 957 -69 901 -237
1628 -541 2358 -4 8 6 12 32 12 45 0 46 -6 -45 185 -38 77 -71 150 -75 163 -3
12 -10 20 -14 17 -5 -2 -17 15 -27 38 -10 23 -21 44 -24 47 -4 3 -21 26 -39
53 l-32 47 36 0 c19 0 35 3 35 8 0 8 -19 38 -69 107 -26 37 -31 49 -21 58 9 8
11 8 7 1 -4 -7 3 -11 18 -11 31 0 31 5 -1 42 -14 17 -37 43 -51 59 -19 23 -32
29 -64 29 -22 0 -42 4 -46 10 -4 6 9 8 38 4 l44 -5 -79 75 c-53 50 -75 77 -67
82 9 6 8 11 -3 20 -8 7 -20 10 -26 6 -5 -3 -24 4 -41 16 -27 19 -29 23 -15 31
12 7 23 5 34 -4 13 -9 12 -7 -2 10 -20 23 -42 31 -30 10 4 -8 3 -10 -2 -5 -5
5 -9 12 -9 16 0 10 -60 61 -70 61 -5 0 -23 11 -40 25 -18 13 -35 21 -39 18 -3
-4 -6 -2 -6 4 0 6 -13 16 -30 23 -35 14 -41 34 -7 25 l22 -6 -23 14 c-12 7
-19 17 -15 22 4 4 2 5 -5 1 -7 -4 -9 -12 -6 -18 5 -8 1 -9 -10 -5 -10 4 -20 7
-22 7 -3 0 -2 5 1 11 4 6 1 9 -7 7 -21 -5 -98 33 -91 45 3 6 1 7 -5 3 -13 -8
-112 41 -112 55 0 5 5 9 10 9 6 0 10 -4 10 -10 0 -5 8 -10 17 -10 15 0 14 3
-4 15 -12 9 -26 15 -30 14 -4 -1 -17 -1 -28 0 -17 1 -18 3 -5 11 13 9 13 10 0
11 -8 1 -22 3 -30 4 -8 1 -21 3 -28 4 -7 0 -11 5 -8 10 4 5 -4 7 -16 3 -14 -3
-19 -1 -14 6 3 6 1 14 -5 18 -8 4 -9 3 -5 -4 4 -7 1 -12 -9 -12 -9 0 -13 4
-10 10 3 5 0 7 -9 4 -22 -8 -42 6 -25 17 11 7 9 9 -6 9 -11 0 -29 7 -39 15
-24 18 -40 20 -30 3 5 -8 0 -9 -17 -5 -13 4 -28 7 -34 8 -5 0 1 5 15 10 24 8
24 8 -5 7 -56 -1 -66 2 -59 14 5 7 2 9 -7 6 -8 -3 -31 1 -50 10 -39 18 -43 19
-66 21 -16 2 -16 3 1 10 20 8 26 5 -176 82 -56 22 -82 37 -75 42 8 6 6 7 -6 3
-10 -3 -84 19 -165 49 -81 30 -138 54 -127 55 36 1 -3 16 -175 65 -91 26 -170
51 -176 56 -6 5 -14 6 -17 2 -4 -3 -13 -1 -20 5 -8 7 -16 10 -18 7 -3 -2 -48
7 -100 21 -51 14 -104 25 -116 25 -13 -1 -23 4 -23 10 0 5 -5 7 -10 4 -6 -4
-17 -1 -25 5 -8 7 -21 10 -29 7 -8 -3 -16 -2 -18 2 -2 4 -102 27 -223 50 -121
22 -243 46 -271 52 -28 5 -62 12 -75 14 -77 13 -220 35 -254 40 -76 10 -180
24 -290 40 -60 8 -168 22 -240 30 -71 8 -146 17 -165 20 -19 2 -138 13 -265
24 -216 19 -326 28 -850 67 -242 19 -1660 28 -1895 13z m1365 -179 c1111 -53
2265 -237 3430 -546 619 -164 1030 -336 1405 -586 241 -161 512 -413 668 -620
399 -531 651 -1290 772 -2326 45 -381 104 -1225 98 -1399 -3 -90 -6 -105 -25
-125 l-22 -22 -53 25 c-29 13 -122 66 -208 117 -191 115 -881 461 -1125 565
-690 293 -1376 490 -2165 622 -600 101 -1159 153 -1990 185 -275 11 -521 23
-1310 65 -750 40 -900 45 -1400 52 -1553 19 -2457 -135 -3324 -569 -244 -122
-387 -220 -556 -383 -102 -98 -142 -125 -188 -125 -73 0 -84 76 -35 230 39
119 49 186 68 446 42 561 147 1156 295 1669 18 61 38 130 45 155 32 112 144
443 212 630 140 380 253 567 497 819 246 253 480 409 815 543 799 319 1821
521 2931 577 232 12 926 12 1165 1z m5349 -1086 c9 -3 14 -10 11 -14 -3 -5 -1
-11 5 -15 5 -3 10 -11 10 -17 0 -6 -11 1 -24 15 -13 14 -26 23 -29 21 -3 -3
-8 -1 -12 5 -7 12 14 15 39 5z m126 -114 c0 -5 -4 -10 -10 -10 -5 0 -10 5 -10
10 0 6 5 10 10 10 6 0 10 -4 10 -10z m124 -206 c5 -14 4 -15 -9 -4 -17 14 -19
20 -6 20 5 0 12 -7 15 -16z m73 -59 c0 -10 -4 -11 -19 -2 -10 7 -18 15 -18 18
0 4 8 5 18 2 10 -2 19 -10 19 -18z m-7042 -2695 c354 -11 580 -22 1158 -56
345 -19 553 -25 1065 -29 351 -2 709 -9 797 -15 562 -36 1116 -125 1819 -291
363 -86 526 -134 921 -271 20 -6 58 -45 111 -112 334 -416 576 -998 663 -1591
62 -420 51 -728 -49 -1407 -55 -376 -74 -654 -60 -867 17 -250 49 -405 180
-866 153 -540 174 -661 174 -980 -1 -202 -4 -248 -27 -375 -39 -217 -111 -444
-208 -657 -12 -27 -37 -84 -56 -128 -83 -195 -240 -468 -363 -633 -85 -115
-260 -294 -385 -395 -284 -229 -873 -565 -1250 -714 -589 -232 -1202 -368
-1965 -435 -221 -19 -895 -16 -1150 6 -1327 112 -2649 500 -3545 1039 -160 96
-413 270 -530 364 -18 15 -118 97 -155 127 -76 64 -339 336 -411 426 -263 329
-424 645 -519 1016 -56 218 -80 393 -87 634 -10 367 22 569 198 1266 185 734
207 863 216 1254 6 268 0 397 -42 895 -14 160 -29 383 -35 498 -39 725 146
1373 557 1959 41 59 83 110 92 112 39 12 281 58 451 85 794 128 1526 170 2435
141z m-8767 -1299 c70 -36 113 -94 167 -226 77 -186 131 -457 210 -1060 103
-793 151 -984 274 -1103 92 -89 122 -83 204 40 115 174 194 374 241 608 14 69
43 274 66 455 42 341 76 533 111 639 63 188 189 336 286 336 43 0 98 -51 133
-124 91 -192 98 -402 31 -1046 -47 -461 -64 -595 -115 -911 -19 -119 -40 -274
-47 -343 -14 -158 -7 -438 16 -561 15 -87 67 -305 79 -335 4 -11 -16 -29 -67
-62 -89 -58 -180 -135 -169 -142 11 -7 126 48 212 101 36 22 70 42 75 44 6 2
80 51 165 107 181 121 362 214 474 242 95 24 233 26 324 5 186 -44 394 -198
537 -400 50 -69 85 -148 85 -191 0 -81 -57 -103 -293 -114 -412 -20 -677 -79
-941 -212 -175 -87 -257 -147 -457 -330 -179 -164 -250 -223 -360 -295 -134
-88 -302 -166 -442 -206 -122 -35 -145 -47 -132 -67 13 -20 236 -7 315 19 36
11 68 21 72 21 3 0 -2 -22 -13 -50 -33 -87 -37 -114 -54 -352 -4 -49 -10 -88
-13 -88 -4 0 -39 -7 -77 -15 -127 -27 -168 -30 -410 -30 -255 1 -384 14 -680
71 -235 45 -648 163 -678 193 -6 6 -6 26 1 54 9 35 42 233 42 251 0 2 30 -5
66 -16 78 -23 145 -28 151 -11 3 7 -29 29 -74 52 -253 127 -473 332 -605 566
-90 158 -140 313 -183 565 -60 355 -112 444 -447 762 -270 257 -448 466 -528
619 -92 176 -135 378 -94 437 59 85 344 -70 639 -349 66 -62 183 -174 260
-249 197 -190 299 -270 345 -270 20 0 46 7 59 17 23 16 24 19 17 122 -9 151
-31 250 -151 680 -120 432 -234 889 -260 1036 -24 136 -25 348 -1 393 27 53
65 43 141 -36 95 -98 184 -249 370 -627 100 -203 249 -491 332 -640 83 -148
166 -302 186 -341 34 -67 112 -170 141 -186 8 -5 24 -4 37 0 18 7 27 27 51
123 89 357 100 702 43 1309 -45 475 -22 782 75 984 62 130 165 185 258 137z
m-1623 -2440 c3 -5 2 -12 -3 -15 -5 -3 -9 1 -9 9 0 17 3 19 12 6z m73 -136
c-3 -3 -9 2 -12 12 -6 14 -5 15 5 6 7 -7 10 -15 7 -18z m6012 -240 c160 -36
271 -109 474 -314 l130 -130 -98 -393 c-114 -463 -150 -633 -172 -823 -9 -77
-18 -149 -20 -160 -8 -46 -180 -78 -296 -55 -251 49 -482 277 -601 595 -58
154 -79 259 -84 433 -8 235 21 385 108 552 127 245 321 348 559 295z m11733 0
c84 -22 134 -50 200 -114 99 -96 169 -227 219 -409 29 -106 32 -405 5 -530
-86 -400 -302 -694 -585 -800 -71 -26 -228 -40 -260 -23 -10 5 -30 11 -47 14
-16 3 -50 16 -74 30 -49 28 -36 -4 -129 317 -29 100 -88 383 -131 630 -11 63
-27 147 -35 185 -8 39 -16 104 -19 144 l-5 75 81 85 c231 247 340 330 498 380
110 34 193 39 282 16z m-17473 -1931 c53 -70 156 -161 249 -222 l83 -55 -7
-146 c-4 -80 -10 -165 -14 -188 l-6 -42 -130 74 c-71 40 -135 78 -141 83 -6 5
-29 21 -52 36 -62 39 -156 135 -182 185 -31 62 -25 127 18 176 29 33 37 51 33
81 -1 11 85 64 104 63 6 0 26 -20 45 -45z m2807 -133 c45 -33 102 -100 128
-150 45 -90 -11 -254 -127 -369 -35 -34 -77 -72 -93 -83 -33 -23 -205 -110
-205 -104 0 2 -19 -5 -42 -15 -24 -10 -55 -21 -70 -24 -15 -2 -32 -7 -38 -11
-19 -12 -21 21 -11 141 13 150 41 256 94 364 34 69 51 92 91 120 27 19 86 63
130 97 45 34 86 62 92 62 6 1 29 -12 51 -28z m7285 -3637 c-1 -27 -7 -116 -12
-199 -14 -213 -13 -255 4 -255 19 0 58 156 91 363 10 64 23 117 28 117 5 0 91
-16 191 -35 630 -121 1301 -173 1896 -146 140 7 263 14 274 17 17 6 18 2 11
-42 -16 -107 -78 -317 -131 -446 -31 -74 -32 -103 -3 -68 25 30 116 210 149
295 13 33 26 63 29 67 4 4 20 -20 36 -53 28 -60 98 -141 163 -190 l33 -24 -28
-40 c-77 -111 -222 -281 -320 -376 -163 -157 -332 -261 -518 -318 -100 -31
-290 -61 -434 -68 -118 -6 -125 -7 -157 -35 -21 -18 -68 -96 -127 -206 -110
-209 -174 -351 -252 -562 -65 -177 -313 -807 -326 -830 -4 -8 -9 -12 -9 -9 0
3 -18 86 -39 185 -65 296 -99 480 -136 736 -52 365 -57 490 -30 733 7 56 5 63
-20 93 -15 18 -32 32 -39 32 -20 0 -204 112 -296 181 -293 216 -473 459 -575
773 -19 60 -35 116 -35 123 0 10 25 13 108 13 221 1 346 55 429 186 15 24 33
42 38 41 6 -2 9 -26 7 -53z m-690 -60 c-2 -30 1 -89 8 -131 61 -382 387 -810
834 -1098 l108 -70 -6 -40 c-16 -98 -18 -174 -8 -264 6 -53 18 -157 26 -231
20 -178 100 -728 126 -866 44 -226 115 -473 151 -518 22 -28 60 -35 76 -13 6
6 27 59 48 117 21 58 91 240 155 405 65 165 144 372 175 460 81 231 146 403
237 633 l81 202 153 0 c169 0 339 19 454 50 176 48 366 168 551 348 113 109
195 217 261 343 78 148 128 199 197 199 54 0 173 -29 371 -91 209 -66 283 -98
300 -128 19 -37 11 -105 -20 -167 -59 -119 -313 -400 -525 -582 -99 -85 -129
-104 -305 -192 -214 -107 -349 -161 -479 -192 -73 -17 -130 -21 -383 -25
l-298 -5 -13 -26 c-8 -15 -34 -63 -58 -107 -25 -44 -79 -154 -121 -245 -42
-91 -128 -274 -192 -406 -63 -133 -167 -359 -230 -502 -142 -321 -350 -739
-403 -809 -21 -28 -56 -66 -78 -83 -36 -29 -81 -48 -90 -38 -7 6 -42 183 -50
248 -3 30 -29 199 -56 375 -28 176 -75 507 -105 735 -30 228 -73 546 -95 705
-23 160 -41 312 -41 338 1 57 -7 64 -152 123 -256 105 -307 127 -376 168 -87
51 -306 230 -434 355 -133 130 -247 292 -350 498 -67 133 -97 229 -98 309 0
74 19 116 64 137 18 8 133 36 255 62 123 25 242 52 265 60 74 23 75 22 70 -41z
m7131 -14196 c11 -41 46 -319 66 -523 36 -353 57 -674 111 -1720 17 -319 39
-713 50 -875 42 -641 47 -961 19 -1275 -22 -248 -45 -361 -155 -765 -34 -122
-37 -148 -38 -265 -1 -162 10 -196 141 -413 51 -85 102 -179 113 -209 42 -111
43 -226 6 -418 -90 -457 -95 -862 -27 -1910 49 -736 68 -1073 81 -1430 12
-332 12 -1005 0 -1140 -5 -55 -16 -170 -24 -255 -8 -85 -20 -249 -26 -365 -19
-367 -46 -608 -101 -885 -33 -168 -110 -470 -165 -642 -13 -41 15 -13 59 60
77 128 154 319 182 450 9 43 16 34 44 -53 12 -38 66 -164 120 -280 54 -115
103 -230 109 -255 20 -84 25 -177 13 -261 -41 -273 -193 -458 -427 -516 -97
-24 -317 -23 -398 1 -79 23 -170 70 -286 147 -100 66 -295 167 -433 223 -242
100 -578 186 -857 221 -550 68 -1059 -83 -1677 -495 -200 -134 -437 -308 -565
-415 -53 -45 -124 -96 -158 -114 -149 -79 -282 -32 -321 113 -17 61 -4 243 25
361 40 161 133 411 213 570 33 66 216 459 238 510 50 119 84 225 73 231 -15 9
-34 -15 -120 -155 -39 -64 -77 -122 -83 -129 -9 -10 -13 23 -18 145 -3 87 -19
266 -36 398 -16 132 -35 317 -43 410 -16 219 -15 1027 2 1350 7 138 16 697 20
1320 5 626 13 1112 19 1155 13 99 14 362 1 491 -6 57 -22 184 -35 281 -38 269
-35 270 52 23 106 -298 137 -422 183 -725 57 -379 105 -572 189 -760 56 -127
137 -253 216 -338 80 -87 91 -67 20 38 -173 254 -257 532 -335 1104 -48 354
-65 419 -186 740 -74 193 -99 281 -119 416 -24 153 -20 208 29 411 96 394 116
585 98 937 -28 549 -137 1154 -293 1629 -186 566 -446 991 -927 1513 -221 240
-461 482 -471 476 -33 -21 93 -199 267 -378 l144 -147 -39 -6 c-104 -16 -168
-44 -253 -111 -140 -110 -288 -340 -700 -1089 -347 -631 -664 -1189 -929
-1640 -166 -282 -465 -765 -473 -765 -9 0 -91 255 -108 335 -7 33 -15 54 -17
47 -9 -25 18 -211 53 -363 66 -293 74 -334 74 -415 0 -70 -4 -89 -31 -142 -35
-71 -99 -132 -188 -180 -45 -24 -62 -30 -65 -20 -2 7 -16 69 -31 138 -48 224
-144 510 -171 510 -8 0 -14 -9 -14 -20 0 -10 27 -178 60 -372 89 -526 94 -574
94 -868 0 -279 -9 -366 -64 -580 -64 -255 -166 -502 -361 -875 -220 -423 -403
-796 -658 -1345 -248 -534 -645 -1349 -663 -1361 -16 -11 -120 -254 -163 -384
-128 -385 -137 -700 -29 -1055 42 -135 78 -221 190 -445 113 -228 144 -321
144 -434 0 -106 -25 -196 -84 -316 -83 -166 -291 -431 -362 -461 -85 -35 -436
98 -657 248 -118 81 -238 188 -338 300 -74 84 -131 158 -353 458 -420 569
-765 891 -1163 1086 -213 104 -407 156 -719 194 -476 58 -551 73 -637 131 -27
17 -59 51 -74 76 -52 89 -17 222 96 363 53 65 149 170 157 170 2 0 3 -50 2
-111 -2 -71 1 -113 7 -116 7 -2 31 88 59 224 101 474 222 928 366 1383 238
751 308 1010 515 1907 114 497 159 685 253 1038 43 165 96 380 118 477 21 97
40 176 42 174 1 -2 7 -62 13 -132 21 -280 91 -713 143 -884 13 -46 47 -67 59
-37 3 7 -3 85 -13 173 -58 507 -74 817 -67 1291 10 694 79 1163 352 2388 63
281 150 679 195 885 166 765 297 1287 401 1595 52 153 177 478 223 579 14 31
26 59 26 62 0 3 8 24 19 47 10 23 36 83 57 132 20 50 39 92 40 94 2 1 45 -11
96 -27 217 -71 384 -113 952 -238 237 -52 553 -122 701 -155 375 -85 524 -114
726 -143 502 -73 877 -93 1864 -101 369 -3 965 -13 1325 -22 682 -16 1416 -14
1685 6 468 35 841 92 1165 177 258 68 475 144 1020 357 190 74 496 190 680
258 184 67 450 166 590 220 140 53 260 97 266 98 7 1 14 -9 17 -21z"/>
<path d="M13680 44943 c-356 -42 -703 -234 -797 -440 -102 -222 -1 -429 207
-427 86 0 180 30 378 120 231 105 281 119 422 119 160 0 209 -18 408 -153 203
-137 266 -166 352 -166 157 1 218 101 159 258 -67 180 -310 410 -579 550 -192
99 -414 156 -550 139z"/>
<path d="M18425 44762 c-226 -60 -421 -166 -618 -336 -69 -59 -183 -192 -220
-256 -34 -59 -61 -163 -52 -206 8 -46 58 -101 103 -114 110 -30 186 -5 381
127 184 125 271 168 366 183 145 23 264 -5 531 -126 194 -88 301 -119 387
-111 77 7 141 46 182 112 28 46 30 55 30 149 0 94 -2 106 -32 167 -109 221
-493 423 -828 435 -109 4 -130 2 -230 -24z"/>
<path d="M13677 43705 c-276 -52 -571 -284 -761 -597 -134 -221 -270 -618
-310 -906 -40 -287 0 -721 88 -956 14 -38 23 -72 20 -78 -3 -5 8 -27 25 -48
17 -21 31 -41 31 -44 0 -2 -23 2 -51 9 -126 33 -291 28 -412 -14 -146 -51
-297 -150 -297 -196 0 -14 6 -28 13 -30 7 -3 50 8 96 25 136 50 212 63 356 63
193 0 339 -38 536 -139 192 -98 346 -211 576 -423 122 -112 153 -135 153 -113
0 26 -223 303 -319 397 -28 27 -51 52 -51 56 0 4 15 3 33 -2 67 -20 226 -39
327 -39 500 0 882 253 1070 709 34 83 35 91 17 91 -7 0 -40 -38 -71 -85 -32
-47 -60 -84 -62 -82 -2 2 7 32 21 66 72 175 115 440 115 697 0 271 -35 499
-111 726 -116 349 -301 609 -556 781 -70 47 -59 48 26 1 131 -72 249 -183 379
-356 36 -49 67 -88 69 -88 6 0 -45 96 -88 168 -48 79 -159 196 -244 257 -183
131 -417 188 -618 150z m349 -86 c320 -209 561 -582 667 -1034 43 -181 60
-332 59 -535 -1 -525 -157 -921 -439 -1109 -423 -283 -900 -277 -1339 17 -79
54 -95 69 -141 144 -98 156 -168 359 -192 553 -16 128 -14 364 4 502 30 231
94 445 205 679 217 460 482 733 790 814 59 16 101 19 195 17 l120 -2 71 -46z"/>
<path d="M13623 43169 c-292 -50 -519 -321 -605 -722 -31 -146 -31 -408 0
-554 93 -429 339 -702 652 -720 158 -10 291 43 421 165 333 313 419 955 188
1416 -52 104 -98 167 -182 248 -136 132 -315 195 -474 167z m205 -91 c52 -16
55 -34 7 -31 -19 1 -35 -3 -35 -8 0 -5 -25 -8 -55 -6 -30 1 -55 -1 -55 -6 0
-4 -4 -6 -8 -3 -16 10 -6 -93 10 -111 10 -10 30 -45 45 -78 26 -56 27 -68 26
-180 -2 -203 -55 -352 -165 -470 -56 -61 -141 -115 -179 -115 -9 0 -23 -8 -30
-17 -10 -11 -10 -14 -1 -9 8 5 12 -2 13 -26 2 -51 13 -111 29 -163 5 -16 12
-45 15 -64 3 -19 9 -41 14 -50 5 -9 6 -22 3 -29 -2 -8 5 -51 16 -95 19 -78 28
-114 57 -235 12 -52 12 -52 -9 -46 -41 12 -142 73 -188 114 -57 50 -130 157
-165 242 -34 84 -79 266 -88 353 -3 39 -14 93 -23 120 -10 33 -16 88 -16 160
-1 151 28 272 102 419 48 96 67 122 142 197 102 101 155 135 231 148 70 13
252 6 307 -11z"/>
<path d="M13649 42988 c10 -13 10 -18 2 -18 -7 0 -9 -4 -6 -10 3 -5 10 -10 15
-10 12 0 6 28 -10 43 -12 10 -12 9 -1 -5z"/>
<path d="M18238 43260 c-151 -38 -272 -106 -393 -221 -88 -84 -148 -170 -205
-295 -47 -103 -45 -101 38 21 127 187 268 325 392 384 22 10 21 9 -4 -11 -262
-203 -433 -469 -525 -820 -52 -196 -63 -278 -68 -514 -8 -353 32 -602 137
-846 21 -49 36 -88 34 -88 -2 0 -31 36 -65 80 -34 44 -68 80 -76 80 -18 0 -18
-1 21 -86 105 -226 292 -426 494 -528 144 -73 343 -116 535 -116 l109 0 -47
-52 c-54 -60 -70 -90 -62 -112 13 -33 33 -24 292 132 273 165 419 225 630 257
226 34 442 13 723 -71 12 -3 22 -2 22 4 0 5 -39 30 -87 55 -199 101 -333 138
-539 146 l-142 6 64 80 c36 44 62 86 59 93 -3 8 6 50 20 94 76 242 91 640 35
933 -55 282 -199 639 -352 870 -67 101 -228 269 -333 347 -90 67 -250 149
-340 173 -97 26 -275 29 -367 5z m362 -51 c299 -82 574 -367 804 -829 230
-464 288 -1003 151 -1406 -45 -130 -121 -268 -172 -314 -110 -96 -314 -204
-488 -256 -127 -38 -354 -45 -496 -16 -154 32 -323 108 -453 204 -149 110
-285 344 -350 605 -172 689 17 1471 453 1876 112 103 182 147 253 157 86 12
212 3 298 -21z"/>
<path d="M18379 42680 c-140 -22 -261 -100 -374 -241 -47 -59 -93 -149 -125
-243 -42 -123 -60 -241 -60 -396 0 -223 41 -410 129 -596 66 -138 119 -215
216 -309 131 -129 259 -191 415 -202 172 -12 349 71 463 215 231 295 274 789
104 1206 -153 375 -472 610 -768 566z m180 -86 c10 -10 -11 -17 -154 -54 -16
-4 -22 -8 -12 -9 10 -1 15 -6 12 -11 -4 -6 -15 -8 -26 -5 -15 5 -19 1 -19 -14
0 -12 3 -20 8 -18 4 1 8 -2 9 -8 1 -5 -8 -9 -20 -7 -21 2 -21 2 3 -14 86 -58
135 -136 157 -249 17 -91 16 -242 -2 -328 -29 -140 -118 -270 -224 -326 -32
-17 -48 -31 -42 -36 7 -4 9 -16 5 -27 -4 -14 -2 -18 5 -14 10 7 16 -12 12 -42
-1 -7 5 -15 13 -18 9 -3 13 -10 10 -15 -3 -5 0 -9 6 -9 6 0 9 -4 5 -9 -3 -5
-1 -20 4 -33 11 -28 22 -61 22 -68 0 -3 7 -12 15 -21 8 -8 15 -28 16 -42 1
-15 5 -27 9 -27 6 0 14 -20 24 -55 2 -10 11 -31 72 -180 13 -33 28 -68 34 -77
18 -34 11 -49 -18 -42 -162 39 -309 153 -401 311 -55 94 -108 219 -134 313
-11 41 -28 93 -38 115 -78 165 -80 390 -6 607 43 125 83 192 176 288 69 72 80
80 147 99 102 30 177 40 258 34 39 -2 72 -7 74 -9z"/>
<path d="M16387 41000 c-94 -82 -89 -207 19 -447 7 -14 3 -16 -80 -32 -79 -14
-171 -59 -226 -109 -52 -48 -44 -52 31 -17 88 40 167 56 274 57 286 1 499
-143 560 -379 20 -77 19 -145 -5 -238 -24 -95 -56 -152 -127 -227 -160 -168
-445 -208 -662 -93 -104 56 -121 41 -47 -42 107 -118 283 -161 468 -114 282
72 488 308 488 557 0 66 -29 193 -56 246 -33 66 -118 171 -178 219 -69 57
-196 121 -273 139 -64 14 -88 40 -140 148 -32 66 -37 89 -41 162 -3 76 -1 90
22 135 32 61 20 77 -27 35z"/>
<path d="M13506 39059 c-77 -70 -149 -181 -171 -262 -14 -54 -15 -69 -5 -82
22 -26 58 -18 76 16 l16 31 28 -34 c36 -44 128 -92 205 -109 105 -22 304 -130
378 -205 80 -81 112 -160 152 -380 34 -190 91 -361 176 -533 147 -297 333
-495 629 -669 435 -256 972 -335 1372 -201 172 57 343 165 501 318 125 120
215 228 410 487 175 235 267 344 384 460 250 247 530 392 798 415 135 11 208
29 304 74 82 39 178 129 220 206 l23 44 -36 -42 c-49 -56 -142 -117 -218 -142
-35 -11 -117 -28 -183 -37 -99 -13 -136 -13 -214 -4 -142 18 -309 62 -586 154
-540 181 -875 237 -1759 296 -472 31 -769 40 -988 30 -254 -12 -386 -30 -658
-90 -124 -28 -272 -57 -330 -66 -125 -19 -300 -14 -377 10 -58 18 -131 69
-151 106 -13 23 -11 31 37 110 29 47 57 92 63 101 15 22 3 49 -21 49 -11 0
-44 -23 -75 -51z m2399 -329 c938 -62 1257 -100 1512 -181 l32 -10 -73 -87
c-127 -150 -190 -199 -316 -244 -59 -21 -81 -23 -250 -22 -199 1 -460 25 -815
74 -115 17 -307 39 -425 50 -353 33 -483 61 -635 135 -50 24 -117 63 -150 88
-72 53 -195 165 -195 177 0 9 34 17 130 31 75 11 987 2 1185 -11z"/>
<path d="M14957 36673 c-18 -17 -1 -45 66 -110 152 -147 345 -243 542 -272 72
-10 288 -8 360 4 127 21 344 94 478 162 53 26 56 47 4 32 -256 -76 -449 -110
-623 -110 -103 0 -259 29 -388 72 -87 30 -206 89 -206 104 0 13 -191 125 -214
125 -7 0 -16 -3 -19 -7z"/>
<path d="M5732 41999 c-325 -24 -744 -140 -1032 -284 -182 -91 -380 -236 -466
-343 -29 -35 -32 -42 -13 -27 199 154 292 211 479 296 69 31 168 77 220 101
172 81 356 133 565 158 58 7 242 13 435 14 286 1 348 -2 425 -17 132 -26 249
-64 337 -108 84 -42 88 -44 88 -29 0 14 -126 86 -221 126 -220 93 -526 136
-817 113z"/>
<path d="M5985 41130 c-321 -68 -574 -254 -701 -514 -47 -95 -51 -115 -32
-134 23 -23 46 -12 85 41 164 217 334 353 520 418 107 37 187 50 348 56 240 8
427 -26 705 -132 129 -50 140 -52 140 -30 0 36 -303 201 -465 253 -55 18 -136
39 -180 46 -119 21 -312 19 -420 -4z"/>
<path d="M9913 41110 c-80 -16 -130 -53 -159 -117 -39 -89 -3 -103 76 -30 68
63 113 82 176 73 86 -11 158 -67 204 -156 24 -46 50 -150 50 -199 l0 -34 -22
20 c-88 80 -282 109 -386 57 -50 -25 -73 -57 -54 -76 6 -6 45 -5 108 3 94 12
104 11 172 -10 98 -29 144 -71 166 -149 9 -32 16 -72 16 -90 0 -34 26 -57 53
-46 48 18 73 241 43 384 -19 91 -82 223 -131 273 -46 47 -115 82 -190 96 -65
12 -63 12 -122 1z"/>
<path d="M21547 41110 c-115 -20 -203 -92 -261 -212 -48 -100 -68 -193 -69
-313 0 -155 35 -249 87 -229 17 7 21 19 31 95 3 26 16 66 28 90 18 36 34 50
89 78 74 37 138 44 271 28 l67 -9 0 26 c0 43 -67 80 -153 84 -108 7 -246 -33
-286 -82 -23 -27 -28 -18 -20 43 23 196 137 331 279 331 45 0 93 -25 155 -82
67 -61 79 -62 73 -3 -13 113 -140 181 -291 155z"/>
<path d="M29993 49413 c15 -2 39 -2 55 0 15 2 2 4 -28 4 -30 0 -43 -2 -27 -4z"/>
<path d="M30081 49416 c2 -2 33 -6 69 -9 42 -4 58 -3 45 3 -19 8 -123 14 -114
6z"/>
<path d="M30231 49407 c3 -4 36 -9 75 -12 75 -6 149 -14 204 -20 19 -3 53 -7
75 -9 71 -8 197 -27 270 -41 11 -2 43 -6 70 -10 28 -3 59 -9 70 -12 11 -4 27
-8 35 -9 8 -2 26 -5 40 -8 14 -3 41 -7 60 -10 19 -4 62 -13 95 -21 33 -9 73
-17 89 -20 70 -11 389 -102 591 -169 202 -67 432 -155 578 -219 31 -15 61 -27
65 -27 4 -1 32 -14 62 -29 30 -16 120 -61 200 -100 80 -39 150 -75 155 -79 6
-4 48 -28 95 -54 47 -25 101 -54 120 -65 19 -11 51 -29 70 -39 19 -11 40 -25
48 -31 7 -7 20 -13 28 -13 8 0 14 -4 14 -9 0 -5 9 -12 20 -16 11 -3 42 -22 69
-41 28 -19 53 -34 56 -34 5 0 90 -57 255 -171 97 -67 355 -265 419 -322 111
-97 121 -103 168 -106 l48 -2 -25 23 c-14 13 -61 52 -105 88 -44 36 -89 73
-100 83 -11 10 -41 35 -67 55 -35 26 -44 38 -35 45 8 6 6 7 -6 3 -10 -3 -26 3
-37 14 -11 11 -23 20 -26 20 -5 0 -34 21 -94 68 -3 2 4 10 14 18 23 16 14 19
-12 3 -14 -9 -31 -1 -95 42 -54 37 -73 55 -65 62 8 5 5 6 -9 2 -14 -4 -23 -2
-23 4 0 6 -7 11 -15 11 -8 0 -15 5 -15 10 0 7 6 7 18 2 9 -5 28 -6 42 -2 23 6
19 10 -52 56 -42 27 -98 61 -123 76 -25 15 -45 33 -45 40 0 10 3 9 9 -1 7 -11
11 -10 20 7 12 22 -2 41 -15 20 -5 -7 -10 -4 -16 11 -6 18 -14 22 -31 18 -12
-3 -31 1 -41 9 -11 8 -15 14 -10 14 6 0 15 -5 22 -12 7 -7 12 -8 12 -2 0 6
-12 16 -27 23 -16 7 -50 27 -78 46 -53 34 -277 151 -380 197 -38 18 -52 27
-37 28 12 0 22 5 22 10 0 6 -10 8 -24 4 -13 -3 -27 -1 -30 4 -3 6 -15 8 -26 5
-12 -3 -20 0 -20 6 0 7 -4 9 -10 6 -5 -3 -10 -1 -10 4 0 14 13 14 28 -1 7 -7
12 -9 12 -4 0 16 -27 33 -90 56 -36 14 -68 24 -72 22 -5 -1 -8 2 -8 8 0 6 -3
9 -7 8 -5 0 -26 7 -48 17 -22 10 -52 18 -67 19 -20 1 -24 4 -16 14 8 9 7 11
-4 7 -9 -4 -23 1 -31 10 -9 9 -22 15 -29 14 -7 -2 -30 5 -52 14 -21 9 -43 17
-48 17 -5 0 -6 4 -3 10 3 5 0 7 -9 4 -8 -3 -46 5 -85 17 -60 20 -69 25 -59 38
10 13 10 14 -2 4 -18 -16 -44 -17 -34 -1 5 8 2 9 -9 5 -10 -3 -17 -2 -17 3 0
5 -7 7 -15 4 -9 -4 -18 1 -21 11 -5 13 -9 14 -15 3 -5 -7 -9 -8 -9 -2 0 11 -3
12 -55 18 -16 2 -29 8 -28 14 1 5 -7 8 -17 5 -11 -3 -20 0 -20 6 0 6 -19 11
-46 11 -27 0 -43 4 -39 10 3 6 -4 11 -17 11 -29 2 -52 5 -58 8 -3 2 -18 5 -35
7 -16 3 -36 11 -44 17 -12 9 -13 9 -7 0 4 -7 3 -13 -3 -13 -5 0 -12 4 -15 9
-3 5 -16 7 -28 3 -14 -3 -19 -1 -14 6 4 8 2 10 -7 6 -8 -3 -18 0 -22 6 -4 6
-15 8 -26 5 -10 -4 -19 -2 -19 3 0 6 -11 9 -25 7 -14 -1 -25 2 -25 7 0 6 -11
7 -26 4 -14 -4 -31 -3 -37 2 -7 5 -30 12 -52 16 -22 3 -53 8 -70 11 -16 3 -42
6 -57 7 -16 0 -28 5 -28 10 0 6 -11 7 -26 4 -17 -5 -23 -3 -19 4 4 6 -5 10
-22 11 -15 0 -37 2 -48 5 -11 2 -38 6 -60 8 -22 3 -96 11 -165 20 -69 8 -156
18 -195 21 -117 8 -540 18 -534 12z m3091 -844 c-10 -4 -10 -8 0 -21 11 -12 7
-12 -22 3 -48 24 -48 25 -4 24 21 0 33 -3 26 -6z m42 -29 c9 -24 2 -26 -12 -4
-7 11 -8 20 -3 20 5 0 12 -7 15 -16z m126 -64 c0 -5 -2 -10 -4 -10 -3 0 -8 5
-11 10 -3 6 -1 10 4 10 6 0 11 -4 11 -10z m-5 -28 c-3 -3 -11 0 -18 7 -9 10
-8 11 6 5 10 -3 15 -9 12 -12z"/>
<path d="M20228 49293 c7 -3 16 -2 19 1 4 3 -2 6 -13 5 -11 0 -14 -3 -6 -6z"/>
<path d="M20780 49050 c-9 -6 -10 -10 -3 -10 6 0 15 5 18 10 8 12 4 12 -15 0z"/>
<path d="M32597 48979 c7 -7 15 -10 18 -7 3 3 -2 9 -12 12 -14 6 -15 5 -6 -5z"/>
<path d="M32960 48785 c0 -9 62 -36 68 -30 3 3 -4 8 -16 12 -12 3 -22 9 -22
14 0 5 -7 9 -15 9 -8 0 -15 -2 -15 -5z"/>
<path d="M33111 48720 c-9 -5 -4 -7 13 -7 29 0 32 2 13 10 -8 3 -20 2 -26 -3z"/>
<path d="M33546 48432 c-2 -4 7 -9 22 -10 21 -1 24 0 12 8 -18 12 -27 12 -34
2z"/>
<path d="M21453 48235 c0 -8 4 -12 9 -9 4 3 8 9 8 15 0 5 -4 9 -8 9 -5 0 -9
-7 -9 -15z"/>
<path d="M21497 48239 c7 -7 15 -10 18 -7 3 3 -2 9 -12 12 -14 6 -15 5 -6 -5z"/>
<path d="M33790 48226 c0 -2 8 -10 18 -17 15 -13 16 -12 3 4 -13 16 -21 21
-21 13z"/>
<path d="M33865 48160 c-3 -5 -1 -10 4 -10 6 0 11 5 11 10 0 6 -2 10 -4 10 -3
0 -8 -4 -11 -10z"/>
<path d="M21531 48144 c0 -11 3 -14 6 -6 3 7 2 16 -1 19 -3 4 -6 -2 -5 -13z"/>
<path d="M21560 48141 c0 -6 4 -13 10 -16 6 -3 7 1 4 9 -7 18 -14 21 -14 7z"/>
<path d="M33980 48089 c9 -8 21 -25 27 -39 l12 -25 -3 24 c-2 14 -14 31 -27
39 -18 11 -20 11 -9 1z"/>
<path d="M21616 47988 c3 -5 10 -6 15 -3 13 9 11 12 -6 12 -8 0 -12 -4 -9 -9z"/>
<path d="M34110 47996 c0 -2 8 -10 18 -17 15 -13 16 -12 3 4 -13 16 -21 21
-21 13z"/>
<path d="M26628 45813 c7 -3 16 -2 19 1 4 3 -2 6 -13 5 -11 0 -14 -3 -6 -6z"/>
<path d="M26703 45813 c9 -2 23 -2 30 0 6 3 -1 5 -18 5 -16 0 -22 -2 -12 -5z"/>
<path d="M26968 45813 c7 -3 16 -2 19 1 4 3 -2 6 -13 5 -11 0 -14 -3 -6 -6z"/>
<path d="M25390 45455 c-14 -8 -20 -14 -14 -15 5 0 19 7 30 15 24 18 16 19
-16 0z"/>
<path d="M25290 45400 c-9 -6 -10 -10 -3 -10 6 0 15 5 18 10 8 12 4 12 -15 0z"/>
<path d="M24519 44803 l-34 -38 38 34 c20 19 37 36 37 38 0 8 -8 0 -41 -34z"/>
<path d="M24434 44718 l-19 -23 23 19 c12 11 22 21 22 23 0 8 -8 2 -26 -19z"/>
<path d="M24258 44498 c-60 -79 -117 -169 -159 -253 -49 -96 -124 -283 -117
-291 3 -2 17 29 33 68 56 145 183 385 253 476 13 17 22 32 19 32 -2 0 -16 -15
-29 -32z"/>
<path d="M23961 43909 c-6 -18 -9 -34 -7 -36 2 -2 9 10 15 28 6 18 9 34 7 36
-2 2 -9 -10 -15 -28z"/>
<path d="M28773 43840 c-264 -34 -511 -152 -700 -337 -173 -169 -318 -430
-340 -610 -5 -50 -4 -55 13 -51 10 2 56 48 102 103 183 221 343 355 534 450
166 82 275 107 458 108 220 0 385 -41 615 -153 161 -78 272 -150 433 -279 63
-50 120 -91 128 -91 23 0 16 46 -16 111 -187 369 -498 639 -837 725 -110 28
-277 38 -390 24z"/>
<path d="M24564 43491 c-222 -55 -412 -216 -534 -452 -49 -96 -105 -262 -96
-286 10 -26 34 -12 87 54 127 157 295 304 419 368 90 46 178 66 285 66 313 0
560 -178 829 -594 32 -50 62 -87 69 -84 21 7 10 108 -23 224 -109 379 -361
639 -689 709 -91 19 -259 17 -347 -5z"/>
<path d="M28927 42689 c-238 -27 -472 -185 -635 -428 -133 -199 -215 -430
-243 -692 -21 -192 16 -558 81 -797 12 -46 24 -81 26 -79 2 2 -10 56 -26 119
-43 174 -64 326 -63 468 1 69 3 132 6 140 2 8 7 38 11 65 10 61 58 230 88 305
133 340 372 611 618 701 196 71 422 45 614 -71 191 -116 401 -373 514 -630 73
-167 120 -287 176 -455 20 -60 44 -117 52 -125 11 -11 40 -15 122 -15 101 0
111 2 173 32 36 18 74 42 84 53 17 18 13 18 -40 -6 -69 -32 -170 -42 -242 -25
l-50 12 -11 63 c-17 89 -17 88 38 129 64 48 106 106 126 174 21 74 12 89 -16
25 -26 -60 -93 -125 -147 -142 -19 -7 -36 -10 -37 -8 -2 1 -18 53 -35 113 -58
196 -126 370 -186 470 -179 300 -407 501 -650 574 -62 18 -225 43 -265 40 -8
-1 -45 -5 -83 -10z"/>
<path d="M24616 42295 c-130 -36 -252 -123 -358 -254 -104 -130 -166 -261
-244 -520 -3 -10 -13 -6 -35 15 -35 33 -56 70 -75 129 l-13 40 0 -60 c-1 -66
26 -136 72 -191 30 -36 37 -91 12 -100 -23 -9 -102 42 -130 84 -30 43 -33 27
-6 -27 37 -71 143 -144 186 -127 8 3 20 27 29 54 8 27 18 58 24 68 5 11 17 44
26 74 27 85 114 262 126 255 6 -4 7 1 3 12 -3 10 -2 15 2 10 5 -4 26 25 47 63
47 85 149 195 230 250 202 134 431 96 632 -105 172 -171 298 -440 366 -780 17
-84 17 -83 25 -153 4 -34 11 -64 15 -67 5 -3 11 48 15 112 22 348 -81 712
-268 948 -151 191 -330 286 -535 284 -53 0 -119 -7 -146 -14z"/>
<path d="M29137 42010 c-126 -32 -223 -122 -296 -273 -80 -166 -107 -317 -98
-542 10 -226 54 -402 152 -600 116 -235 283 -391 462 -431 274 -61 493 154
559 547 22 132 15 369 -16 511 -79 371 -285 675 -522 769 -60 24 -182 33 -241
19z m283 -82 c152 -81 248 -182 328 -343 85 -171 102 -317 48 -423 -64 -127
-179 -166 -303 -104 -123 63 -235 218 -279 391 -21 83 -32 87 -113 47 -52 -27
-84 -64 -124 -142 -24 -47 -30 -52 -69 -58 -24 -4 -60 -7 -80 -6 -25 0 -40 -5
-47 -17 -8 -14 -10 -4 -11 43 0 146 94 393 187 491 50 52 153 118 201 129 15
3 43 9 62 13 53 12 160 1 200 -21z"/>
<path d="M24824 41756 c-443 -112 -594 -1016 -254 -1516 116 -170 301 -253
462 -206 152 44 292 214 367 444 118 362 51 843 -154 1104 -114 145 -275 212
-421 174z m269 -85 c25 -12 75 -51 111 -86 109 -106 187 -291 202 -480 5 -68
3 -89 -16 -140 -41 -110 -148 -187 -233 -170 -148 31 -269 220 -293 458 -8 77
-9 77 -94 50 -53 -17 -133 -86 -145 -125 -4 -10 -11 -16 -16 -13 -5 4 -12 -1
-15 -9 -5 -12 -11 -13 -24 -6 -26 14 -94 12 -108 -2 -9 -9 -15 -9 -23 -1 -16
16 19 127 76 240 47 95 138 205 202 244 20 13 64 33 97 45 82 30 211 28 279
-5z"/>
<path d="M24161 41544 c0 -11 3 -14 6 -6 3 7 2 16 -1 19 -3 4 -6 -2 -5 -13z"/>
<path d="M24141 41474 c0 -11 3 -14 6 -6 3 7 2 16 -1 19 -3 4 -6 -2 -5 -13z"/>
<path d="M24116 41363 c-32 -173 -38 -266 -33 -468 5 -207 17 -296 61 -459 58
-211 160 -407 278 -532 l48 -51 -112 -6 c-62 -3 -131 -12 -153 -19 l-40 -12
90 -8 c261 -22 445 -95 645 -256 43 -34 112 -99 154 -144 42 -45 76 -78 76
-73 0 18 -65 133 -104 184 -122 158 -280 265 -452 307 -59 14 -77 24 -122 68
-144 139 -267 394 -321 661 -48 239 -52 533 -11 769 11 66 18 121 16 123 -2 2
-11 -36 -20 -84z"/>
<path d="M30191 41044 c0 -11 3 -14 6 -6 3 7 2 16 -1 19 -3 4 -6 -2 -5 -13z"/>
<path d="M30202 40920 c0 -19 2 -27 5 -17 2 9 2 25 0 35 -3 9 -5 1 -5 -18z"/>
<path d="M25538 40810 c-11 -152 -50 -361 -93 -495 -6 -17 -5 -18 4 -4 38 58
105 430 99 546 -2 47 -4 38 -10 -47z"/>
<path d="M30203 40745 c0 -22 2 -30 4 -17 2 12 2 30 0 40 -3 9 -5 -1 -4 -23z"/>
<path d="M30191 40634 c0 -11 3 -14 6 -6 3 7 2 16 -1 19 -3 4 -6 -2 -5 -13z"/>
<path d="M28190 40585 c0 -15 82 -201 118 -265 112 -203 264 -378 425 -489 27
-18 44 -37 41 -45 -3 -8 19 -23 65 -44 160 -72 290 -102 438 -102 l94 0 -21
-27 c-11 -16 -45 -57 -75 -93 -53 -64 -144 -220 -128 -220 4 0 28 25 52 55
109 136 291 286 454 373 171 91 304 127 562 150 l90 8 -60 14 c-36 9 -115 14
-201 14 l-142 1 38 45 c91 109 180 265 244 428 36 92 38 112 11 112 -7 0 -16
8 -18 18 -4 14 -5 15 -6 1 0 -9 -9 -19 -19 -21 -12 -3 -27 -28 -41 -69 -53
-145 -143 -304 -243 -426 -73 -89 -126 -134 -200 -166 -32 -14 -88 -45 -125
-70 -61 -39 -83 -49 -143 -64 -8 -2 -47 -6 -87 -10 -132 -10 -286 23 -421 91
-26 13 -58 22 -72 20 -18 -3 -48 13 -111 60 -197 148 -361 365 -470 623 -42
99 -49 113 -49 98z"/>
<path d="M30181 40564 c0 -11 3 -14 6 -6 3 7 2 16 -1 19 -3 4 -6 -2 -5 -13z"/>
<path d="M26042 40380 c-15 -109 -79 -310 -128 -399 -102 -186 -210 -296 -416
-424 -42 -26 -70 -91 -76 -173 -17 -259 200 -519 518 -622 82 -27 201 -52 243
-51 23 0 8 7 -53 25 -47 14 -116 38 -153 54 -278 117 -477 350 -477 559 0 90
20 123 108 178 219 136 367 356 428 638 14 65 32 305 23 305 -3 0 -10 -40 -17
-90z"/>
<path d="M25421 40259 c-6 -18 -9 -34 -7 -36 2 -2 9 10 15 28 6 18 9 34 7 36
-2 2 -9 -10 -15 -28z"/>
<path d="M25183 39880 c-67 -63 -122 -99 -211 -137 -32 -14 -44 -22 -27 -18
62 12 157 70 233 141 42 40 75 73 72 73 -3 0 -33 -26 -67 -59z"/>
<path d="M24878 39713 c6 -2 18 -2 25 0 6 3 1 5 -13 5 -14 0 -19 -2 -12 -5z"/>
<path d="M23151 38975 c0 -33 6 -105 14 -160 72 -489 318 -1017 725 -1560 122
-163 249 -319 263 -324 15 -5 2 12 -108 148 -208 258 -441 619 -586 906 -166
330 -273 673 -298 963 -8 80 -8 82 -10 27z"/>
<path d="M24730 38241 c-41 -14 -77 -27 -79 -28 -9 -5 44 -75 97 -125 105
-101 221 -145 408 -157 110 -6 127 -10 197 -44 197 -93 394 -266 651 -572 384
-457 644 -665 972 -775 136 -46 241 -63 399 -62 462 0 857 206 1213 631 227
270 405 574 498 849 21 59 48 118 61 133 12 14 23 37 23 53 0 23 -7 30 -45 47
-51 23 -126 30 -132 13 -2 -6 14 -16 36 -23 22 -6 47 -19 56 -28 15 -14 14
-18 -12 -45 -81 -86 -291 -138 -558 -138 -236 0 -488 23 -995 90 -531 71 -572
74 -885 74 -327 0 -421 -9 -885 -90 -373 -65 -439 -74 -553 -74 -166 0 -274
39 -375 133 -80 76 -81 82 -24 102 26 8 56 22 67 31 17 13 18 16 5 24 -23 15
-58 10 -140 -19z m2450 -165 c69 -9 256 -34 415 -56 442 -61 542 -71 783 -77
l223 -6 -58 -59 c-236 -242 -552 -411 -894 -480 -161 -32 -486 -32 -663 0
-400 73 -730 276 -925 568 -47 69 -51 79 -34 85 16 6 222 32 338 43 104 10
697 -3 815 -18z m937 -1082 c20 -20 24 -32 19 -55 -25 -127 -191 -268 -399
-340 -153 -53 -387 -81 -491 -59 -70 14 -111 48 -101 83 20 68 121 149 290
232 220 108 410 163 568 164 82 1 90 -1 114 -25z"/>
<path d="M24250 36806 c0 -2 8 -10 18 -17 15 -13 16 -12 3 4 -13 16 -21 21
-21 13z"/>
<path d="M24320 36716 c0 -2 8 -10 18 -17 15 -13 16 -12 3 4 -13 16 -21 21
-21 13z"/>
<path d="M26370 33220 c-206 -4 -613 -13 -904 -20 -291 -7 -563 -10 -604 -6
-41 3 -80 2 -86 -3 -6 -5 -189 -11 -406 -14 -559 -7 -546 -2 -537 -212 8 -161
32 -487 52 -700 8 -88 17 -180 19 -205 2 -25 45 -394 95 -820 103 -878 152
-1297 181 -1550 11 -96 23 -192 26 -212 l6 -37 -119 -77 c-151 -100 -326 -269
-369 -359 -25 -52 -29 -74 -33 -167 -3 -115 10 -200 55 -330 23 -69 23 -72 8
-132 -12 -46 -15 -89 -11 -176 7 -134 19 -179 83 -296 l46 -85 -11 -140 c-13
-165 -4 -220 61 -363 34 -77 43 -111 59 -226 27 -204 74 -310 183 -406 51 -46
225 -138 281 -149 17 -3 -2 7 -41 23 -160 65 -277 157 -331 259 -39 73 -48
106 -73 278 -18 125 -24 150 -65 230 -59 120 -70 173 -60 310 13 175 12 183
-45 292 -79 153 -98 293 -61 437 l18 70 -28 77 c-69 190 -77 363 -22 481 58
124 104 167 378 363 l120 86 85 -5 c47 -3 96 -8 110 -11 191 -46 461 -12 540
67 23 22 30 40 32 71 3 73 1 79 -61 225 -91 212 -112 292 -118 442 -7 180 21
287 99 375 57 66 116 81 174 46 40 -24 65 -66 104 -171 37 -101 111 -243 182
-349 104 -154 208 -272 469 -531 146 -146 292 -296 324 -334 152 -183 280
-434 319 -626 13 -64 12 -66 -15 -110 -141 -230 -226 -743 -190 -1150 15 -171
53 -394 86 -507 27 -95 32 -158 13 -166 -355 -146 -676 -214 -1118 -237 -113
-6 -209 -13 -215 -15 -21 -9 345 7 484 21 243 25 472 76 687 153 155 55 206
81 199 98 -12 32 -55 214 -74 313 -109 574 -54 1087 161 1490 69 131 124 205
212 287 155 145 353 211 553 183 45 -6 182 -33 305 -60 644 -141 1085 -211
1523 -241 210 -14 618 -6 770 15 61 9 164 24 230 33 165 23 502 23 640 -1 180
-30 271 -64 411 -153 21 -13 23 -11 44 32 35 71 84 99 184 103 64 3 92 -1 134
-17 79 -31 81 -30 75 32 -11 108 30 519 88 882 164 1029 484 2232 816 3075 75
190 80 204 59 169 -43 -74 -223 -531 -338 -859 -241 -689 -497 -1691 -609
-2390 -18 -108 -25 -137 -30 -115 l-7 30 -1 -30 c0 -16 4 -70 9 -118 8 -67 7
-122 -5 -231 -8 -79 -18 -203 -21 -275 -6 -113 -9 -131 -23 -129 -21 4 -18
-16 -87 728 -58 621 -59 632 -64 507 l-5 -128 -60 463 c-33 255 -61 452 -63
438 -1 -14 36 -437 83 -940 47 -503 88 -947 92 -985 l6 -70 -58 2 c-32 1 -69
-3 -83 -8 -14 -5 -26 -8 -28 -6 -2 1 -30 369 -64 817 -33 448 -62 826 -64 840
-1 14 -4 -22 -6 -80 l-2 -105 -14 145 c-33 340 -116 973 -122 934 -2 -12 22
-347 52 -745 31 -398 74 -969 96 -1269 22 -300 41 -556 42 -570 1 -14 -3 -35
-10 -46 -11 -21 -12 -21 -84 15 -40 20 -74 37 -76 38 -2 0 -30 400 -62 887
-36 560 -62 891 -69 900 -10 12 -27 107 -80 466 -10 69 -19 113 -20 99 0 -14
33 -538 74 -1164 41 -626 75 -1144 75 -1150 0 -12 -28 -14 -46 -2 -6 3 -21 5
-33 2 -11 -2 -21 0 -21 6 0 5 -11 9 -25 9 -14 0 -28 6 -30 13 -2 6 -22 275
-45 597 -22 322 -42 594 -44 605 -2 11 -1 -59 1 -155 3 -96 3 -172 0 -169 -8
6 -87 482 -87 518 0 13 -2 22 -5 20 -2 -3 18 -313 45 -689 28 -376 50 -693 50
-703 0 -19 -5 -20 -82 -14 -108 9 -130 24 -140 98 -8 56 -44 421 -78 774 -64
678 -123 1592 -155 2425 -30 752 -48 867 -159 974 -43 43 -44 43 -137 50 -52
4 -137 9 -189 12 -52 2 -178 9 -280 14 -1357 74 -2057 89 -3100 70z m1735
-160 c354 -15 765 -57 1060 -106 275 -46 310 -53 302 -60 -2 -2 -143 9 -313
25 -567 54 -914 65 -2009 66 -539 0 -1144 -4 -1345 -8 -201 -5 -362 -5 -358
-2 25 25 1005 88 1538 99 237 5 889 -3 1125 -14z m2635 -4280 c22 -7 21 -8
-12 -9 -21 -1 -38 4 -38 9 0 11 14 11 50 0z m743 -27 c-7 -2 -21 -2 -30 0 -10
3 -4 5 12 5 17 0 24 -2 18 -5z m-493 -34 c12 -7 11 -8 -6 -9 -11 0 -29 7 -40
16 -18 14 -18 15 6 8 14 -3 32 -10 40 -15z m268 -1 c-3 -7 -15 -14 -29 -16
-24 -4 -24 -3 -4 12 24 19 38 20 33 4z"/>
<path d="M32576 32925 c-9 -26 -7 -32 5 -12 6 10 9 21 6 23 -2 3 -7 -2 -11
-11z"/>
<path d="M18711 32684 c0 -11 3 -14 6 -6 3 7 2 16 -1 19 -3 4 -6 -2 -5 -13z"/>
<path d="M30982 31370 c0 -14 2 -19 5 -12 2 6 2 18 0 25 -3 6 -5 1 -5 -13z"/>
<path d="M30771 31154 c0 -11 3 -14 6 -6 3 7 2 16 -1 19 -3 4 -6 -2 -5 -13z"/>
<path d="M31242 30820 c0 -19 2 -27 5 -17 2 9 2 25 0 35 -3 9 -5 1 -5 -18z"/>
<path d="M31501 30254 c0 -11 3 -14 6 -6 3 7 2 16 -1 19 -3 4 -6 -2 -5 -13z"/>
<path d="M31513 30140 c0 -25 2 -35 4 -22 2 12 2 32 0 45 -2 12 -4 2 -4 -23z"/>
<path d="M31521 30070 c-2 -39 44 -539 46 -505 2 17 -8 143 -21 280 -13 138
-24 239 -25 225z"/>
<path d="M10495 27140 c-11 -35 15 -319 41 -454 60 -307 195 -657 404 -1047
113 -210 401 -708 525 -909 254 -408 488 -699 724 -903 223 -191 261 -195 80
-10 -387 397 -662 805 -1124 1663 -320 594 -411 828 -545 1404 -33 142 -63
263 -66 267 -10 16 -33 9 -39 -11z"/>
<path d="M33975 26823 c-138 -284 -243 -477 -331 -608 -30 -44 -42 -65 -26
-48 64 77 174 270 329 581 91 183 164 334 161 337 -2 2 -62 -116 -133 -262z"/>
<path d="M26505 26580 c10 -11 20 -20 23 -20 3 0 -3 9 -13 20 -10 11 -20 20
-23 20 -3 0 3 -9 13 -20z"/>
<path d="M26595 26482 c39 -41 93 -92 120 -115 57 -46 48 -37 -90 93 -85 80
-89 83 -30 22z"/>
<path d="M24488 26523 c7 -3 16 -2 19 1 4 3 -2 6 -13 5 -11 0 -14 -3 -6 -6z"/>
<path d="M24528 26513 c7 -3 16 -2 19 1 4 3 -2 6 -13 5 -11 0 -14 -3 -6 -6z"/>
<path d="M24568 26503 c6 -2 18 -2 25 0 6 3 1 5 -13 5 -14 0 -19 -2 -12 -5z"/>
<path d="M24618 26493 c6 -2 18 -2 25 0 6 3 1 5 -13 5 -14 0 -19 -2 -12 -5z"/>
<path d="M24683 26483 c9 -2 25 -2 35 0 9 3 1 5 -18 5 -19 0 -27 -2 -17 -5z"/>
<path d="M24763 26473 c15 -2 37 -2 50 0 12 2 0 4 -28 4 -27 0 -38 -2 -22 -4z"/>
<path d="M24893 26463 c26 -2 68 -2 95 0 26 2 4 3 -48 3 -52 0 -74 -1 -47 -3z"/>
<path d="M19326 26348 c-3 -7 -17 -56 -32 -108 -124 -437 -381 -923 -703
-1330 -260 -330 -606 -663 -948 -912 -498 -363 -1002 -583 -1763 -767 -724
-176 -1171 -227 -1755 -202 -210 8 -252 8 -264 -4 -25 -24 -5 -43 66 -59 283
-64 807 -72 1278 -20 590 66 1320 263 1825 494 413 189 848 506 1240 907 244
248 386 423 578 710 279 418 441 783 495 1113 24 145 25 184 4 188 -9 2 -19
-2 -21 -10z"/>
<path d="M33569 26113 c-13 -16 -12 -17 4 -4 16 13 21 21 13 21 -2 0 -10 -8
-17 -17z"/>
<path d="M33494 26028 l-29 -33 33 29 c30 28 37 36 29 36 -2 0 -16 -15 -33
-32z"/>
<path d="M32788 25683 c7 -3 16 -2 19 1 4 3 -2 6 -13 5 -11 0 -14 -3 -6 -6z"/>
<path d="M32748 25673 c7 -3 16 -2 19 1 4 3 -2 6 -13 5 -11 0 -14 -3 -6 -6z"/>
<path d="M28610 25654 c36 -7 74 -13 85 -12 11 0 -9 6 -45 14 -36 7 -74 13
-85 12 -11 0 9 -6 45 -14z"/>
<path d="M32658 25653 c7 -3 16 -2 19 1 4 3 -2 6 -13 5 -11 0 -14 -3 -6 -6z"/>
<path d="M32608 25643 c7 -3 16 -2 19 1 4 3 -2 6 -13 5 -11 0 -14 -3 -6 -6z"/>
<path d="M28733 25633 c9 -2 23 -2 30 0 6 3 -1 5 -18 5 -16 0 -22 -2 -12 -5z"/>
<path d="M32558 25633 c7 -3 16 -2 19 1 4 3 -2 6 -13 5 -11 0 -14 -3 -6 -6z"/>
<path d="M28875 25610 c55 -11 111 -19 125 -18 14 0 -20 8 -75 18 -55 11 -111
19 -125 18 -14 0 20 -8 75 -18z"/>
<path d="M32508 25623 c6 -2 18 -2 25 0 6 3 1 5 -13 5 -14 0 -19 -2 -12 -5z"/>
<path d="M32458 25613 c7 -3 16 -2 19 1 4 3 -2 6 -13 5 -11 0 -14 -3 -6 -6z"/>
<path d="M32408 25603 c7 -3 16 -2 19 1 4 3 -2 6 -13 5 -11 0 -14 -3 -6 -6z"/>
<path d="M32358 25593 c7 -3 16 -2 19 1 4 3 -2 6 -13 5 -11 0 -14 -3 -6 -6z"/>
<path d="M29065 25576 c22 -7 82 -44 132 -82 51 -38 150 -105 220 -149 214
-133 261 -196 329 -440 67 -244 96 -330 160 -482 81 -191 101 -275 85 -349
-22 -95 -100 -144 -231 -144 -54 0 -78 6 -127 30 -113 57 -179 136 -363 440
-126 209 -197 307 -287 397 -64 63 -181 141 -244 163 -31 11 -41 25 -88 116
-95 188 -280 473 -288 447 -14 -42 291 -667 436 -893 47 -74 91 -216 98 -317
5 -76 4 -86 -24 -145 -17 -34 -59 -97 -95 -138 -61 -71 -228 -230 -242 -230
-3 0 -6 7 -6 16 0 36 -73 230 -143 382 -116 250 -321 621 -483 873 -25 39 -47
69 -50 66 -12 -12 147 -357 330 -717 255 -501 280 -554 307 -631 36 -107 12
-193 -88 -316 -26 -32 -76 -94 -111 -138 -80 -100 -114 -130 -177 -161 -80
-38 -81 -38 -73 64 15 204 5 404 -28 533 -33 133 -79 203 -293 448 -140 161
-357 387 -343 356 19 -38 186 -271 311 -433 207 -267 224 -298 260 -479 29
-140 64 -539 58 -643 -10 -150 -59 -256 -140 -305 -45 -27 -44 -34 1 -11 86
45 145 174 158 347 6 74 10 89 24 89 43 0 139 63 211 137 l74 77 65 -2 c61 -3
216 -12 750 -47 632 -40 933 -40 1400 0 184 16 337 38 308 43 -17 3 -17 5 0
30 23 36 20 223 -8 432 -33 250 -102 1592 -82 1612 6 6 28 14 49 18 21 3 -95
9 -257 13 -408 9 -779 38 -1180 93 -374 50 -382 51 -315 30z"/>
<path d="M32298 25583 c7 -3 16 -2 19 1 4 3 -2 6 -13 5 -11 0 -14 -3 -6 -6z"/>
<path d="M32238 25573 c6 -2 18 -2 25 0 6 3 1 5 -13 5 -14 0 -19 -2 -12 -5z"/>
<path d="M32178 25563 c6 -2 18 -2 25 0 6 3 1 5 -13 5 -14 0 -19 -2 -12 -5z"/>
<path d="M32118 25553 c6 -2 18 -2 25 0 6 3 1 5 -13 5 -14 0 -19 -2 -12 -5z"/>
<path d="M32053 25543 c9 -2 23 -2 30 0 6 3 -1 5 -18 5 -16 0 -22 -2 -12 -5z"/>
<path d="M31935 25531 l-39 -6 3 -55 c4 -73 11 -78 11 -8 l0 55 58 10 c61 11
34 14 -33 4z"/>
<path d="M31833 25513 c9 -2 25 -2 35 0 9 3 1 5 -18 5 -19 0 -27 -2 -17 -5z"/>
<path d="M31753 25503 c9 -2 25 -2 35 0 9 3 1 5 -18 5 -19 0 -27 -2 -17 -5z"/>
<path d="M31650 25474 c6 -14 10 -60 10 -102 0 -101 24 -415 60 -792 38 -398
63 -724 58 -767 -4 -37 -14 -36 102 -14 40 8 41 9 13 10 -30 1 -33 4 -33 34 0
58 -30 425 -60 747 -39 409 -60 686 -60 782 0 108 -9 128 -60 128 -38 0 -39
-1 -30 -26z"/>
<path d="M31558 25483 c12 -2 32 -2 45 0 12 2 2 4 -23 4 -25 0 -35 -2 -22 -4z"/>
<path d="M31434 25323 c3 -87 8 -241 11 -343 12 -406 45 -868 80 -1119 23
-159 28 -144 -74 -196 l-90 -44 -15 42 c-52 140 -65 293 -65 792 0 220 -5 533
-10 695 -5 162 -7 298 -4 303 2 4 -42 6 -99 5 -62 -1 -81 -3 -47 -5 l57 -4 6
-52 c7 -63 18 -697 20 -1167 2 -316 4 -354 24 -448 12 -56 32 -126 43 -154 11
-28 16 -54 12 -58 -4 -4 -37 -29 -73 -55 -36 -27 -69 -52 -75 -56 -7 -5 -9 24
-7 83 2 54 -5 151 -17 242 -52 381 -75 732 -97 1444 l-7 222 -39 0 -40 0 7
-172 c3 -95 10 -292 16 -438 18 -503 39 -767 79 -999 38 -217 36 -310 -8 -449
-10 -31 -10 -33 10 -26 12 3 55 35 96 70 155 132 323 232 507 301 50 19 79 31
65 28 -85 -19 -76 -25 -89 60 -46 314 -85 912 -93 1462 l-3 193 -43 0 -44 0 6
-157z"/>
<path d="M31308 25463 c18 -2 45 -2 60 0 15 2 0 4 -33 4 -33 0 -45 -2 -27 -4z"/>
<path d="M31913 25335 c0 -33 2 -45 4 -27 2 18 2 45 0 60 -2 15 -4 0 -4 -33z"/>
<path d="M31923 25205 c0 -33 2 -45 4 -27 2 18 2 45 0 60 -2 15 -4 0 -4 -33z"/>
<path d="M31933 25070 c0 -36 2 -50 4 -32 2 17 2 47 0 65 -2 17 -4 3 -4 -33z"/>
<path d="M31943 24940 c0 -36 2 -50 4 -32 2 17 2 47 0 65 -2 17 -4 3 -4 -33z"/>
<path d="M31953 24800 c0 -36 2 -50 4 -32 2 17 2 47 0 65 -2 17 -4 3 -4 -33z"/>
<path d="M31963 24665 c0 -38 2 -53 4 -32 2 20 2 52 0 70 -2 17 -4 1 -4 -38z"/>
<path d="M31973 24525 c0 -38 2 -53 4 -32 2 20 2 52 0 70 -2 17 -4 1 -4 -38z"/>
<path d="M31983 24385 c0 -38 2 -53 4 -32 2 20 2 52 0 70 -2 17 -4 1 -4 -38z"/>
<path d="M31993 24235 c0 -38 2 -53 4 -32 2 20 2 52 0 70 -2 17 -4 1 -4 -38z"/>
<path d="M32003 24095 c0 -38 2 -53 4 -32 2 20 2 52 0 70 -2 17 -4 1 -4 -38z"/>
<path d="M32013 23945 c0 -38 2 -53 4 -32 2 20 2 52 0 70 -2 17 -4 1 -4 -38z"/>
<path d="M32019 23842 c-3 -20 -2 -29 4 -23 5 5 7 19 5 32 -3 20 -5 19 -9 -9z"/>
<path d="M31738 23773 c7 -3 16 -2 19 1 4 3 -2 6 -13 5 -11 0 -14 -3 -6 -6z"/>
<path d="M34900 23325 c-24 -25 -42 -45 -39 -45 3 0 25 20 49 45 24 25 42 45
39 45 -3 0 -25 -20 -49 -45z"/>
<path d="M34952 23285 c0 -16 2 -22 5 -12 2 9 2 23 0 30 -3 6 -5 -1 -5 -18z"/>
<path d="M34749 23183 l-24 -28 28 24 c25 23 32 31 24 31 -2 0 -14 -12 -28
-27z"/>
<path d="M34962 23145 c0 -16 2 -22 5 -12 2 9 2 23 0 30 -3 6 -5 -1 -5 -18z"/>
<path d="M34669 23113 c-13 -16 -12 -17 4 -4 16 13 21 21 13 21 -2 0 -10 -8
-17 -17z"/>
<path d="M34599 23053 c-13 -16 -12 -17 4 -4 16 13 21 21 13 21 -2 0 -10 -8
-17 -17z"/>
<path d="M34972 23005 c0 -16 2 -22 5 -12 2 9 2 23 0 30 -3 6 -5 -1 -5 -18z"/>
<path d="M34982 22865 c0 -16 2 -22 5 -12 2 9 2 23 0 30 -3 6 -5 -1 -5 -18z"/>
<path d="M34992 22710 c0 -19 2 -27 5 -17 2 9 2 25 0 35 -3 9 -5 1 -5 -18z"/>
<path d="M35002 22555 c0 -16 2 -22 5 -12 2 9 2 23 0 30 -3 6 -5 -1 -5 -18z"/>
<path d="M23845 22390 c15 -277 150 -632 373 -980 58 -91 229 -320 287 -385
l36 -40 -3 95 -3 95 -100 128 c-129 164 -255 363 -338 530 -55 112 -117 251
-117 264 0 2 17 -9 38 -26 20 -16 95 -66 167 -111 136 -86 173 -113 268 -193
l57 -49 0 79 0 80 -77 55 c-43 31 -140 97 -215 147 -76 51 -164 113 -196 139
-129 103 -134 110 -159 191 l-24 76 6 -95z"/>
<path d="M35012 22385 c0 -16 2 -22 5 -12 2 9 2 23 0 30 -3 6 -5 -1 -5 -18z"/>
<path d="M35022 22210 c0 -19 2 -27 5 -17 2 9 2 25 0 35 -3 9 -5 1 -5 -18z"/>
<path d="M24513 22070 c0 -36 2 -50 4 -32 2 17 2 47 0 65 -2 17 -4 3 -4 -33z"/>
<path d="M35032 22030 c0 -19 2 -27 5 -17 2 9 2 25 0 35 -3 9 -5 1 -5 -18z"/>
<path d="M35043 21825 c0 -22 2 -30 4 -17 2 12 2 30 0 40 -3 9 -5 -1 -4 -23z"/>
<path d="M24523 21795 c0 -33 2 -45 4 -27 2 18 2 45 0 60 -2 15 -4 0 -4 -33z"/>
<path d="M35053 21610 c0 -25 2 -35 4 -22 2 12 2 32 0 45 -2 12 -4 2 -4 -23z"/>
<path d="M24533 21545 c0 -27 2 -38 4 -22 2 15 2 37 0 50 -2 12 -4 0 -4 -28z"/>
<path d="M30938 21533 c7 -3 16 -2 19 1 4 3 -2 6 -13 5 -11 0 -14 -3 -6 -6z"/>
<path d="M35062 21520 c0 -14 2 -19 5 -12 2 6 2 18 0 25 -3 6 -5 1 -5 -13z"/>
<path d="M30768 21503 c7 -3 16 -2 19 1 4 3 -2 6 -13 5 -11 0 -14 -3 -6 -6z"/>
<path d="M30708 21493 c7 -3 16 -2 19 1 4 3 -2 6 -13 5 -11 0 -14 -3 -6 -6z"/>
<path d="M30578 21473 c7 -3 16 -2 19 1 4 3 -2 6 -13 5 -11 0 -14 -3 -6 -6z"/>
<path d="M30508 21463 c7 -3 16 -2 19 1 4 3 -2 6 -13 5 -11 0 -14 -3 -6 -6z"/>
<path d="M30438 21453 c7 -3 16 -2 19 1 4 3 -2 6 -13 5 -11 0 -14 -3 -6 -6z"/>
<path d="M30368 21443 c7 -3 16 -2 19 1 4 3 -2 6 -13 5 -11 0 -14 -3 -6 -6z"/>
<path d="M30298 21433 c7 -3 16 -2 19 1 4 3 -2 6 -13 5 -11 0 -14 -3 -6 -6z"/>
<path d="M30218 21423 c7 -3 16 -2 19 1 4 3 -2 6 -13 5 -11 0 -14 -3 -6 -6z"/>
<path d="M30128 21413 c6 -2 18 -2 25 0 6 3 1 5 -13 5 -14 0 -19 -2 -12 -5z"/>
<path d="M35063 21375 c0 -27 2 -38 4 -22 2 15 2 37 0 50 -2 12 -4 0 -4 -28z"/>
<path d="M30048 21403 c7 -3 16 -2 19 1 4 3 -2 6 -13 5 -11 0 -14 -3 -6 -6z"/>
<path d="M29948 21393 c6 -2 18 -2 25 0 6 3 1 5 -13 5 -14 0 -19 -2 -12 -5z"/>
<path d="M29848 21383 c6 -2 18 -2 25 0 6 3 1 5 -13 5 -14 0 -19 -2 -12 -5z"/>
<path d="M29748 21373 c6 -2 18 -2 25 0 6 3 1 5 -13 5 -14 0 -19 -2 -12 -5z"/>
<path d="M29628 21363 c6 -2 18 -2 25 0 6 3 1 5 -13 5 -14 0 -19 -2 -12 -5z"/>
<path d="M24543 21320 c0 -25 2 -35 4 -22 2 12 2 32 0 45 -2 12 -4 2 -4 -23z"/>
<path d="M29478 21353 c12 -2 32 -2 45 0 12 2 2 4 -23 4 -25 0 -35 -2 -22 -4z"/>
<path d="M27808 21343 c7 -3 16 -2 19 1 4 3 -2 6 -13 5 -11 0 -14 -3 -6 -6z"/>
<path d="M29318 21343 c7 -3 16 -2 19 1 4 3 -2 6 -13 5 -11 0 -14 -3 -6 -6z"/>
<path d="M29358 21343 c6 -2 18 -2 25 0 6 3 1 5 -13 5 -14 0 -19 -2 -12 -5z"/>
<path d="M27958 21333 c7 -3 16 -2 19 1 4 3 -2 6 -13 5 -11 0 -14 -3 -6 -6z"/>
<path d="M29148 21333 c7 -3 16 -2 19 1 4 3 -2 6 -13 5 -11 0 -14 -3 -6 -6z"/>
<path d="M29198 21333 c7 -3 16 -2 19 1 4 3 -2 6 -13 5 -11 0 -14 -3 -6 -6z"/>
<path d="M28168 21323 c12 -2 30 -2 40 0 9 3 -1 5 -23 4 -22 0 -30 -2 -17 -4z"/>
<path d="M28898 21323 c12 -2 30 -2 40 0 9 3 -1 5 -23 4 -22 0 -30 -2 -17 -4z"/>
<path d="M28973 21323 c9 -2 23 -2 30 0 6 3 -1 5 -18 5 -16 0 -22 -2 -12 -5z"/>
<path d="M28478 21313 c34 -2 88 -2 120 0 31 2 3 3 -63 3 -66 0 -92 -1 -57 -3z"/>
<path d="M35073 21260 c0 -25 2 -35 4 -22 2 12 2 32 0 45 -2 12 -4 2 -4 -23z"/>
<path d="M35073 21110 c0 -36 2 -50 4 -32 2 17 2 47 0 65 -2 17 -4 3 -4 -33z"/>
<path d="M24553 21105 c0 -22 2 -30 4 -17 2 12 2 30 0 40 -3 9 -5 -1 -4 -23z"/>
<path d="M35083 20945 c0 -44 2 -61 4 -37 2 23 2 59 0 80 -2 20 -4 1 -4 -43z"/>
<path d="M24563 20905 c0 -22 2 -30 4 -17 2 12 2 30 0 40 -3 9 -5 -1 -4 -23z"/>
<path d="M35083 20780 c0 -47 2 -66 4 -42 2 23 2 61 0 85 -2 23 -4 4 -4 -43z"/>
<path d="M24573 20715 c0 -22 2 -30 4 -17 2 12 2 30 0 40 -3 9 -5 -1 -4 -23z"/>
<path d="M35094 20545 c0 -49 1 -71 3 -48 2 23 2 64 0 90 -2 26 -3 8 -3 -42z"/>
<path d="M24583 20530 c0 -25 2 -35 4 -22 2 12 2 32 0 45 -2 12 -4 2 -4 -23z"/>
<path d="M24593 20355 c0 -22 2 -30 4 -17 2 12 2 30 0 40 -3 9 -5 -1 -4 -23z"/>
<path d="M35093 20195 c0 -38 2 -53 4 -32 2 20 2 52 0 70 -2 17 -4 1 -4 -38z"/>
<path d="M24603 20185 c0 -22 2 -30 4 -17 2 12 2 30 0 40 -3 9 -5 -1 -4 -23z"/>
<path d="M24613 20025 c0 -22 2 -30 4 -17 2 12 2 30 0 40 -3 9 -5 -1 -4 -23z"/>
<path d="M24622 19870 c0 -19 2 -27 5 -17 2 9 2 25 0 35 -3 9 -5 1 -5 -18z"/>
<path d="M24632 19720 c0 -19 2 -27 5 -17 2 9 2 25 0 35 -3 9 -5 1 -5 -18z"/>
<path d="M24642 19575 c0 -16 2 -22 5 -12 2 9 2 23 0 30 -3 6 -5 -1 -5 -18z"/>
<path d="M24652 19430 c0 -14 2 -19 5 -12 2 6 2 18 0 25 -3 6 -5 1 -5 -13z"/>
<path d="M24662 19290 c0 -14 2 -19 5 -12 2 6 2 18 0 25 -3 6 -5 1 -5 -13z"/>
<path d="M35093 19240 c0 -41 2 -58 4 -37 2 20 2 54 0 75 -2 20 -4 3 -4 -38z"/>
<path d="M35083 18895 c0 -22 2 -30 4 -17 2 12 2 30 0 40 -3 9 -5 -1 -4 -23z"/>
<path d="M24861 17384 c0 -11 3 -14 6 -6 3 7 2 16 -1 19 -3 4 -6 -2 -5 -13z"/>
<path d="M24881 17254 c0 -11 3 -14 6 -6 3 7 2 16 -1 19 -3 4 -6 -2 -5 -13z"/>
<path d="M24891 17194 c0 -11 3 -14 6 -6 3 7 2 16 -1 19 -3 4 -6 -2 -5 -13z"/>
<path d="M24901 17134 c0 -11 3 -14 6 -6 3 7 2 16 -1 19 -3 4 -6 -2 -5 -13z"/>
<path d="M35002 17060 c0 -14 2 -19 5 -12 2 6 2 18 0 25 -3 6 -5 1 -5 -13z"/>
<path d="M34967 16858 c-82 -469 -112 -635 -152 -838 -24 -124 -51 -272 -60
-330 -9 -58 -18 -114 -21 -125 -4 -16 -3 -17 4 -5 13 20 123 382 162 530 27
104 97 475 115 607 6 44 4 54 -9 59 -14 5 -15 22 -10 130 4 68 5 124 2 124 -2
0 -16 -69 -31 -152z"/>
<path d="M24931 16964 c0 -11 3 -14 6 -6 3 7 2 16 -1 19 -3 4 -6 -2 -5 -13z"/>
<path d="M35400 16466 c0 -2 8 -10 18 -17 15 -13 16 -12 3 4 -13 16 -21 21
-21 13z"/>
<path d="M35460 16420 c0 -3 12 -27 26 -55 13 -27 22 -39 18 -25 -6 23 -44 92
-44 80z"/>
<path d="M35420 15708 c24 -27 45 -48 47 -48 8 0 0 9 -44 50 l-48 45 45 -47z"/>
<path d="M36740 13460 c6 -11 16 -20 22 -20 6 0 3 9 -7 20 -10 11 -20 20 -22
20 -2 0 1 -9 7 -20z"/>
<path d="M36781 13393 c25 -43 39 -60 39 -49 0 13 -45 86 -53 86 -5 0 1 -17
14 -37z"/>
<path d="M36830 13309 c7 -11 14 -19 16 -16 7 7 -7 37 -17 37 -6 0 -5 -9 1
-21z"/>
<path d="M36862 13258 c8 -13 32 -53 53 -90 22 -38 43 -68 47 -68 4 0 5 7 2
15 -4 8 -10 15 -15 15 -5 0 -9 5 -9 10 0 6 -16 36 -35 66 -19 30 -35 59 -35
64 0 6 -5 10 -11 10 -7 0 -6 -8 3 -22z"/>
<path d="M25731 13084 c0 -11 3 -14 6 -6 3 7 2 16 -1 19 -3 4 -6 -2 -5 -13z"/>
<path d="M36976 13060 c10 -16 19 -28 21 -26 5 5 -22 56 -30 56 -5 0 0 -13 9
-30z"/>
<path d="M25955 12100 c12 -65 57 -271 71 -324 27 -104 340 -1482 394 -1729
84 -389 156 -758 195 -997 20 -124 39 -227 42 -230 2 -2 1 25 -2 60 -3 36 -12
144 -20 240 -38 458 -191 1255 -376 1962 -92 353 -327 1137 -304 1018z"/>
<path d="M37747 11755 c1 -38 -2 -55 -10 -55 -8 0 -8 -3 2 -9 8 -5 12 -19 9
-35 -3 -16 -1 -23 5 -19 6 4 8 0 4 -11 -4 -10 -3 -15 3 -11 12 8 63 -92 54
-107 -5 -7 -2 -8 6 -3 10 6 12 4 6 -10 -6 -16 -4 -16 10 -4 16 13 16 12 5 -10
-11 -19 -11 -22 0 -16 9 6 11 3 6 -9 -5 -11 -3 -15 5 -10 8 5 9 2 5 -10 -5
-11 -3 -15 5 -10 8 5 9 2 5 -10 -5 -11 -3 -15 5 -10 8 5 9 2 5 -10 -5 -11 -3
-15 5 -10 8 5 9 2 5 -10 -4 -10 -3 -15 3 -11 12 8 53 -72 44 -87 -5 -7 -3 -8
6 -3 10 6 12 4 7 -9 -5 -11 -3 -15 5 -10 8 5 9 2 5 -10 -5 -11 -3 -15 5 -10 8
5 9 2 5 -10 -5 -11 -3 -15 5 -10 8 5 9 2 5 -10 -5 -11 -3 -15 5 -10 8 5 9 2 5
-10 -5 -11 -3 -15 5 -10 8 5 9 2 5 -10 -5 -11 -3 -15 5 -10 8 5 9 2 5 -10 -5
-11 -3 -15 5 -10 8 5 9 2 5 -10 -5 -11 -3 -15 5 -10 8 5 9 2 5 -10 -4 -10 -3
-15 3 -11 12 8 53 -72 44 -87 -5 -7 -3 -8 6 -3 10 6 12 4 7 -9 -5 -11 -3 -15
5 -10 8 5 9 2 5 -10 -5 -11 -3 -15 5 -10 8 5 9 2 5 -10 -5 -11 -3 -15 5 -10 8
5 9 2 5 -10 -5 -11 -3 -15 5 -10 8 5 9 2 5 -10 -5 -11 -3 -15 5 -10 8 5 9 2 5
-10 -5 -11 -3 -15 5 -10 8 5 9 2 5 -10 -5 -11 -3 -15 5 -10 8 5 9 2 5 -10 -4
-10 -3 -15 3 -11 12 8 53 -72 44 -87 -5 -7 -3 -8 6 -3 10 6 12 4 7 -9 -5 -11
-3 -15 5 -10 8 5 9 2 5 -10 -5 -11 -3 -15 5 -10 8 5 9 2 5 -10 -5 -11 -3 -15
5 -10 8 5 9 2 5 -10 -5 -11 -3 -15 5 -10 8 5 9 2 5 -10 -5 -11 -3 -15 5 -10 8
5 9 2 5 -10 -5 -11 -3 -15 5 -10 8 5 9 2 5 -10 -5 -11 -3 -15 5 -10 8 5 9 2 5
-10 -4 -10 -3 -15 3 -11 12 8 53 -72 44 -87 -5 -7 -3 -8 6 -3 10 6 12 4 7 -9
-5 -11 -3 -15 5 -10 8 5 9 2 5 -10 -5 -11 -3 -15 5 -10 8 5 9 2 5 -10 -5 -11
-3 -15 5 -10 8 5 9 2 5 -10 -5 -11 -3 -15 5 -10 8 5 9 2 5 -10 -5 -11 -3 -15
5 -10 8 5 9 2 5 -10 -5 -11 -3 -15 5 -10 8 5 9 2 5 -10 -4 -10 -3 -15 3 -11
12 8 43 -52 34 -67 -5 -7 -3 -8 6 -3 10 6 12 4 7 -9 -5 -11 -3 -15 5 -10 8 5
9 2 5 -10 -5 -11 -3 -15 5 -10 8 5 9 2 5 -10 -5 -11 -3 -15 5 -10 8 5 9 2 5
-10 -5 -11 -3 -15 5 -10 8 5 9 2 5 -10 -5 -11 -3 -15 5 -10 8 5 9 2 5 -10 -5
-11 -3 -15 5 -10 8 5 9 2 5 -10 -4 -9 -3 -15 2 -12 4 3 13 -6 20 -20 8 -17 8
-23 0 -19 -18 12 22 -59 48 -83 15 -13 22 -29 19 -38 -4 -10 -2 -13 6 -8 8 5
9 2 5 -10 -5 -11 -3 -15 5 -10 8 5 9 2 5 -10 -5 -11 -3 -15 5 -10 8 5 9 1 4
-12 -4 -10 -4 -15 0 -11 10 10 36 -31 28 -45 -5 -7 -3 -8 6 -3 10 6 12 4 7 -9
-5 -11 -3 -15 5 -10 8 5 9 2 5 -10 -4 -10 -3 -15 3 -11 6 3 10 -3 10 -15 0
-14 4 -19 12 -14 7 5 9 2 5 -8 -3 -9 3 -25 14 -37 11 -12 16 -21 12 -21 -4 0
3 -7 15 -16 13 -9 21 -22 18 -30 -3 -7 0 -16 6 -20 7 -5 8 -2 3 6 -6 9 -4 11
4 6 7 -5 10 -14 7 -22 -3 -7 0 -16 6 -20 7 -5 8 -2 4 7 -4 8 -1 5 8 -5 8 -10
13 -24 9 -30 -3 -6 -2 -8 2 -4 19 18 183 -247 172 -277 -3 -7 -3 -16 1 -20 3
-3 7 -40 7 -81 1 -54 -2 -77 -12 -81 -7 -3 -10 -9 -7 -14 7 -12 -31 -60 -41
-51 -5 4 -5 2 -2 -5 15 -25 -279 -262 -305 -247 -7 4 -10 4 -6 -1 5 -5 -1 -15
-13 -23 -18 -13 -23 -12 -43 7 l-22 21 -87 -60 c-48 -32 -161 -117 -250 -188
-188 -149 -279 -217 -398 -296 -64 -42 -88 -65 -97 -89 -10 -28 -31 -44 -129
-99 -456 -256 -932 -441 -1788 -694 -420 -124 -733 -205 -960 -249 -170 -33
-175 -35 -302 -109 -59 -34 -189 -107 -287 -160 -154 -85 -182 -97 -198 -87
-17 10 -63 -10 -326 -142 -368 -184 -512 -249 -826 -373 -358 -142 -551 -244
-754 -396 -412 -310 -672 -770 -672 -1187 0 -245 115 -413 427 -621 90 -61
168 -110 173 -110 6 0 10 -3 10 -7 0 -5 17 -19 38 -32 20 -13 49 -33 65 -43
15 -10 32 -16 37 -13 6 4 13 -1 16 -9 3 -9 10 -13 15 -10 5 3 9 0 9 -6 0 -7 7
-9 16 -6 8 3 13 2 10 -3 -3 -5 9 -15 27 -22 17 -7 34 -16 37 -19 3 -3 39 -18
80 -34 41 -15 84 -32 95 -36 17 -8 229 -67 358 -101 32 -9 36 -13 26 -25 -10
-12 -9 -13 5 -8 9 3 16 10 16 14 0 9 20 7 165 -13 89 -12 90 -13 57 -26 -22
-9 -36 -10 -45 -3 -14 11 -51 16 -116 14 -57 -2 -49 -10 20 -18 69 -8 81 -10
99 -18 8 -3 35 -7 60 -9 25 -1 50 -6 57 -10 6 -4 14 -3 18 3 3 5 14 10 23 10
15 0 15 -2 2 -10 -11 -7 -5 -8 19 -3 22 4 32 3 28 -4 -21 -34 652 -54 1088
-32 214 10 380 25 335 28 -23 2 -23 3 -5 10 11 5 28 4 39 -2 11 -5 44 -7 80
-2 34 3 86 9 116 12 30 3 58 10 61 15 4 6 19 7 35 4 16 -3 43 -2 59 3 l30 8
-47 13 c-28 7 -48 18 -48 26 0 8 -7 14 -15 14 -21 0 -19 -38 3 -43 9 -2 0 -2
-20 0 -24 3 -38 1 -38 -6 0 -6 -9 -11 -19 -11 -11 0 -22 -6 -25 -12 -3 -7 -3
-3 -1 8 5 18 2 21 -20 17 -13 -3 -22 -9 -19 -14 11 -19 -16 -8 -29 12 -13 18
-18 19 -37 9 -14 -7 -39 -10 -64 -6 -31 5 -37 4 -26 -5 13 -9 12 -10 -3 -5
-10 3 -26 6 -35 6 -10 0 -12 3 -7 9 6 5 57 14 115 21 58 6 122 14 143 17 25 4
37 2 37 -6 0 -7 -4 -9 -10 -6 -5 3 -18 1 -27 -4 -16 -9 -16 -10 4 -11 32 0 53
10 53 26 0 8 11 15 28 16 68 3 85 6 302 53 135 28 339 78 458 111 13 4 22 14
22 25 0 11 5 19 11 19 5 0 7 -5 4 -10 -9 -14 27 -12 46 3 9 7 14 19 12 27 -3
10 -1 9 7 -2 12 -19 40 -25 40 -8 0 6 10 10 23 10 36 0 67 12 61 22 -4 6 1 8
12 4 21 -6 47 6 43 20 -1 5 6 10 17 12 16 3 16 1 4 -7 -20 -14 -4 -14 21 0 11
6 17 15 12 22 -4 7 0 7 10 -2 11 -8 17 -9 17 -3 0 7 7 9 17 5 10 -4 14 -2 10
4 -4 6 -28 9 -54 7 -66 -5 -74 -5 -108 -1 -16 3 -23 2 -13 0 21 -5 32 -33 13
-33 -8 0 -15 5 -15 10 0 14 -27 12 -34 -2 -3 -7 -3 -2 0 10 5 21 3 23 -18 17
-58 -18 6 15 97 50 161 61 270 116 254 126 -8 5 -18 9 -24 9 -5 0 -3 -5 5 -10
10 -7 -22 -10 -100 -10 -85 1 -110 3 -97 11 10 6 25 8 33 5 8 -3 13 -2 10 2
-3 5 66 44 152 87 86 43 184 95 218 117 34 21 66 38 73 38 6 0 11 4 11 9 0 5
10 13 23 17 12 4 24 10 27 13 3 4 66 52 140 108 74 56 146 111 160 122 l25 21
-95 1 c-52 0 -88 3 -80 6 8 3 22 13 30 23 8 9 51 48 95 85 44 38 126 111 182
162 56 52 111 95 121 96 11 0 19 6 18 13 -1 10 475 484 487 484 2 0 3 -10 2
-22 -1 -13 -3 -23 -4 -23 -2 0 -4 -8 -6 -18 -2 -9 1 -15 5 -12 5 3 8 -13 8
-35 0 -23 1 -43 4 -45 5 -5 392 381 414 413 8 12 20 20 25 16 5 -3 8 -2 7 3
-3 10 82 103 94 103 4 0 8 -37 8 -82 l0 -83 76 78 c41 42 78 77 82 77 5 0 6
-16 4 -35 -2 -19 0 -35 5 -35 5 0 18 -7 29 -15 11 -9 13 -13 4 -10 -11 4 -15
-2 -16 -20 -1 -14 1 -25 5 -25 9 0 36 43 33 53 -1 5 2 6 8 2 5 -3 21 6 35 21
19 21 22 29 13 36 -7 4 -9 8 -4 8 6 0 1 7 -10 15 -14 11 -15 14 -3 9 14 -4 18
3 21 41 4 54 -5 64 -35 39 -12 -10 -8 -4 8 13 26 26 31 28 39 14 10 -16 10
-82 0 -113 -12 -39 23 -12 143 112 69 71 129 127 134 124 13 -8 -1 -33 -16
-28 -18 7 -30 -15 -16 -29 8 -8 11 -8 11 2 0 7 5 9 11 5 8 -5 6 -10 -5 -16
-10 -6 -16 -22 -16 -48 0 -63 26 -52 124 54 92 98 137 125 169 101 18 -13 23
-35 9 -35 -4 0 -14 6 -22 13 -12 10 -12 9 -1 -5 7 -10 11 -33 9 -53 -2 -19 -3
-35 -1 -35 8 0 33 63 33 85 0 14 4 25 9 25 5 0 12 11 15 25 10 41 34 31 39
-17 l4 -43 1 48 c3 63 22 61 22 -4 0 -33 4 -48 11 -44 6 4 9 30 7 60 -3 51 -2
54 32 77 58 40 60 40 60 23 0 -9 -4 -14 -9 -11 -5 3 -11 -1 -15 -9 -3 -8 -1
-17 4 -20 4 -3 10 1 13 7 3 7 4 -6 2 -30 -1 -23 2 -45 6 -48 5 -3 56 27 115
66 58 38 106 70 107 70 1 0 1 -29 1 -65 -1 -36 2 -65 7 -65 4 0 28 16 53 35
26 19 50 35 54 35 5 0 21 13 37 30 15 16 32 27 37 24 4 -3 9 1 10 8 1 7 4 -16
7 -52 5 -50 3 -68 -8 -77 -32 -28 8 -11 48 20 24 17 55 41 69 52 59 45 218
212 231 242 7 18 17 30 22 28 13 -9 3 201 -15 302 -9 51 -30 138 -47 195 -18
57 -32 113 -33 125 0 11 -4 19 -8 16 -5 -2 -8 0 -8 6 0 17 -169 407 -170 391
0 -20 -13 -4 -45 58 -19 37 -30 49 -36 41 -4 -8 -4 -16 0 -19 4 -3 4 -16 0
-30 -6 -21 -14 -11 -10 13 1 7 -14 10 -24 5 -3 -2 -39 56 -81 127 -81 138
-101 166 -89 126 5 -18 4 -22 -5 -16 -9 6 -11 4 -5 -5 4 -7 9 -29 11 -49 l2
-36 -21 38 c-41 73 -172 292 -188 314 -9 13 -19 20 -22 17 -4 -4 -14 -1 -24 7
-15 12 -16 12 -10 -3 4 -13 1 -18 -9 -18 -11 0 -14 6 -10 16 3 8 2 12 -4 9 -5
-3 -16 8 -25 26 -14 26 -15 36 -4 61 8 20 9 32 2 36 -5 4 -12 14 -15 21 -3 12
-6 12 -11 -2 -3 -9 -2 -17 3 -17 6 0 10 -9 10 -20 0 -25 -16 -26 -29 -2 -7 13
-7 22 0 29 8 8 7 13 0 17 -6 4 -11 2 -11 -3 0 -6 -4 -11 -10 -11 -5 0 -10 9
-10 20 0 11 -4 20 -9 20 -5 0 -11 9 -14 20 -4 15 0 20 14 20 10 0 19 5 19 11
0 5 -4 7 -10 4 -5 -3 -11 -1 -11 4 -1 6 -2 16 -3 23 0 6 -7 13 -14 16 -7 2
-13 -2 -11 -9 1 -8 1 -23 0 -34 -2 -19 -3 -18 -11 3 -5 12 -7 30 -3 40 5 16 5
16 -8 -1 -13 -16 -17 -14 -51 37 l-37 54 39 26 c22 14 43 26 46 26 4 0 22 11
40 25 18 14 35 25 38 25 3 0 6 -20 6 -45 0 -46 -13 -58 -38 -33 -19 19 -44 19
-40 0 2 -11 11 -16 25 -14 12 2 24 -2 28 -8 3 -5 14 -10 23 -10 14 0 16 8 14
49 -2 27 1 58 7 68 8 14 10 4 11 -47 0 -47 3 -61 11 -53 6 6 10 30 7 52 -2 23
0 41 4 41 3 0 5 11 2 24 -3 20 -1 23 16 19 15 -4 20 0 20 14 0 11 10 29 23 41
l23 22 2 -40 c3 -37 1 -40 -23 -40 -18 0 -25 -5 -25 -20 0 -15 7 -20 25 -20
14 0 25 -4 25 -9 0 -4 -11 -6 -25 -3 -16 3 -25 0 -25 -8 0 -7 -7 -10 -17 -6
-17 6 -17 5 -1 -7 14 -11 15 -16 5 -27 -10 -12 -9 -12 5 -1 10 7 15 18 11 24
-4 6 0 8 11 4 11 -5 15 -3 10 4 -4 7 -1 10 7 7 7 -2 23 0 35 7 36 19 172 149
185 178 21 46 27 31 23 -58 -2 -47 -1 -85 3 -85 22 0 79 61 100 107 36 78 30
142 -25 253 -40 82 -64 120 -74 120 -3 0 -4 -30 -3 -67 2 -55 0 -63 -8 -43
-46 110 -123 231 -214 334 -38 44 -42 45 -48 25 -4 -12 -2 -26 5 -33 8 -8 10
-7 5 7 -10 24 7 21 23 -4 16 -25 13 -29 -13 -19 -26 10 -89 97 -70 97 8 0 12
-4 9 -8 -2 -4 0 -10 5 -14 6 -3 8 3 6 15 -2 11 1 20 6 20 6 0 2 14 -8 30 -19
33 -28 37 -39 18 -4 -7 -4 -10 1 -6 4 4 14 0 21 -10 16 -21 17 -32 3 -32 -5 0
-7 5 -4 10 3 6 1 10 -4 10 -6 0 -11 -6 -12 -12 0 -7 -4 -3 -9 9 -5 13 -8 38
-6 58 1 19 -2 35 -7 35 -5 0 -7 9 -4 21 4 14 2 19 -7 16 -8 -3 -18 6 -25 19
-14 30 -14 37 -1 29 5 -3 -1 14 -13 39 -12 24 -26 42 -31 39 -5 -4 -7 1 -3 10
3 8 0 20 -7 27 -10 8 -15 7 -20 -5 -3 -9 -2 -13 4 -10 6 4 10 -7 10 -24 0 -29
19 -46 21 -18 0 6 4 4 7 -6 9 -22 3 -99 -7 -92 -4 2 -6 19 -4 37 3 24 2 29 -6
18 -5 -8 -7 -19 -4 -25 4 -7 2 -7 -5 0 -20 19 -62 107 -55 118 3 5 1 7 -5 3
-6 -3 -14 4 -18 16 -3 13 -21 46 -39 73 -17 28 -53 93 -79 145 -26 52 -54 100
-62 106 -7 6 -11 14 -8 17 9 9 -22 37 -31 29 -5 -4 -5 1 -2 10 4 10 2 28 -4
40 -8 20 -9 19 -4 -7 6 -29 6 -29 -9 -10 -13 17 -15 18 -16 3 0 -9 3 -18 8
-20 4 -1 15 -18 24 -36 10 -18 13 -30 8 -27 -6 3 -10 -2 -10 -11 0 -16 -1 -16
-15 2 -17 22 -20 38 -5 29 6 -3 10 -2 10 3 0 5 -10 12 -21 15 -15 4 -20 11
-16 21 4 10 1 16 -7 16 -8 0 -19 12 -25 28 -6 15 -40 81 -75 147 -60 113 -86
146 -86 111 0 -9 -4 -16 -10 -16 -6 0 -6 8 1 23 13 29 -17 109 -33 86 -8 -11
-9 -10 -4 4 3 10 -1 28 -9 40 -12 17 -15 18 -15 5 0 -9 -5 -20 -11 -24 -8 -4
-9 1 -4 16 5 17 4 21 -6 16 -8 -4 -6 -1 3 7 16 13 16 16 -4 56 -15 31 -23 39
-29 29 -13 -19 -11 -81 1 -73 6 4 8 16 4 28 -4 16 -3 19 5 11 7 -6 9 -23 5
-42 l-7 -32 -21 25 c-11 13 -50 80 -85 147 -35 68 -67 126 -70 130 -4 4 -5
-25 -3 -65 l3 -72 -31 55 c-63 111 -101 192 -96 207 3 8 1 11 -4 8 -5 -3 -22
20 -37 52 -15 32 -33 64 -39 71 -7 6 -16 22 -20 35 -4 12 -18 39 -31 60 -13
20 -20 37 -16 37 5 0 4 4 -2 8 -5 4 -28 41 -49 82 -22 41 -48 89 -57 107 -10
17 -53 98 -95 180 -42 81 -78 149 -79 150 0 1 0 -22 2 -52z m796 -1253 c2 7 4
1 3 -14 0 -16 -2 -28 -3 -28 -1 0 -10 15 -18 33 -12 25 -13 28 -1 14 10 -13
15 -15 19 -5z m24 -29 c-3 -10 -5 -4 -5 12 0 17 2 24 5 18 2 -7 2 -21 0 -30z
m35 -70 c6 -23 -1 -45 -13 -37 -12 7 -12 54 0 54 5 0 11 -8 13 -17z m258 -337
c0 -2 -7 -7 -16 -10 -8 -3 -12 -2 -9 4 6 10 25 14 25 6z m17 -18 c-3 -8 -6 -5
-6 6 -1 11 2 17 5 13 3 -3 4 -12 1 -19z m3 -38 c0 -11 -4 -20 -9 -20 -5 0 -7
9 -4 20 3 11 7 20 9 20 2 0 4 -9 4 -20z m306 -435 c-4 -11 0 -15 11 -13 10 2
19 -7 24 -24 8 -32 -14 -41 -24 -10 -4 9 -14 27 -23 40 -15 21 -15 22 1 22 11
0 15 -5 11 -15z m173 -279 c-3 -3 -11 5 -18 17 -13 21 -12 21 5 5 10 -10 16
-20 13 -22z m-1715 -1247 c-142 -275 -554 -815 -805 -1054 -480 -458 -1258
-826 -2029 -960 -210 -37 -527 -46 -679 -21 -172 29 -299 85 -383 167 -84 84
-87 162 -11 276 44 67 160 168 269 235 63 38 81 54 77 68 -4 14 28 36 164 110
92 51 229 128 304 171 130 74 142 79 265 104 630 128 1710 458 2254 690 144
61 469 223 560 278 30 19 57 33 58 31 2 -1 -18 -44 -44 -95z m1704 76 c-3 -14
-1 -25 3 -25 5 0 9 -8 9 -17 0 -13 -6 -10 -20 12 -14 21 -16 33 -8 42 16 20
21 16 16 -12z m-813 -2205 c3 -5 2 -10 -4 -10 -5 0 -13 5 -16 10 -3 6 -2 10 4
10 5 0 13 -4 16 -10z m-2591 -1996 c17 -6 22 -24 8 -24 -5 0 -17 7 -28 15 -19
15 -8 20 20 9z m-77 -10 c-3 -3 -12 -4 -19 -1 -8 3 -5 6 6 6 11 1 17 -2 13 -5z
m153 -19 c0 -8 -4 -15 -9 -15 -13 0 -22 16 -14 24 11 11 23 6 23 -9z m-228
-38 c-15 -12 -30 -25 -33 -29 -3 -5 -59 -10 -125 -12 l-119 -4 118 10 c64 6
117 15 117 19 0 5 5 9 11 9 6 0 17 7 25 15 9 9 11 15 4 15 -6 0 -8 5 -5 10 5
8 11 7 21 -1 11 -9 9 -15 -14 -32z m-37 23 c-3 -5 -14 -10 -23 -9 -14 0 -13 2
3 9 27 11 27 11 20 0z m-65 -20 c-8 -5 -19 -10 -25 -10 -5 0 -3 5 5 10 8 5 20
10 25 10 6 0 3 -5 -5 -10z m-3290 -46 c0 -2 -7 -4 -15 -4 -8 0 -15 4 -15 10 0
5 7 7 15 4 8 -4 15 -8 15 -10z m857 -239 c-6 -16 -34 -17 -40 -2 -4 11 1 14
19 13 13 0 22 -5 21 -11z m1373 5 c0 -5 -11 -10 -24 -10 -13 0 -29 -7 -36 -15
-11 -13 -15 -13 -21 -3 -6 9 1 17 24 25 41 15 57 16 57 3z m-1335 -10 c-3 -5
-11 -10 -16 -10 -6 0 -7 5 -4 10 3 6 11 10 16 10 6 0 7 -4 4 -10z m55 -1 c0
-5 5 -7 12 -3 6 4 8 3 5 -4 -8 -12 -47 -4 -47 9 0 5 7 9 15 9 8 0 15 -5 15
-11z m70 -6 c-8 -3 -18 -11 -22 -17 -4 -6 -10 -7 -15 -3 -9 10 16 27 37 26 13
-1 13 -1 0 -6z m76 -8 c16 -8 22 -15 14 -15 -18 1 -70 29 -54 30 7 0 25 -7 40
-15z m820 4 c4 -8 30 -10 78 -6 54 4 64 3 41 -5 -16 -5 -67 -11 -112 -14 -68
-3 -83 -1 -83 10 0 8 12 17 28 19 15 2 30 5 34 6 4 0 10 -4 14 -10z m484 1 c0
-5 -2 -10 -4 -10 -3 0 -8 5 -11 10 -3 6 -1 10 4 10 6 0 11 -4 11 -10z m80 0
c0 -5 -6 -10 -14 -10 -8 0 -18 5 -21 10 -3 6 3 10 14 10 12 0 21 -4 21 -10z
m-725 -11 c11 -17 2 -18 -19 -3 -17 12 -17 14 -4 14 9 0 20 -5 23 -11z m502
-4 c0 -8 -2 -15 -4 -15 -3 0 -11 7 -19 15 -14 13 -13 15 4 15 10 0 19 -7 19
-15z m67 1 c-3 -8 -12 -12 -20 -9 -17 6 -9 23 11 23 8 0 12 -6 9 -14z m-229
-6 c-27 -12 -43 -12 -25 0 8 5 22 9 30 9 10 0 8 -3 -5 -9z m-1128 -6 c-3 -3
-12 -4 -19 -1 -8 3 -5 6 6 6 11 1 17 -2 13 -5z"/>
<path d="M34263 3543 c9 -2 25 -2 35 0 9 3 1 5 -18 5 -19 0 -27 -2 -17 -5z"/>
<path d="M26033 11595 c0 -22 2 -30 4 -17 2 12 2 30 0 40 -3 9 -5 -1 -4 -23z"/>
<path d="M26043 11410 c0 -25 2 -35 4 -22 2 12 2 32 0 45 -2 12 -4 2 -4 -23z"/>
<path d="M38037 11366 c-4 -10 -3 -15 3 -11 6 3 10 -2 11 -12 0 -10 3 -13 5
-6 3 7 1 20 -4 29 -8 15 -9 15 -15 0z"/>
<path d="M38086 11272 c-2 -4 -1 -14 5 -22 7 -12 9 -10 9 8 0 23 -5 28 -14 14z"/>
<path d="M26053 11210 c0 -30 2 -43 4 -27 2 15 2 39 0 55 -2 15 -4 2 -4 -28z"/>
<path d="M38116 11203 c-6 -14 -5 -15 5 -6 7 7 10 15 7 18 -3 3 -9 -2 -12 -12z"/>
<path d="M38080 11201 c0 -6 4 -13 10 -16 6 -3 7 1 4 9 -7 18 -14 21 -14 7z"/>
<path d="M38174 11096 c-4 -9 -4 -20 0 -23 3 -4 6 0 6 7 0 9 5 7 16 -6 14 -18
14 -18 3 6 -16 34 -18 35 -25 16z"/>
<path d="M26063 10995 c0 -38 2 -53 4 -32 2 20 2 52 0 70 -2 17 -4 1 -4 -38z"/>
<path d="M38225 10989 c-4 -6 -5 -12 -2 -15 2 -3 7 2 10 11 7 17 1 20 -8 4z"/>
<path d="M38210 10948 c0 -4 4 -8 9 -8 6 0 12 4 15 8 3 5 -1 9 -9 9 -8 0 -15
-4 -15 -9z"/>
<path d="M38261 10894 c0 -11 3 -14 6 -6 3 7 2 16 -1 19 -3 4 -6 -2 -5 -13z"/>
<path d="M26074 10750 c0 -52 1 -74 3 -47 2 26 2 68 0 95 -2 26 -3 4 -3 -48z"/>
<path d="M26085 10170 c0 -195 1 -275 2 -177 2 97 2 257 0 355 -1 97 -2 17 -2
-178z"/>
<path d="M38747 10289 c4 -13 8 -18 11 -10 2 7 -1 18 -6 23 -8 8 -9 4 -5 -13z"/>
<path d="M38770 10281 c0 -6 4 -13 10 -16 6 -3 7 1 4 9 -7 18 -14 21 -14 7z"/>
<path d="M38781 10194 c0 -11 3 -14 6 -6 3 7 2 16 -1 19 -3 4 -6 -2 -5 -13z"/>
<path d="M39020 9925 c0 -8 4 -15 10 -15 5 0 7 7 4 15 -4 8 -8 15 -10 15 -2 0
-4 -7 -4 -15z"/>
<path d="M26094 9560 c0 -63 1 -89 3 -57 2 31 2 83 0 115 -2 31 -3 5 -3 -58z"/>
<path d="M39297 9420 c-3 -11 -2 -22 3 -25 4 -3 10 4 13 15 3 11 2 22 -3 25
-4 3 -10 -4 -13 -15z"/>
<path d="M26103 9225 c0 -38 2 -53 4 -32 2 20 2 52 0 70 -2 17 -4 1 -4 -38z"/>
<path d="M26113 8940 c0 -36 2 -50 4 -32 2 17 2 47 0 65 -2 17 -4 3 -4 -33z"/>
<path d="M39756 8963 c-6 -14 -5 -15 5 -6 7 7 10 15 7 18 -3 3 -9 -2 -12 -12z"/>
<path d="M39790 8880 c0 -28 -3 -32 -11 -20 -9 12 -10 12 -5 -4 4 -11 9 -46
13 -78 5 -50 3 -61 -13 -73 -10 -7 -16 -17 -11 -21 4 -4 7 -1 7 7 0 11 2 11 9
1 6 -10 13 -3 26 24 13 28 16 53 13 99 -6 74 -27 123 -28 65z"/>
<path d="M26124 8685 c0 -55 1 -76 3 -47 2 29 2 74 0 100 -2 26 -3 2 -3 -53z"/>
<path d="M39330 8725 c-11 -13 -10 -14 4 -9 9 3 16 10 16 15 0 13 -6 11 -20
-6z"/>
<path d="M26131 8429 c1 -74 5 -197 9 -274 5 -94 6 -51 3 130 -3 149 -7 272
-9 274 -2 2 -3 -56 -3 -130z"/>
<path d="M39124 8519 c3 -17 6 -35 6 -40 0 -13 28 -11 36 3 5 8 2 9 -9 5 -14
-5 -17 0 -17 28 0 19 -5 35 -11 35 -8 0 -9 -11 -5 -31z"/>
<path d="M39150 8520 c0 -5 5 -10 10 -10 6 0 10 5 10 10 0 6 -4 10 -10 10 -5
0 -10 -4 -10 -10z"/>
<path d="M39286 8247 c3 -10 9 -15 12 -12 3 3 0 11 -7 18 -10 9 -11 8 -5 -6z"/>
<path d="M39311 8208 c0 -13 3 -17 6 -10 2 6 9 10 14 7 5 -4 6 1 3 9 -9 24
-24 19 -23 -6z"/>
<path d="M39286 8207 c3 -10 9 -15 12 -12 3 3 0 11 -7 18 -10 9 -11 8 -5 -6z"/>
<path d="M26133 7850 c0 -30 2 -43 4 -27 2 15 2 39 0 55 -2 15 -4 2 -4 -28z"/>
<path d="M26120 7711 c0 -11 4 -22 9 -25 4 -3 6 6 3 19 -5 30 -12 33 -12 6z"/>
<path d="M25880 7415 c-351 -172 -376 -182 -388 -165 -13 18 -19 16 -125 -35
-169 -82 -581 -188 -1157 -300 -380 -74 -447 -90 -565 -136 -286 -112 -516
-321 -654 -597 -42 -83 -96 -248 -112 -340 -8 -45 -15 -68 -21 -60 -6 10 -8 9
-8 -2 0 -45 32 -263 46 -310 72 -245 297 -455 630 -588 101 -40 297 -96 413
-118 50 -10 91 -21 91 -24 0 -4 14 -4 31 -2 18 3 29 1 26 -5 -3 -5 10 -7 30
-5 20 3 33 1 30 -5 -3 -5 7 -8 23 -7 16 1 80 -4 142 -12 62 -7 149 -18 193
-23 77 -9 74 -9 -65 -9 -91 1 -150 5 -159 12 -11 8 -13 8 -7 -1 5 -10 -3 -13
-30 -13 -55 0 -38 -7 36 -15 36 -4 68 -9 71 -11 3 -2 35 -6 70 -9 35 -3 85 -8
110 -11 25 -3 63 -7 85 -10 107 -12 819 -16 1030 -5 268 14 395 24 465 35 18
3 63 8 99 11 35 3 66 8 69 11 4 3 -316 7 -554 5 -16 0 -17 2 -5 8 26 14 177
20 190 7 10 -8 11 -8 6 2 -4 6 -4 12 1 12 10 0 263 29 323 37 25 3 64 6 87 7
22 1 39 4 37 7 -2 4 22 9 54 13 255 30 797 158 1192 283 474 149 1046 397
1395 605 107 64 110 65 142 52 124 -52 643 45 889 166 116 57 217 145 249 218
22 51 14 62 -45 62 -122 1 -532 80 -905 175 -529 135 -958 274 -1220 397 -143
67 -175 78 -205 73 -40 -6 -126 38 -640 328 -157 89 -366 202 -465 252 -179
90 -501 226 -533 224 -9 0 -186 -83 -392 -184z m544 119 c182 -72 460 -211
706 -353 107 -62 281 -158 385 -214 338 -179 350 -186 335 -191 -73 -27 -297
-83 -458 -115 -538 -109 -1100 -130 -1582 -60 -441 63 -616 180 -524 350 32
58 122 153 191 200 34 24 44 36 40 51 -5 17 26 35 241 139 136 66 306 149 377
184 72 36 134 65 139 65 5 0 73 -25 150 -56z m-1794 -2858 c0 -2 -9 -6 -20 -9
-11 -3 -20 -1 -20 4 0 5 9 9 20 9 11 0 20 -2 20 -4z m1048 -3 c-15 -2 -42 -2
-60 0 -18 2 -6 4 27 4 33 0 48 -2 33 -4z"/>
<path d="M40172 6744 c-2 -153 -5 -281 -9 -287 -3 -6 -1 -7 6 -3 12 8 10 -39
-4 -79 -10 -30 72 65 91 104 14 28 16 54 11 136 -9 143 -64 405 -85 405 -5 0
-9 -124 -10 -276z"/>
<path d="M40151 6884 c0 -11 3 -14 6 -6 3 7 2 16 -1 19 -3 4 -6 -2 -5 -13z"/>
<path d="M40293 6750 c0 -25 2 -35 4 -22 2 12 2 32 0 45 -2 12 -4 2 -4 -23z"/>
<path d="M33520 6710 c-9 -6 -10 -10 -3 -10 6 0 15 5 18 10 8 12 4 12 -15 0z"/>
<path d="M33430 6670 c-13 -8 -12 -10 3 -10 9 0 17 5 17 10 0 12 -1 12 -20 0z"/>
<path d="M40341 6644 c0 -11 3 -14 6 -6 3 7 2 16 -1 19 -3 4 -6 -2 -5 -13z"/>
<path d="M40293 6580 c0 -41 2 -58 4 -37 2 20 2 54 0 75 -2 20 -4 3 -4 -38z"/>
<path d="M40366 6435 c-9 -26 -7 -32 5 -12 6 10 9 21 6 23 -2 3 -7 -2 -11 -11z"/>
<path d="M39306 6258 c5 -8 2 -9 -10 -5 -10 4 -15 3 -11 -3 3 -6 1 -10 -5 -10
-6 0 -8 -5 -5 -10 4 -6 12 -4 21 5 20 20 41 20 24 0 -10 -12 -10 -15 1 -15 8
-1 3 -7 -11 -16 l-25 -15 25 7 c23 6 24 6 10 -11 -14 -17 -14 -17 9 -6 19 10
21 15 10 22 -12 7 -11 9 1 9 13 0 13 1 0 11 -12 8 -12 12 -2 16 10 4 9 8 -5
19 -22 17 -37 18 -27 2z"/>
<path d="M32315 6250 c-3 -6 1 -7 9 -4 18 7 21 14 7 14 -6 0 -13 -4 -16 -10z"/>
<path d="M39280 6164 c0 -8 5 -12 10 -9 6 4 8 11 5 16 -9 14 -15 11 -15 -7z"/>
<path d="M39195 6130 c-13 -6 -15 -9 -5 -9 8 0 22 4 30 9 18 12 2 12 -25 0z"/>
<path d="M30328 6083 c12 -2 30 -2 40 0 9 3 -1 5 -23 4 -22 0 -30 -2 -17 -4z"/>
<path d="M31488 6083 c6 -2 18 -2 25 0 6 3 1 5 -13 5 -14 0 -19 -2 -12 -5z"/>
<path d="M38805 6080 c-4 -6 3 -10 14 -10 25 0 27 6 6 13 -8 4 -17 2 -20 -3z"/>
<path d="M30418 6073 c7 -3 16 -2 19 1 4 3 -2 6 -13 5 -11 0 -14 -3 -6 -6z"/>
<path d="M31368 6073 c12 -2 32 -2 45 0 12 2 2 4 -23 4 -25 0 -35 -2 -22 -4z"/>
<path d="M30538 6063 c7 -3 16 -2 19 1 4 3 -2 6 -13 5 -11 0 -14 -3 -6 -6z"/>
<path d="M30618 6063 c7 -3 16 -2 19 1 4 3 -2 6 -13 5 -11 0 -14 -3 -6 -6z"/>
<path d="M31278 6063 c6 -2 18 -2 25 0 6 3 1 5 -13 5 -14 0 -19 -2 -12 -5z"/>
<path d="M31088 6053 c6 -2 18 -2 25 0 6 3 1 5 -13 5 -14 0 -19 -2 -12 -5z"/>
<path d="M38764 6026 c-10 -8 -16 -18 -11 -22 4 -4 7 -2 7 4 0 6 7 9 15 6 9
-4 15 0 15 10 0 20 -1 20 -26 2z"/>
<path d="M39050 6009 c0 -5 5 -7 10 -4 6 3 10 8 10 11 0 2 -4 4 -10 4 -5 0
-10 -5 -10 -11z"/>
<path d="M38804 5974 c1 -7 5 -16 9 -20 3 -4 2 -16 -4 -28 -8 -16 -4 -14 15 7
26 28 33 46 19 48 -5 0 -15 2 -24 4 -10 2 -16 -3 -15 -11z m30 -15 c-3 -5 -10
-7 -15 -3 -5 3 -7 10 -3 15 3 5 10 7 15 3 5 -3 7 -10 3 -15z"/>
<path d="M38463 5785 c0 -27 2 -38 4 -22 2 15 2 37 0 50 -2 12 -4 0 -4 -28z"/>
<path d="M38200 5780 c0 -5 5 -10 11 -10 5 0 7 5 4 10 -3 6 -8 10 -11 10 -2 0
-4 -4 -4 -10z"/>
<path d="M38112 5714 c-7 -8 -8 -14 -3 -14 10 0 25 19 20 25 -2 1 -10 -3 -17
-11z"/>
<path d="M38171 5684 c0 -11 3 -14 6 -6 3 7 2 16 -1 19 -3 4 -6 -2 -5 -13z"/>
<path d="M38210 5680 c-6 -11 -9 -20 -8 -20 2 0 11 9 21 20 9 11 13 20 7 20
-5 0 -14 -9 -20 -20z"/>
<path d="M38040 5639 c0 -5 5 -7 10 -4 6 3 10 8 10 11 0 2 -4 4 -10 4 -5 0
-10 -5 -10 -11z"/>
<path d="M38166 5635 c-11 -8 -17 -17 -14 -20 2 -3 13 4 23 15 21 23 18 25 -9
5z"/>
<path d="M38110 5629 c0 -5 5 -7 10 -4 6 3 10 8 10 11 0 2 -4 4 -10 4 -5 0
-10 -5 -10 -11z"/>
<path d="M38035 5560 c-3 -5 -1 -10 4 -10 6 0 11 5 11 10 0 6 -2 10 -4 10 -3
0 -8 -4 -11 -10z"/>
<path d="M38058 5533 c-28 -33 -31 -48 -3 -20 15 16 25 30 23 33 -3 2 -12 -4
-20 -13z"/>
<path d="M37538 5233 c-38 -4 -38 -4 -38 -51 l0 -46 45 44 c42 41 56 62 38 58
-5 -1 -25 -3 -45 -5z"/>
<path d="M37179 4910 c-1 -3 -2 -19 -4 -37 -2 -27 1 -31 14 -23 9 4 28 21 43
37 l28 29 -40 -1 c-22 0 -40 -2 -41 -5z"/>
<path d="M9113 4743 c0 -9 4 -10 14 -2 7 6 13 12 13 14 0 1 -6 2 -13 2 -8 0
-14 -6 -14 -14z"/>
<path d="M20576 4718 c3 -5 10 -6 15 -3 13 9 11 12 -6 12 -8 0 -12 -4 -9 -9z"/>
<path d="M36840 4450 c-9 -6 -10 -10 -3 -10 6 0 15 5 18 10 8 12 4 12 -15 0z"/>
<path d="M36710 4340 c-9 -6 -10 -10 -3 -10 6 0 15 5 18 10 8 12 4 12 -15 0z"/>
<path d="M36560 4309 c0 -5 9 -9 20 -9 11 0 20 2 20 4 0 2 -9 6 -20 9 -11 3
-20 1 -20 -4z"/>
<path d="M36418 4253 c7 -3 16 -2 19 1 4 3 -2 6 -13 5 -11 0 -14 -3 -6 -6z"/>
<path d="M36473 4205 c0 -8 4 -12 9 -9 5 3 6 10 3 15 -9 13 -12 11 -12 -6z"/>
<path d="M35333 3663 c9 -2 23 -2 30 0 6 3 -1 5 -18 5 -16 0 -22 -2 -12 -5z"/>
<path d="M35484 3655 c15 -8 38 -15 50 -15 21 1 21 1 2 15 -11 8 -34 15 -50
15 l-31 0 29 -15z"/>
<path d="M35252 3649 c-28 -10 -40 -38 -22 -49 9 -6 0 -10 -26 -13 l-39 -4 37
-1 c30 -2 41 3 54 23 20 31 34 32 27 3 -4 -19 -3 -20 6 -8 6 8 11 11 11 7 0
-14 27 17 27 31 0 11 -4 10 -14 -4 -12 -17 -13 -17 -13 0 0 9 -4 15 -9 12 -5
-4 -11 -2 -13 3 -2 5 -13 5 -26 0z"/>
<path d="M35405 3650 c27 -12 43 -12 25 0 -8 5 -22 9 -30 9 -10 0 -8 -3 5 -9z"/>
<path d="M35098 3633 c7 -3 16 -2 19 1 4 3 -2 6 -13 5 -11 0 -14 -3 -6 -6z"/>
<path d="M35130 3631 c0 -5 7 -12 16 -15 24 -9 27 -7 10 9 -17 17 -26 19 -26
6z"/>
<path d="M32868 3623 c7 -3 16 -2 19 1 4 3 -2 6 -13 5 -11 0 -14 -3 -6 -6z"/>
<path d="M42136 259 c-3 -17 -6 -83 -6 -145 l0 -114 145 0 145 0 0 135 0 135
-128 0 c-77 0 -132 4 -139 11 -7 7 -12 1 -17 -22z"/>
<path d="M0 140 l0 -140 140 0 140 0 0 114 c0 82 4 116 13 119 10 4 10 6 0 6
-20 1 -15 21 5 22 11 1 9 4 -8 9 -14 4 -85 8 -157 9 l-133 1 0 -140z"/>
<path d="M320 240 c0 -5 5 -10 10 -10 6 0 10 5 10 10 0 6 -4 10 -10 10 -5 0
-10 -4 -10 -10z"/>
</g>
</svg>
